<?xml version="1.0" standalone="yes"?>
<svg xmlns="http://www.w3.org/2000/svg" width="407" height="276">
<path style="fill:#ffffff; stroke:none;" d="M0 0L0 91C2.00256 86.2383 1.69045 80.1326 2.6142 75C3.7602 68.6325 5.71061 62.3663 6.7037 56C7.99986 47.6909 7.94791 39.3249 9 31C14.9406 30.0575 18.203 24.5943 23.2863 21.7253C30.6925 17.5453 39.9986 15.4478 48.0895 12.9738C58.9171 9.66278 70.7262 8.52789 81.9105 6.8858C103.226 3.75616 124.389 1 146 1C141.531 -0.875153 135.809 0 131 0L102 0L0 0z"/>
<path style="fill:#87581e; stroke:none;" d="M146 0C150.72 1.98056 156.92 1 162 1L196 1C191.28 -0.98056 185.08 0 180 0L146 0z"/>
<path style="fill:#ffffff; stroke:none;" d="M196 0C201.018 2.10547 207.605 0.914001 212.999 1.00464C219.472 1.11337 226.455 2.54691 233 3.16977C250.325 4.81851 267.011 7.8855 284.039 11.2315C295.436 13.4709 308.452 15.9339 318.714 21.7253C322.67 23.9583 327.466 27.6627 329.106 32.0394C330.322 35.2827 329.266 38.6577 329.518 42C330.051 49.0952 332.318 56.1546 334.116 63C334.95 66.1758 335.37 69.8867 337.14 72.7106C339.687 76.7752 344.456 79.317 347.897 82.5509C349.089 83.6709 350.942 85.202 350.029 87.0471C348.208 90.7273 341.409 85.8768 339 85C339.922 106.462 341.909 126.513 338.576 148C336.576 160.887 331.164 172.461 328.364 185C326.321 194.151 326.193 204.648 326 214L318 214L318 206C310.73 213.739 306.649 224.127 298.829 231.572C271.174 257.901 228.398 274.996 190 275C195.707 277.395 203.846 276 210 276L254 276L407 276L407 133C397.272 132.994 387.736 131.001 378 131L378 118C384.044 117.741 390.039 116.411 396 115.414C399.678 114.798 402.852 113.807 406 116C407.552 112.301 407 107.983 407 104L407 81L407 0L196 0z"/>
<path style="fill:#8e5c20; stroke:none;" d="M122 1L122 3L140 3L140 1L122 1z"/>
<path style="fill:#754c0b; stroke:none;" d="M117 3C125.312 6.48773 137.24 3.42297 146 3.03937C154.094 2.68491 161.971 3.93857 170 3.99536C180.366 4.06866 190.632 3.08582 201 3L201 1C182.38 1 163.62 0.324371 145.015 1.01852C141.819 1.13776 139.085 2.5043 135.961 2.87115C129.779 3.59692 123.222 3 117 3z"/>
<path style="fill:#87571e; stroke:none;" d="M201 1L201 3L220 3L220 1L201 1z"/>
<path style="fill:#8c5a1f; stroke:none;" d="M106 3C109.432 4.44031 113.3 4 117 4C113.568 2.55969 109.7 3 106 3z"/>
<path style="fill:#63400a; stroke:none;" d="M36 24C38.9799 24.7446 41.5673 25.1256 44 27C47.1809 25.2282 50.4954 24.8469 54 24C53.013 27.7307 51.8735 31.0826 52.2894 35C52.6715 38.5995 55.0116 43.7278 54 47C54.8402 48.9161 54.9847 49.2226 54 51L56 55L62 56C60.9626 53.4866 60.3168 52.3826 58 51C61.6515 46.3217 66.5388 44.9746 72 47C72.5397 43.6096 72.1373 40.4159 72 37C68.7298 36.4901 66.903 36.1435 65 39C61.5516 34.1737 65.5428 28.6659 66 23L61 23L61 21C65.7244 20.9964 69.47 20.0097 74 19C73.7896 20.8468 73.806 22.1433 74 24C77.1149 24 80.7046 23.5492 84 23L85 21L85 23C89.1437 17.9455 90.9966 15.0827 98 15C96.6876 18.6611 97.3094 21.2499 98 25L104 24C104.654 27.0539 106.007 26.9358 109 27L109 23L104 23L104 21L108 21C107.551 19.2436 107.345 18.6072 108 17L106 13C111.607 10.3083 114.464 8.01874 121 8L121 12L114 13C113.684 21.9068 111.152 30.3315 110 39L120 37L120 43C120.685 41.7516 120.749 41.4516 121 40L126 40C124.361 34.168 124.65 30.7457 126 25C118.251 23.7597 121.562 16.7858 128 17C128.562 15.1994 128.824 13.8782 129 12L131 15C131.685 13.7517 131.749 13.4515 132 12C136.149 12.9365 139.612 11.9553 142 16C148.885 15.9192 153.947 12.0202 161 12C162.383 9.68323 163.487 9.03735 166 8C164.455 2.90909 160.809 3.00989 156 3C149.249 2.98611 142.706 3.66696 136 3.96063C129.053 4.26486 121.93 3.36453 115.015 4.10803C112.065 4.42514 109.758 6.151 106.91 6.72607C102.268 7.6637 96.7545 7.5849 92 7.91049C79.2531 8.78342 66.225 8.3985 54.7106 14.6466C48.5773 17.9748 38.6168 15.9877 36 24z"/>
<path style="fill:#66420a; stroke:none;" d="M165 4L166 8C163.115 8.71091 161.839 9.11499 161 12C153.883 12.0047 148.799 15.7833 142 16C140.374 11.3798 136.202 12.4814 132 12L132 15C130.805 13.7773 130.684 13.58 130 12C129.076 13.6481 128.551 15.175 128 17C122.784 16.5776 120.682 18.9533 120 24C124.269 23.9085 127.487 23.6919 130 20C132.974 20.598 137.124 20.2668 139.417 22.5201C141.838 24.8992 140.801 27.8768 141.809 30.7361C142.392 32.3922 143.882 33.701 145 35L148 33C147.773 35.9705 147.219 37.9036 145.142 40.1566C143.531 41.9037 140.737 43.4389 140.708 46.1096C140.669 49.8104 143.995 50.8458 147.015 50.9807C152.09 51.2074 157.117 50.0658 160 55L165 55C164.703 52.2001 164.555 49.7833 165 47C166.985 48.2766 167.849 48.9809 169 51C170.362 47.5376 170.191 44.8281 173 42C170.947 40.1209 168.603 33.7645 165.957 33.5965C162.93 33.4041 160.032 38.0823 157 39L158 36L149 33C152.351 31.8761 155.609 32.8765 158.871 31.9306C166.838 29.6203 170.812 22.632 169 15L173 15C173.575 20.1827 175.841 22.9538 181 24C181.76 19.9789 183.073 14.0815 178 13C181.462 8.57791 184.15 9.86441 189 11L189 15L192 15C193.192 7.57489 198.829 4.33344 206 4C207.96 10.6986 226.688 4.56604 220 16C220.957 17.5167 221.387 18.3386 222 20C227.71 18.3817 228.935 14.543 229 9C233.82 8.61963 238.153 7.82449 242.985 8.76929C246.481 9.45276 249.47 11.5109 253.015 11.892C260.847 12.734 269.122 12 277 12C274.386 10.903 271.841 11.2922 269.09 10.7261C266.213 10.1342 263.849 8.22562 260.985 7.53241C257.725 6.74298 254.366 7.31647 251.09 6.74072C222.335 1.68738 193.973 4 165 4z"/>
<path style="fill:#86571d; stroke:none;" d="M224 3C227.697 4.55151 232.017 4 236 4C232.303 2.44849 227.983 3 224 3z"/>
<path style="fill:#88581e; stroke:none;" d="M94 4C96.6127 5.09772 99.1645 4.9928 102 5C99.3873 3.90228 96.8355 4.0072 94 4z"/>
<path style="fill:#7a4f0c; stroke:none;" d="M62 9L62 11C68.5461 10.9775 74.4708 8.53708 81 8.08951C90.6198 7.43008 103.28 9.53711 112 5C107.481 3.1037 102.727 4.57684 98 4.91049C86.0388 5.75479 74.1166 8.74988 62 9z"/>
<path style="fill:#624009; stroke:none;" d="M192 15L189 15L189 11C184.463 9.37976 180.63 7.98276 178 13C182.104 15.5887 181.465 19.5984 181 24C176.314 22.4319 173.961 19.8599 173 15L169 15C170.365 22.4869 166.192 29.7531 158.231 31.787C155.414 32.507 151.976 31.5803 149 32C151.765 34.226 154.549 35.2434 158 36C157.014 37.4785 157 37.2032 157 39C160.214 38.4587 163.143 33.8336 165.957 34.1173C169.509 34.4753 171.478 45.793 176.052 37.9329L176 36C179.395 39.7092 180.473 43.0195 180 48C183.486 47.9981 186.65 47.9904 190 47C188.288 43.4962 184.822 41.8852 182.989 38.6211C181.326 35.6588 182.233 30.4437 186.098 29.7731C187.94 29.4536 190.223 30.5891 192 31C192.742 36.046 196.292 37.8716 201 39C201.674 36.7026 201.965 36.2259 204 35C203.339 33.6037 203.036 33.1863 202 32L208 31C206.466 32.0226 206.598 31.8045 206 33C208.742 34.4284 210.912 34.9084 214 35C213.79 36.8467 213.806 38.1434 214 40L220 37C220.607 32.3024 221.796 27.7472 222 23C214.74 23.02 209.153 24.9629 206 17L200 19C199.594 16.9076 199.783 16.9802 198 16C205.075 13.6359 209.453 12.0462 217 13C216.637 15.2317 216.637 16.7683 217 19C218.146 18.0486 219.317 17.1469 220.221 15.9413C227.51 6.23102 208.839 8.59061 206 4C198.497 4.1608 192.734 6.99518 192 15z"/>
<path style="fill:#81531d; stroke:none;" d="M238 4C241.163 5.32736 244.586 4.99963 248 5C244.837 3.67264 241.414 4.00037 238 4z"/>
<path style="fill:#8c5a1f; stroke:none;" d="M85 5L85 7L90 7L90 5L85 5z"/>
<path style="fill:#83541d; stroke:none;" d="M248 5L248 7L257 7L257 5L248 5z"/>
<path style="fill:#905d20; stroke:none;" d="M261 7C262.769 7.77893 264.036 7.91241 266 8C264.231 7.22107 262.964 7.08759 261 7z"/>
<path style="fill:#624009; stroke:none;" d="M106 13C106.406 15.0923 106.217 15.0198 108 16C106.466 17.0226 106.598 16.8046 106 18C106.65 19.2997 106.147 19 108 19L108 21L104 21L104 23L109 23L109 27C106.311 26.5824 105.446 26.2827 104 24L94 25C94.5108 23.0478 94.7333 22.5431 96 21C91.6956 19.873 89.6212 24.718 85 21C82.1173 22.6057 79.119 23.0408 76 24L78 29L74 29C74.9708 36.1252 78.6805 36.4768 85 36C82.9517 43.0405 76.2015 44.6683 76 53L70 48L72 48C67.796 43.5814 60.6748 45.8913 58 51C61.7315 54.1682 65.0136 57.646 70.196 58.4128C72.057 58.6882 73.9017 57.5755 75.7137 58.233C78.8285 59.3632 80.5568 62.1355 84 63L85 59C82.62 58.1456 80.5123 57.3337 78 57C77.8241 55.1218 77.5618 53.8006 77 52C82.5038 50.9076 87.3358 47.7212 93 47L92 56C95.0395 55.2757 97.8783 55.0262 101 55C100.907 51.1836 100.884 48.3657 97 47L97 44L102 44C103.77 41.1018 105.684 40.5301 109 40C108.215 44.2453 108.215 47.7547 109 52C117.386 51.0119 120.961 59.6989 127.26 63.3958C131.948 66.1471 138.776 65 144 65C142.149 62.9308 139.324 61.184 137.988 58.74C136.194 55.4568 137 50.6183 137 47C142.907 44.994 147.795 39.2188 148 33C146.686 33.7679 146.768 33.6859 146 35C144.435 33.4717 142.628 32.0597 142.007 29.8696C141.186 26.9739 142.051 23.9781 139.427 21.7677C136.994 19.7187 132.98 20.3009 130 20C127.227 22.7747 124.89 23.6469 121 24C122.769 24.7789 124.036 24.9124 126 25C124.029 30.5173 123.913 34.427 126 40C123.007 40.0642 121.654 39.9461 121 43C120.356 40.8941 120.094 39.2049 120 37C116.414 37.1059 113.447 38.2318 110 39C111.957 30.3384 113.886 22.0348 114 13L121 12L121 8C114.407 8.00433 111.334 9.23795 106 13z"/>
<path style="fill:#63400a; stroke:none;" d="M229 9L229 15C237.172 15.6223 244.1 11.739 250 19C252.276 18.0005 254.527 16.4118 257.015 16.0085C259.358 15.6286 261.635 16.6619 263.961 16.2855C267.599 15.6967 270.116 13.2657 274 13C275.257 18.3317 278.62 22.1636 280.412 27.0895C281.866 31.0842 281.818 36.7513 282 41L285 41C285.996 49.6545 291.179 45.0542 296.95 45.3881C301.779 45.6676 305.482 48.8783 309 44C307.521 43.0143 307.797 43 306 43L306 41L312 39L312 32L317 32C318.991 37.8864 320.75 38.6777 318 45C320.519 44.6744 323.48 44.4942 325.772 43.2971C329.21 41.5013 329.638 36.5204 328.436 33.1705C326.349 27.3525 318.461 22.4417 312.91 20.4668C306.259 18.1002 299.783 17.036 293.039 15.2955C289.583 14.4036 286.606 12.5831 282.996 12.1744C273.412 11.0892 263.589 12.9093 254.004 11.892C250.729 11.5443 248.07 9.70685 244.91 8.96295C239.451 7.67749 234.462 8.30969 229 9z"/>
<path style="fill:#794f0c; stroke:none;" d="M264 8C267.346 11.5177 271.422 10.9995 276 11C273.193 7.31223 268.283 8.00284 264 8z"/>
<path style="fill:#83541d; stroke:none;" d="M276 9C278.345 12.6174 282.058 11.7879 285.91 12.9745C294.441 15.6021 304.091 19.2644 313 20C309.115 16.8719 304.755 16.2941 300.09 14.9136C292.295 12.6073 284.073 10.068 276 9z"/>
<path style="fill:#80530d; stroke:none;" d="M40 15C46.5453 17.7465 53.5538 14.4376 60 13L60 11C53.1928 11.5936 46.7085 14.1459 40 15z"/>
<path style="fill:#925e21; stroke:none;" d="M49 12C50.506 12.683 51.3148 12.8259 53 13C51.494 12.317 50.6852 12.1741 49 12z"/>
<path style="fill:#6d470b; stroke:none;" d="M198 15L200 19C202.33 18.6845 203.918 18.0978 206 17C207.002 21.0144 213.107 27.782 216.64 21.4861C217.866 19.3022 216.898 15.4479 217 13C213.787 12.4036 210.354 11.5892 207.09 12.2994C203.821 13.0105 201.45 14.7469 198 15z"/>
<path style="fill:#64410a; stroke:none;" d="M222 20L221 16C218.107 17.8785 217.475 19.6361 217 23L222 23L220 37C217.695 37.6672 216.035 38.7025 214 40L214 35C210.82 35 203.941 33.0148 208 32C205.761 31.1892 204.353 31.4712 202 32L204 35C201.303 35.578 201.211 36.2614 201 39C196.628 37.3776 193.235 35.7252 192 31C186.226 28.9413 179.116 30.5005 182.589 38.6211C183.952 41.8086 187.937 44.155 190 47C184.071 48.4163 179.685 48.2458 178 55C183.506 56.961 188.921 53.9874 193.923 55.6929C197.062 56.7632 197.199 60.1377 194.728 62.0525C193.059 63.3452 190.958 63.0802 189 63C183.145 72.5443 170.748 59.9434 166 69C183.993 69 203.127 70.8777 221 68.8711C226.442 68.2602 231.724 66.2018 237.09 65.2593C243.605 64.1147 251.366 64.0549 258 64C255.225 62.1031 251.566 56.2462 248.09 56.5463C242.97 56.9884 243.52 65.8496 237 61C231.879 63.9869 226.787 63.9994 221 64L221 67L205 67L205 61C209.621 60.6392 211.623 59.8951 212 55C209.253 54.9979 205.874 55.434 203.344 54.142C200.103 52.4869 199.51 48.0168 202.434 45.689C205.538 43.2185 211.221 44.6437 214.91 43.7006C218.456 42.7943 220.494 40.1012 222 37L224 37C225.131 40.6977 226.44 42.4435 230 44L230 41C231.195 42.2228 231.316 42.42 232 44C235.774 44.1197 244.045 46.3987 246.972 43.169C248.355 41.6431 247.9 39.0308 248.508 37.1836C249.268 34.8796 251.208 33.2325 251.718 30.8194C252.942 25.0181 249.628 15.4185 243.614 13.7832C241.1 13.0995 239.286 14.485 236.91 14.9954C234.643 15.4825 232.282 14.934 230.039 15.5486C227.115 16.35 224.747 18.7477 222 20z"/>
<path style="fill:#613f09; stroke:none;" d="M249 19L250 24C255.717 23.3021 263.19 23.7187 268.961 24.3758C271.291 24.6412 274.355 24.7082 275.547 27.1227C276.894 29.8495 274.636 33.3309 274 36C271.007 34.1534 267.52 29.6957 263.919 29.4228C260.143 29.1367 256.075 34.144 253 36C252.422 33.2496 250.284 32.3753 248.639 35.4167C247.203 38.0707 246.534 43.9274 246 47L256 49L257 44L261 44C260.067 48.2461 257.807 51.1688 256 55L253 53C251.897 54.4566 251.457 54.8966 250 56C251.288 57.9903 252.513 60.6546 254.554 61.9761C259.142 64.9471 265.19 61.1958 270.004 61.0185C273.665 60.8837 277.342 61.1624 281 60.9105C291.24 60.2053 303.754 55.7517 312.571 50.4915C316.294 48.2702 320.549 43.6902 320.629 39.0147C320.676 36.2937 318.221 34.2357 317 32L312 32L312 39C309.828 39.4637 308.042 40.1055 306 41L306 43L309 44C304.559 48.1892 302.165 45.4412 296.95 45.1829C291.172 44.8966 286.698 49.1423 285 41L282 41C281.907 36.5101 281.99 30.3823 280.412 26.1698C278.727 21.6725 275.682 17.6666 274 13C270.071 13.1191 267.62 15.0983 263.961 15.787C261.647 16.2225 259.348 15.2776 257.015 15.6358C254.16 16.0742 251.633 17.9218 249 19z"/>
<path style="fill:#6e470b; stroke:none;" d="M36 16C31.8265 23.3312 22.3502 21.3529 16.6343 26.1481C12.4186 29.6848 11.3719 37.9706 14.8542 42.446C18.1399 46.6688 26.8527 50.2999 32 51C27.8592 45.1407 16.027 42.3648 14.8426 33.919C13.7133 25.8663 25.2337 24.2207 29.6674 28.8248C32.122 31.3738 30.0941 35.8 30 39C33.1195 37.5762 35.0622 35.8231 37 33C37.9857 34.4785 38 34.2032 38 36C43.6435 36.2117 49.1237 36.1919 49 43C45.8961 41.8911 43.3231 41.0981 40 41C40.8845 44.191 42.2229 44.878 45 43C46.4267 49.4878 49.1499 52.555 56 51C55.5943 48.9076 55.7833 48.9803 54 48C55.5339 46.9774 55.4023 47.1954 56 46C51.2303 38.77 52.6544 31.9471 54 24C50.7981 24.5974 47.1744 24.4987 45 27C42.218 25.0206 39.3356 24.6322 36 24C39.7794 17.01 47.227 17.6125 54 16C49.0423 14.2218 41.4154 16 36 16z"/>
<path style="fill:#70490b; stroke:none;" d="M86 23C91.9676 23.8898 95.7756 20.3545 98 15C91.615 15.0226 87.6571 16.3379 86 23z"/>
<path style="fill:#7d510c; stroke:none;" d="M21 24C26.0881 23.5385 33.0968 21.3822 36 17C31.0554 17.6689 23.8496 19.8093 21 24z"/>
<path style="fill:#6c460a; stroke:none;" d="M61 21L61 23L66 23C64.9072 28.3139 60.6152 34.8243 65 39C67.3307 36.8677 68.8487 36.8233 72 37C72.0502 41.0949 72.6703 44.6979 70 48C71.8061 50.2964 73.3754 51.7271 76 53C76.4314 45.1257 83.8666 43.0023 85 36C78.9116 36.1897 75.5233 35.4564 74 29L78 29C76.7933 25.4868 74.1024 22.7787 74 19C69.5098 19.594 65.6368 20.9841 61 21z"/>
<path style="fill:#71490b; stroke:none;" d="M94 25L98 25C97.8241 23.1218 97.5618 21.8006 97 20C94.8209 21.5394 94.4266 22.3554 94 25z"/>
<path style="fill:#8b5a1f; stroke:none;" d="M313 20C315.517 22.0992 317.779 23.3584 321 24C318.894 20.9035 316.665 20.3348 313 20z"/>
<path style="fill:#6e470b; stroke:none;" d="M250 24C252.085 27.7474 252.226 31.8351 253 36C256.261 34.639 260.429 29.5124 263.919 29.8171C267.363 30.1179 270.719 34.6111 274 36C275.011 33.2359 277.352 29.4404 275.592 26.5239C274.296 24.3773 271.206 24.3156 268.999 24.1559C263.169 23.734 255.63 22.8219 250 24z"/>
<path style="fill:#925e21; stroke:none;" d="M321 24C323.019 27.4445 325.556 29.9807 329 32C327.765 27.8278 325.172 25.235 321 24z"/>
<path style="fill:#603e09; stroke:none;" d="M37 52L37 55L50 55C48.9791 50.7311 46.3162 47.2253 45 43C42.2749 43.8458 41.4515 43.4174 40 41C43.1997 41.2078 45.9176 42.2755 49 43C49.6323 34.7411 41.6749 37.4723 37 33C34.8317 35.307 32.639 37.2441 30 39C30.1744 36.3132 32.3501 31.9153 30.9221 29.5147C26.9229 22.7916 16.4621 25.0382 14.5718 32.25C13.7858 35.2486 16.3114 37.5333 18.0455 39.6103C22.621 45.0907 29.74 50.9132 37 52z"/>
<path style="fill:#6e470b; stroke:none;" d="M86 39L86 43C87.7834 42.0197 87.5943 42.0924 88 40C90.6127 41.0313 92.6098 39.9759 93 43C95.352 39.3081 96.6684 36.5355 101 35L101 29C94.0194 29.9504 91.7707 36.0627 86 39z"/>
<path style="fill:#a26825; stroke:none;" d="M9 31C7.52918 38.9225 7.94942 47.0143 6.7037 55C4.55404 68.7805 1.05023 81.9707 0.0895062 96C-3.27912 145.191 12.5907 206.812 53 238.112C67.7325 249.523 86.4375 256.14 104 262C154.196 278.748 206.646 280.953 256 259.719C276.11 251.067 294.14 239.817 307.37 222C311.479 216.468 315.905 210.619 318 204C318.366 207.326 318.026 210.643 318 214L326 214C326.005 205.83 325.817 195.972 327.518 188C330.415 174.417 336.572 161.948 338.725 148C340.797 134.584 341.555 120.578 340.961 107C340.639 99.6537 339.152 92.3583 339 85C341.397 86.2605 348.893 91.6452 350.503 86.848C352.025 82.3133 340.95 76.4957 338.43 73.5718C335.669 70.3682 335.156 65.9622 334.116 62C332.302 55.0936 330.039 48.0604 329 41C307.149 57.9381 281.79 61.1941 255.09 65.1142C238.057 67.6149 221.25 67.8249 204.039 69.054C200.908 69.2776 198.122 70.7264 194.985 70.946C178.84 72.0762 161.16 72.0762 145.015 70.946C141.878 70.7264 139.092 69.2776 135.961 69.054C119.087 67.849 102.475 68.3574 85.8302 65.2585C67.744 61.8911 48.5729 61.5429 31.5756 53.706C26.3372 51.2908 18.7271 49.5853 15.3032 44.5208C12.7502 40.7443 13.012 35.3518 13 31L9 31z"/>
<path style="fill:#8d5b1f; stroke:none;" d="M329 32L329 39C330.059 36.4656 330.059 34.5343 329 32z"/>
<path style="fill:#744b0b; stroke:none;" d="M234 33C233.391 36.9344 233.509 38.8381 237 41C238.045 37.4122 237.314 34.9147 234 33z"/>
<path style="fill:#6e470b; stroke:none;" d="M176 36L177 39C168.58 43.4919 168.831 47.7968 174.22 54.7593C175.76 56.7496 176.665 59.3636 179.144 60.3966C182.167 61.6567 185.937 60.5687 189 60C190.505 65.1245 198.338 63.2813 197.324 58.0787C196.919 55.9981 194.865 55.2666 192.995 55.1435C187.6 54.7883 183.522 56.345 178 55C180.505 48.3681 182.733 40.9562 176 36z"/>
<path style="fill:#63400a; stroke:none;" d="M222 37C219.659 40.2475 217.154 43.1988 212.985 43.8665C209.675 44.3969 204.338 43.0138 201.742 45.6142C199.177 48.1836 199.878 53.1783 203.344 54.4861C206.676 55.7431 210.255 54.9224 213 53C213.995 55.1637 216.663 58.0606 216.49 60.5278C216.134 65.5954 210.545 61.5966 209 60L205 61L205 67L221 67L221 64C225.844 64 232.676 65.1099 236 61C243.353 66.1473 244.943 56.5383 252 56C250.752 55.3152 250.452 55.2512 249 55C249.725 51.8991 250.015 50.314 253 49C250.787 47.3584 245.741 44.5198 242.972 44.1389C238.101 43.4687 234.595 45.2522 231 41C230.315 42.2483 230.251 42.5485 230 44C226.974 42.059 225.481 40.2735 224 37L222 37z"/>
<path style="fill:#66420a; stroke:none;" d="M102 44C100.153 43.7896 98.8566 43.806 97 44L97 47C100.337 48.9484 100.794 51.239 101 55C97.8309 55.008 95.0408 55.1004 92 56L93 47C87.2386 47.3827 82.3846 50.27 77 52L78 57L85 59L84 63C80.9563 61.7878 78.6841 58.6219 75.7137 57.713C73.8984 57.1575 72.0549 58.2733 70.196 58.0162C65.4048 57.3536 60.9376 55.3929 56 55L56 52L50 52L50 55L41 55C45.7253 57.8306 51.6575 57 57 57C59.9056 65.957 74.6462 63.5859 82 64.0895C93.2817 64.8621 104.732 64.1329 115.985 65.0579C119.29 65.3295 121.815 67.3953 125.039 67.8565C135.279 69.3211 146.64 69 157 69C155.28 64.7209 152.253 65.0088 148 65C141.902 64.9874 133.658 66.441 128.129 63.3958C121.676 59.8419 117.579 49.9259 109 52C108.481 47.8049 108.481 44.1951 109 40C105.53 40.2482 103.039 40.4486 102 44z"/>
<path style="fill:#b98d5b; stroke:none;" d="M329 42L329 45C329.696 43.4463 329.696 43.5537 329 42z"/>
<path style="fill:#915e20; stroke:none;" d="M14 43C16.2128 47.4824 20.4455 49.3661 25 51C23.5106 46.4087 18.3403 44.511 14 43z"/>
<path style="fill:#6f480b; stroke:none;" d="M257 44C255.058 49.2831 249.854 48.9887 249 55C251.123 54.6933 251.686 54.6179 253 53C254.186 54.0356 254.604 54.3386 256 55C258.543 51.2928 260.369 48.5267 261 44L257 44z"/>
<path style="fill:#774d0c; stroke:none;" d="M309 52C314.221 53.4485 322.177 48.2653 325 44C318.65 44.581 314.413 48.9864 309 52z"/>
<path style="fill:#5f3e09; stroke:none;" d="M137 47C137 50.7445 136.016 56.1984 137.988 59.5409C141.765 65.9387 148.192 63.4675 153.791 65.5841C157.259 66.8952 158.767 69.3662 162.91 68.8619C165.75 68.5163 167.467 66.1797 170.145 65.6381C177.316 64.188 188.322 72.2423 189 60C185.874 60.3948 182.092 61.6009 179.144 59.9722C176.789 58.6716 175.876 56.017 174.216 54.054C171.744 51.131 168.482 48.5134 165 47C164.263 49.9031 164.471 52.0493 165 55L160 55C157.785 48.6996 150.253 52.0035 145.104 50.6867C142.035 49.9017 140.236 47.5419 137 47z"/>
<path style="fill:#7f530d; stroke:none;" d="M25 49C25.8544 52.9871 29.4895 52 33 52C30.4623 50.6666 27.7912 49.6583 25 49z"/>
<path style="fill:#8a591f; stroke:none;" d="M28 52C33.0472 55.2483 38.0402 56.529 44 57C41.6889 55.6069 39.6914 55.2348 37 55L37 52L28 52z"/>
<path style="fill:#a26825; stroke:none;" d="M352 52C352.352 60.1745 354.071 79.5016 363 82C368.262 74.265 375.631 66.7597 379 58C370.056 52.7997 362.127 52 352 52z"/>
<path style="fill:#71490b; stroke:none;" d="M212 53C211.895 56.5989 210.81 59.5539 210 63C219.211 64.9116 216.85 57.3492 212 53z"/>
<path style="fill:#87571e; stroke:none;" d="M305 53L305 55L308 55L308 53L305 53z"/>
<path style="fill:#bf9769; stroke:none;" d="M351 53L352 54L351 53M369 53L370 54L369 53z"/>
<path style="fill:#87571e; stroke:none;" d="M301 55C302.506 55.683 303.315 55.8259 305 56C303.494 55.3169 302.685 55.1741 301 55z"/>
<path style="fill:#8c5a1f; stroke:none;" d="M44 57L44 59L49 59L49 57L44 57z"/>
<path style="fill:#754c0b; stroke:none;" d="M49 57L49 59L57 59L57 57L49 57z"/>
<path style="fill:#89581f; stroke:none;" d="M293 57L293 59L296 59L296 57L293 57z"/>
<path style="fill:#bf9769; stroke:none;" d="M352 57L353 58L352 57z"/>
<path style="fill:#8a5a1e; stroke:none;" d="M49 59C51.8151 60.2147 54.967 60.4348 58 61C55.1963 58.8753 52.4665 59.0115 49 59z"/>
<path style="fill:#794f0c; stroke:none;" d="M225 67C230.097 69.1386 236.635 67.9189 242 67.2855C253.594 65.9167 265.224 63.2431 277 63L277 61C269.493 61 263.313 62.7191 256 63.7176C249.696 64.5783 243.354 64.3739 237.09 65.1289C232.895 65.6344 229.341 66.9851 225 67z"/>
<path style="fill:#8b5a1f; stroke:none;" d="M78 64C80.6127 65.0977 83.1645 64.9928 86 65C83.3873 63.9023 80.8355 64.0072 78 64z"/>
<path style="fill:#87571e; stroke:none;" d="M88 65L88 67L96 67L96 65L88 65z"/>
<path style="fill:#774d0c; stroke:none;" d="M96 65L96 67C108.981 68.6406 121.971 68.1429 134.985 69.054C138.122 69.2736 140.908 70.7224 144.039 70.946C162.493 72.2638 181.495 71 200 71L200 69C175.729 69 151.176 69.9037 127.004 67.9421C123.675 67.672 121.14 65.6176 117.91 65.1435C110.873 64.1103 103.112 65 96 65z"/>
<path style="fill:#b3844d; stroke:none;" d="M195 72C197.052 72.8742 198.747 72.9528 201 73C198.948 72.1258 197.253 72.0472 195 72z"/>
<path style="fill:#bf9769; stroke:none;" d="M366 76L367 77L366 76z"/>
<path style="fill:#a26825; stroke:none;" d="M369 90L374 103C383.324 101.628 393.206 98.3673 402 95C400.006 88.8733 398.034 82.6978 395 77C385.815 79.646 377.427 85.5662 369 90z"/>
<path style="fill:#bf9769; stroke:none;" d="M343 78L344 79L343 78z"/>
<path style="fill:#b98d5b; stroke:none;" d="M339.333 90.6667C339.278 90.7223 339.222 91.7777 339.667 91.3333C339.722 91.2778 339.778 90.2222 339.333 90.6667z"/>
<path style="fill:#bf9769; stroke:none;" d="M400 90L401 91L400 90z"/>
<path style="fill:#b98d5b; stroke:none;" d="M0.333333 91.6667C0.277811 91.7222 0.222224 92.7778 0.666667 92.3333C0.722269 92.2777 0.777753 91.2223 0.333333 91.6667z"/>
<path style="fill:#bf9769; stroke:none;" d="M397 96L398 97L397 96M387 99L388 100L387 99z"/>
<path style="fill:#b98d5b; stroke:none;" d="M340 100L340 103C340.696 101.446 340.696 101.554 340 100z"/>
<path style="fill:#bf9769; stroke:none;" d="M380 101L381 102L380 101z"/>
<path style="fill:#b3844d; stroke:none;" d="M401.667 114.333C401.222 114.778 402.278 114.722 402.333 114.667C402.778 114.222 401.722 114.278 401.667 114.333z"/>
<path style="fill:#a26825; stroke:none;" d="M378 118L378 130C387.06 132.157 397.684 132.923 407 133L407 125C402.899 124.997 399.036 124.749 395 124C402.103 121.9 408.279 123.688 406 114C396.685 115.183 387.409 117.806 378 118z"/>
<path style="fill:#b3844d; stroke:none;" d="M395.667 115.333C395.222 115.778 396.278 115.722 396.333 115.667C396.778 115.222 395.722 115.278 395.667 115.333M389.667 116.333C389.222 116.778 390.278 116.722 390.333 116.667C390.778 116.222 389.722 116.278 389.667 116.333M383.667 117.333C383.222 117.778 384.278 117.722 384.333 117.667C384.778 117.222 383.722 117.278 383.667 117.333z"/>
<path style="fill:#b98d5b; stroke:none;" d="M0 121L0 124C0.696101 122.446 0.696102 122.554 0 121z"/>
<path style="fill:#2b1c0a; stroke:none;" d="M182 122C183.248 122.685 183.548 122.749 185 123C183.752 122.315 183.452 122.251 182 122z"/>
<path style="fill:#563714; stroke:none;" d="M185.667 122.333C185.222 122.778 186.278 122.722 186.333 122.667C186.778 122.222 185.722 122.278 185.667 122.333z"/>
<path style="fill:#000000; stroke:none;" d="M180 124C181.943 126.139 185.393 128.15 186.096 131.093C186.792 134.01 184.973 137.314 184.076 140C181.279 148.37 179.973 153.664 171 157C175.812 161.914 187.738 160.851 194 159L194 157L186 154C187.899 146.889 190.536 140.042 192.655 133C194.746 126.053 192.909 121.799 185.025 122.788C183.25 123.01 181.695 123.465 180 124z"/>
<path style="fill:#ffffff; stroke:none;" d="M397 123C400.104 125.035 406 126.668 407 122C403.637 122.625 400.422 122.972 397 123z"/>
<path style="fill:#b98d5b; stroke:none;" d="M395.667 123.333C395.222 123.778 396.278 123.722 396.333 123.667C396.778 123.222 395.722 123.278 395.667 123.333z"/>
<path style="fill:#ffffff; stroke:none;" d="M0 124L0 276L169 276C164.12 273.952 157.322 274.49 152 273.845C144.261 272.906 136.579 271.139 129 269.346C112.945 265.547 97.1304 259.805 82 253.281C74.5619 250.074 66.7532 247.169 60 242.641C45.0056 232.588 31.9927 217.798 23.3117 202C14.2377 185.487 8.46719 167.331 4.42438 149C2.6919 141.145 3.06649 131.291 0 124z"/>
<path style="fill:#b98d5b; stroke:none;" d="M397 124C398.506 124.683 399.315 124.826 401 125C399.494 124.317 398.685 124.174 397 124z"/>
<path style="fill:#613e16; stroke:none;" d="M180 125L181 126L180 125z"/>
<path style="fill:#563714; stroke:none;" d="M194 125L194 128C194.696 126.446 194.696 126.554 194 125z"/>
<path style="fill:#b3844d; stroke:none;" d="M378.333 125.667C378.278 125.722 378.222 126.778 378.667 126.333C378.722 126.278 378.778 125.222 378.333 125.667z"/>
<path style="fill:#412a0f; stroke:none;" d="M181.667 126.333C181.222 126.778 182.278 126.722 182.333 126.667C182.778 126.222 181.722 126.278 181.667 126.333z"/>
<path style="fill:#563714; stroke:none;" d="M185 128L186 129L185 128z"/>
<path style="fill:#b98d5b; stroke:none;" d="M340 129L340 133C340.71 131.24 340.71 130.76 340 129M378.667 130.333C378.222 130.778 379.278 130.722 379.333 130.667C379.778 130.222 378.722 130.278 378.667 130.333M1.33333 131.667C1.2778 131.722 1.22221 132.778 1.66667 132.333C1.72227 132.278 1.77775 131.222 1.33333 131.667z"/>
<path style="fill:#613e16; stroke:none;" d="M88.6667 131.333C88.2222 131.778 89.2778 131.722 89.3333 131.667C89.7777 131.222 88.7222 131.278 88.6667 131.333z"/>
<path style="fill:#2b1c0a; stroke:none;" d="M186.333 131.667C186.278 131.722 186.222 132.778 186.667 132.333C186.722 132.278 186.778 131.222 186.333 131.667z"/>
<path style="fill:#613e16; stroke:none;" d="M275.667 131.333C275.222 131.778 276.278 131.722 276.333 131.667C276.778 131.222 275.722 131.278 275.667 131.333z"/>
<path style="fill:#b98d5b; stroke:none;" d="M388.667 131.333C388.222 131.778 389.278 131.722 389.333 131.667C389.778 131.222 388.722 131.278 388.667 131.333z"/>
<path style="fill:#563714; stroke:none;" d="M84 132C85.2484 132.685 85.5484 132.749 87 133C85.7517 132.315 85.4515 132.251 84 132z"/>
<path style="fill:#000000; stroke:none;" d="M94 151C88.2735 151.832 84.0301 154.945 78 155C81.819 147.649 93.8151 148.813 95.6628 140C97.2289 132.53 89.2025 131.567 84 133.224C76.9665 135.464 72.5028 140.714 71.3264 148C68.9691 162.6 90.4248 163.466 94 151z"/>
<path style="fill:#774c1b; stroke:none;" d="M154 132C156.332 132.985 158.457 132.981 161 133C158.668 132.015 156.543 132.019 154 132M212.667 132.333C212.222 132.778 213.278 132.722 213.333 132.667C213.778 132.222 212.722 132.278 212.667 132.333z"/>
<path style="fill:#563714; stroke:none;" d="M271 132C272.248 132.685 272.548 132.749 274 133C272.752 132.315 272.452 132.251 271 132z"/>
<path style="fill:#000000; stroke:none;" d="M281 151C275.273 151.832 271.03 154.945 265 155C268.819 147.649 280.815 148.813 282.663 140C284.229 132.53 276.203 131.567 271 133.224C263.966 135.464 259.503 140.714 258.326 148C255.969 162.6 277.425 163.466 281 151z"/>
<path style="fill:#b98d5b; stroke:none;" d="M397 132C398.248 132.685 398.549 132.749 400 133C398.752 132.315 398.452 132.251 397 132z"/>
<path style="fill:#412a0f; stroke:none;" d="M82 133L83 134L82 133z"/>
<path style="fill:#613e16; stroke:none;" d="M94 133L95 134L94 133z"/>
<path style="fill:#000000; stroke:none;" d="M133 151L124 155C123.498 150.171 124.124 145.736 128.108 142.433C130.014 140.852 134.257 140.29 135.11 137.745C135.994 135.104 133.023 134.099 130.981 134.192C127.227 134.364 124.065 137.119 121 139C119.808 136.707 110.697 129.457 110.635 136.02C110.595 140.335 116.765 141.656 114.647 146.985C112.377 152.695 107.742 151.638 103.323 153.674C101.715 154.415 101.18 156.154 102.086 157.701C105.02 162.711 112.09 157.991 116 157.769C118.532 157.625 120.584 159.233 123 159.676C128.748 160.73 133.529 156.617 133 151z"/>
<path style="fill:#4c3111; stroke:none;" d="M115 133L116 134L115 133z"/>
<path style="fill:#2b1c0a; stroke:none;" d="M129 133C130.769 133.779 132.036 133.912 134 134C132.231 133.221 130.964 133.088 129 133z"/>
<path style="fill:#000000; stroke:none;" d="M143 135C150.271 146.612 140.41 158.667 135 169C139.716 169.596 144.237 169.999 149 170C147.956 167.267 145.429 163.267 148.453 160.908C150.429 159.367 153.659 159.679 156 159.166C160.216 158.241 163.56 155.908 165.543 151.996C167.857 147.434 168.423 138.088 163.852 134.742C158.945 131.152 147.981 132.342 143 135z"/>
<path style="fill:#412a0f; stroke:none;" d="M162 133L163 134L162 133z"/>
<path style="fill:#4c3111; stroke:none;" d="M209.667 133.333C209.222 133.778 210.278 133.722 210.333 133.667C210.778 133.222 209.722 133.278 209.667 133.333z"/>
<path style="fill:#000000; stroke:none;" d="M211 133.637C195.39 135.577 192.789 163.213 211 160.81C219.7 159.662 222.805 151.84 221.815 144C221.127 138.555 217.153 132.873 211 133.637z"/>
<path style="fill:#412a0f; stroke:none;" d="M214 133L215 134L214 133z"/>
<path style="fill:#2b1c0a; stroke:none;" d="M229.667 133.333C229.222 133.778 230.278 133.722 230.333 133.667C230.778 133.222 229.722 133.278 229.667 133.333z"/>
<path style="fill:#000000; stroke:none;" d="M228 134C229.099 136.537 231.177 139.182 231.361 142C231.744 147.859 227.52 154.046 227 160C234.139 157.853 234.942 148.077 240.194 143.202C243.925 139.74 249.166 144.807 251.971 141.383C254.282 138.563 252.09 134.398 248.941 133.603C246.347 132.948 243.619 134.041 241 134.01C236.387 133.956 232.656 133.139 228 134z"/>
<path style="fill:#563714; stroke:none;" d="M237 133L238 134L237 133z"/>
<path style="fill:#4c3111; stroke:none;" d="M244.667 133.333C244.222 133.778 245.278 133.722 245.333 133.667C245.778 133.222 244.722 133.278 244.667 133.333z"/>
<path style="fill:#412a0f; stroke:none;" d="M269 133L270 134L269 133z"/>
<path style="fill:#613e16; stroke:none;" d="M281 133L282 134L281 133z"/>
<path style="fill:#4c3111; stroke:none;" d="M80 134L81 135L80 134z"/>
<path style="fill:#563714; stroke:none;" d="M117 134L118 135L117 134z"/>
<path style="fill:#613e16; stroke:none;" d="M127 134L128 135L127 134z"/>
<path style="fill:#563714; stroke:none;" d="M164 134L165 135L164 134z"/>
<path style="fill:#412a0f; stroke:none;" d="M207 134L208 135L207 134z"/>
<path style="fill:#4c3111; stroke:none;" d="M239.667 134.333C239.222 134.778 240.278 134.722 240.333 134.667C240.778 134.222 239.722 134.278 239.667 134.333z"/>
<path style="fill:#563714; stroke:none;" d="M251 134L252 135L251 134z"/>
<path style="fill:#4c3111; stroke:none;" d="M267 134L268 135L267 134z"/>
<path style="fill:#412a0f; stroke:none;" d="M126 135L127 136L126 135z"/>
<path style="fill:#563714; stroke:none;" d="M165 135L166 136L165 135z"/>
<path style="fill:#2b1c0a; stroke:none;" d="M185.333 135.667C185.278 135.722 185.222 136.778 185.667 136.333C185.722 136.278 185.778 135.222 185.333 135.667z"/>
<path style="fill:#563714; stroke:none;" d="M205 135L206 136L205 135z"/>
<path style="fill:#613e16; stroke:none;" d="M217 135L218 136L217 135z"/>
<path style="fill:#4c3111; stroke:none;" d="M77 136L78 137L77 136z"/>
<path style="fill:#774c1b; stroke:none;" d="M86 136C87.2484 136.685 87.5484 136.749 89 137C87.7517 136.315 87.4515 136.251 86 136z"/>
<path style="fill:#412a0f; stroke:none;" d="M89.6667 136.333C89.2222 136.778 90.2778 136.722 90.3333 136.667C90.7777 136.222 89.7222 136.278 89.6667 136.333z"/>
<path style="fill:#2b1c0a; stroke:none;" d="M96 136L96 141C96.8299 138.97 96.8299 138.03 96 136z"/>
<path style="fill:#774c1b; stroke:none;" d="M109.333 136.667C109.278 136.722 109.222 137.778 109.667 137.333C109.722 137.278 109.778 136.222 109.333 136.667z"/>
<path style="fill:#6c4519; stroke:none;" d="M191.333 136.667C191.278 136.722 191.222 137.778 191.667 137.333C191.722 137.278 191.778 136.222 191.333 136.667z"/>
<path style="fill:#613e16; stroke:none;" d="M228 136L229 137L228 136z"/>
<path style="fill:#2b1c0a; stroke:none;" d="M253 136L253 141C253.83 138.969 253.83 138.03 253 136z"/>
<path style="fill:#4c3111; stroke:none;" d="M264 136L265 137L264 136z"/>
<path style="fill:#774c1b; stroke:none;" d="M273 136C274.248 136.685 274.549 136.749 276 137C274.752 136.315 274.452 136.251 273 136z"/>
<path style="fill:#412a0f; stroke:none;" d="M276.667 136.333C276.222 136.778 277.278 136.722 277.333 136.667C277.778 136.222 276.722 136.278 276.667 136.333z"/>
<path style="fill:#2b1c0a; stroke:none;" d="M283 136L283 141C283.83 138.97 283.83 138.03 283 136z"/>
<path style="fill:#a26825; stroke:none;" d="M78 146C83.683 145.418 89.9567 143.167 91 137C84.4801 137.076 79.4152 139.132 78 146z"/>
<path style="fill:#774c1b; stroke:none;" d="M91 137L91 140C91.6961 138.446 91.6961 138.554 91 137z"/>
<path style="fill:#6c4519; stroke:none;" d="M157 137C158.248 137.685 158.548 137.749 160 138C158.752 137.315 158.452 137.251 157 137z"/>
<path style="fill:#412a0f; stroke:none;" d="M202 137L203 138L202 137z"/>
<path style="fill:#613e16; stroke:none;" d="M229 137L230 138L229 137z"/>
<path style="fill:#a26825; stroke:none;" d="M265 146C270.683 145.418 276.957 143.167 278 137C271.48 137.076 266.415 139.132 265 146z"/>
<path style="fill:#774c1b; stroke:none;" d="M278 137L278 140C278.696 138.446 278.696 138.554 278 137z"/>
<path style="fill:#412a0f; stroke:none;" d="M82 138L83 139L82 138M135 138L136 139L135 138z"/>
<path style="fill:#a26825; stroke:none;" d="M156.125 139.086C152.456 140.841 150.881 146.237 151.077 149.981C151.227 152.831 152.788 155.393 155.965 153.914C159.15 152.43 162.127 147.488 162.241 144.005C162.348 140.736 159.519 137.464 156.125 139.086z"/>
<path style="fill:#774c1b; stroke:none;" d="M210 138C211.506 138.683 212.315 138.826 214 139C212.494 138.317 211.685 138.174 210 138z"/>
<path style="fill:#412a0f; stroke:none;" d="M220 138L221 139L220 138M269 138L270 139L269 138z"/>
<path style="fill:#613e16; stroke:none;" d="M81 139L82 140L81 139M113 139L114 140L113 139z"/>
<path style="fill:#563714; stroke:none;" d="M146 139L146 144C146.83 141.969 146.83 141.031 146 139z"/>
<path style="fill:#613e16; stroke:none;" d="M154 139L155 140L154 139z"/>
<path style="fill:#2b1c0a; stroke:none;" d="M167 139L167 143C167.71 141.24 167.71 140.759 167 139z"/>
<path style="fill:#a26825; stroke:none;" d="M208.058 139.859C200.906 142.96 201.833 159.485 210.988 156.238C220.193 152.974 219.496 134.899 208.058 139.859z"/>
<path style="fill:#563714; stroke:none;" d="M215 139L216 140L215 139z"/>
<path style="fill:#774c1b; stroke:none;" d="M221 139L221 142C221.696 140.446 221.696 140.554 221 139M231 139L231 142C231.696 140.446 231.696 140.554 231 139z"/>
<path style="fill:#613e16; stroke:none;" d="M268 139L269 140L268 139z"/>
<path style="fill:#563714; stroke:none;" d="M130 140C131.506 140.683 132.315 140.826 134 141C132.494 140.317 131.685 140.174 130 140z"/>
<path style="fill:#4c3111; stroke:none;" d="M153 140L154 141L153 140z"/>
<path style="fill:#563714; stroke:none;" d="M200 140L201 141L200 140M206 140L207 141L206 140z"/>
<path style="fill:#613e16; stroke:none;" d="M216 140L217 141L216 140z"/>
<path style="fill:#563714; stroke:none;" d="M242 140L243 141L242 140z"/>
<path style="fill:#613e16; stroke:none;" d="M89 141L90 142L89 141z"/>
<path style="fill:#563714; stroke:none;" d="M128 141L129 142L128 141z"/>
<path style="fill:#774c1b; stroke:none;" d="M162.333 141.667C162.278 141.722 162.222 142.778 162.667 142.333C162.722 142.278 162.778 141.222 162.333 141.667z"/>
<path style="fill:#613e16; stroke:none;" d="M183 141L184 142L183 141z"/>
<path style="fill:#563714; stroke:none;" d="M189 141L189 144C189.696 142.446 189.696 142.554 189 141z"/>
<path style="fill:#613e16; stroke:none;" d="M276 141L277 142L276 141z"/>
<path style="fill:#412a0f; stroke:none;" d="M78 142L79 143L78 142z"/>
<path style="fill:#4c3111; stroke:none;" d="M95 142L96 143L95 142z"/>
<path style="fill:#412a0f; stroke:none;" d="M231.333 142.667C231.278 142.722 231.222 143.778 231.667 143.333C231.722 143.278 231.778 142.222 231.333 142.667z"/>
<path style="fill:#2b1c0a; stroke:none;" d="M246.667 142.333C246.222 142.778 247.278 142.722 247.333 142.667C247.778 142.222 246.722 142.278 246.667 142.333z"/>
<path style="fill:#412a0f; stroke:none;" d="M265 142L266 143L265 142z"/>
<path style="fill:#4c3111; stroke:none;" d="M282 142L283 143L282 142z"/>
<path style="fill:#563714; stroke:none;" d="M72 143L73 144L72 143z"/>
<path style="fill:#613e16; stroke:none;" d="M94 143L95 144L94 143z"/>
<path style="fill:#563714; stroke:none;" d="M167 143L167 148C167.83 145.969 167.83 145.03 167 143z"/>
<path style="fill:#36230c; stroke:none;" d="M198 143L198 146C198.696 144.446 198.696 144.554 198 143z"/>
<path style="fill:#563714; stroke:none;" d="M259 143L260 144L259 143z"/>
<path style="fill:#613e16; stroke:none;" d="M281 143L282 144L281 143z"/>
<path style="fill:#412a0f; stroke:none;" d="M71 144L71 147C71.6961 145.446 71.6961 145.554 71 144z"/>
<path style="fill:#563714; stroke:none;" d="M77 144C77.4824 146.364 77.636 146.518 80 147C79.0275 145.73 78.2699 144.973 77 144z"/>
<path style="fill:#412a0f; stroke:none;" d="M84 144L85 145L84 144z"/>
<path style="fill:#563714; stroke:none;" d="M93 144L94 145L93 144z"/>
<path style="fill:#774c1b; stroke:none;" d="M115 144L115 147C115.696 145.446 115.696 145.554 115 144z"/>
<path style="fill:#412a0f; stroke:none;" d="M125 144L126 145L125 144z"/>
<path style="fill:#563714; stroke:none;" d="M203.333 144.667C203.278 144.722 203.222 145.778 203.667 145.333C203.722 145.278 203.778 144.222 203.333 144.667z"/>
<path style="fill:#36230c; stroke:none;" d="M222 144L222 151C223.059 148.466 223.059 146.534 222 144z"/>
<path style="fill:#563714; stroke:none;" d="M238 144L239 145L238 144z"/>
<path style="fill:#412a0f; stroke:none;" d="M258 144L258 147C258.696 145.446 258.696 145.554 258 144z"/>
<path style="fill:#563714; stroke:none;" d="M264 144C264.482 146.364 264.636 146.518 267 147C266.027 145.73 265.27 144.972 264 144z"/>
<path style="fill:#412a0f; stroke:none;" d="M271 144L272 145L271 144z"/>
<path style="fill:#563714; stroke:none;" d="M280 144L281 145L280 144z"/>
<path style="fill:#a26825; stroke:none;" d="M376 144C374.698 148.622 373.392 153.203 373 158C382.234 160.136 390.999 164.071 400 167C401.303 161.314 403.219 155.798 404 150C394.638 148.184 385.235 146.39 376 144z"/>
<path style="fill:#412a0f; stroke:none;" d="M92 145L93 146L92 145M145 145L146 146L145 145z"/>
<path style="fill:#613e16; stroke:none;" d="M162 145L163 146L162 145z"/>
<path style="fill:#412a0f; stroke:none;" d="M279 145L280 146L279 145z"/>
<path style="fill:#613e16; stroke:none;" d="M91 146L92 147L91 146z"/>
<path style="fill:#563714; stroke:none;" d="M124 146L124 149C124.696 147.446 124.696 147.554 124 146M230 146L231 147L230 146z"/>
<path style="fill:#613e16; stroke:none;" d="M278 146L279 147L278 146z"/>
<path style="fill:#bf9769; stroke:none;" d="M386 146L387 147L386 146z"/>
<path style="fill:#4c3111; stroke:none;" d="M144.333 147.667C144.278 147.722 144.222 148.778 144.667 148.333C144.722 148.278 144.778 147.222 144.333 147.667z"/>
<path style="fill:#613e16; stroke:none;" d="M150 147L150 153C150.951 150.715 150.951 149.285 150 147z"/>
<path style="fill:#774c1b; stroke:none;" d="M187 147L187 151C187.71 149.241 187.71 148.759 187 147M202 147L202 151C202.71 149.241 202.71 148.759 202 147z"/>
<path style="fill:#6c4519; stroke:none;" d="M217 147L217 150C217.696 148.446 217.696 148.554 217 147z"/>
<path style="fill:#bf9769; stroke:none;" d="M391 147L392 148L391 147z"/>
<path style="fill:#563714; stroke:none;" d="M85.6667 148.333C85.2222 148.778 86.2778 148.722 86.3333 148.667C86.7778 148.222 85.7222 148.278 85.6667 148.333M114 148L115 149L114 148M160 148L160 151C160.696 149.446 160.696 149.554 160 148z"/>
<path style="fill:#412a0f; stroke:none;" d="M229.333 148.667C229.278 148.722 229.222 149.778 229.667 149.333C229.722 149.278 229.778 148.222 229.333 148.667z"/>
<path style="fill:#563714; stroke:none;" d="M272.667 148.333C272.222 148.778 273.278 148.722 273.333 148.667C273.778 148.222 272.722 148.278 272.667 148.333z"/>
<path style="fill:#bb9160; stroke:none;" d="M4 149L5 150L4 149z"/>
<path style="fill:#774c1b; stroke:none;" d="M70.3333 149.667C70.2778 149.722 70.2222 150.778 70.6667 150.333C70.7222 150.278 70.7778 149.222 70.3333 149.667z"/>
<path style="fill:#613e16; stroke:none;" d="M113 149L114 150L113 149M181 149L182 150L181 149z"/>
<path style="fill:#774c1b; stroke:none;" d="M257.333 149.667C257.278 149.722 257.222 150.778 257.667 150.333C257.722 150.278 257.778 149.222 257.333 149.667z"/>
<path style="fill:#563714; stroke:none;" d="M81 150L82 151L81 150z"/>
<path style="fill:#2b1c0a; stroke:none;" d="M91 150C92.2484 150.685 92.5484 150.749 94 151C92.7517 150.315 92.4516 150.251 91 150z"/>
<path style="fill:#613e16; stroke:none;" d="M112 150L113 151L112 150z"/>
<path style="fill:#6c4519; stroke:none;" d="M123 150L123 153C123.696 151.446 123.696 151.554 123 150z"/>
<path style="fill:#613e16; stroke:none;" d="M166 150L167 151L166 150z"/>
<path style="fill:#563714; stroke:none;" d="M268 150L269 151L268 150z"/>
<path style="fill:#2b1c0a; stroke:none;" d="M278 150C279.248 150.685 279.548 150.749 281 151C279.752 150.315 279.452 150.251 278 150z"/>
<path style="fill:#563714; stroke:none;" d="M79 151L80 152L79 151M111 151L112 152L111 151z"/>
<path style="fill:#4c3111; stroke:none;" d="M131 151L132 152L131 151z"/>
<path style="fill:#412a0f; stroke:none;" d="M216 151L217 152L216 151z"/>
<path style="fill:#563714; stroke:none;" d="M266 151L267 152L266 151z"/>
<path style="fill:#613e16; stroke:none;" d="M78 152L79 153L78 152M88 152L89 153L88 152M94 152L95 153L94 152z"/>
<path style="fill:#774c1b; stroke:none;" d="M103 152C104.248 152.685 104.548 152.749 106 153C104.752 152.315 104.452 152.251 103 152z"/>
<path style="fill:#563714; stroke:none;" d="M129 152L130 153L129 152z"/>
<path style="fill:#412a0f; stroke:none;" d="M143 152L144 153L143 152z"/>
<path style="fill:#613e16; stroke:none;" d="M165 152L166 153L165 152z"/>
<path style="fill:#412a0f; stroke:none;" d="M186.333 152.667C186.278 152.722 186.222 153.778 186.667 153.333C186.722 153.278 186.778 152.222 186.333 152.667M203 152L204 153L203 152M228 152L229 153L228 152z"/>
<path style="fill:#613e16; stroke:none;" d="M265 152L266 153L265 152M275 152L276 153L275 152M281 152L282 153L281 152z"/>
<path style="fill:#412a0f; stroke:none;" d="M87 153L88 154L87 153z"/>
<path style="fill:#2b1c0a; stroke:none;" d="M106 153C107.248 153.685 107.548 153.749 109 154C107.752 153.315 107.452 153.251 106 153z"/>
<path style="fill:#563714; stroke:none;" d="M127 153L128 154L127 153z"/>
<path style="fill:#412a0f; stroke:none;" d="M157 153L158 154L157 153z"/>
<path style="fill:#613e16; stroke:none;" d="M178 153L179 154L178 153M221 153L222 154L221 153z"/>
<path style="fill:#4c3111; stroke:none;" d="M233 153L234 154L233 153z"/>
<path style="fill:#412a0f; stroke:none;" d="M274 153L275 154L274 153z"/>
<path style="fill:#bf9769; stroke:none;" d="M403 153L404 154L403 153z"/>
<path style="fill:#4c3111; stroke:none;" d="M78 154L79 155L78 154z"/>
<path style="fill:#613e16; stroke:none;" d="M85 154L86 155L85 154z"/>
<path style="fill:#563714; stroke:none;" d="M100 154L100 157C100.696 155.446 100.696 155.554 100 154z"/>
<path style="fill:#4c3111; stroke:none;" d="M124.667 154.333C124.222 154.778 125.278 154.722 125.333 154.667C125.778 154.222 124.722 154.278 124.667 154.333z"/>
<path style="fill:#412a0f; stroke:none;" d="M133 154L134 155L133 154z"/>
<path style="fill:#563714; stroke:none;" d="M142 154L143 155L142 154M156 154L157 155L156 154M198 154L199 155L198 154z"/>
<path style="fill:#4c3111; stroke:none;" d="M204 154L205 155L204 154z"/>
<path style="fill:#36230c; stroke:none;" d="M227.333 154.667C227.278 154.722 227.222 155.778 227.667 155.333C227.722 155.278 227.778 154.222 227.333 154.667z"/>
<path style="fill:#4c3111; stroke:none;" d="M265 154L266 155L265 154z"/>
<path style="fill:#613e16; stroke:none;" d="M272 154L273 155L272 154z"/>
<path style="fill:#bf9769; stroke:none;" d="M337 154L338 155L337 154z"/>
<path style="fill:#613e16; stroke:none;" d="M92 155L93 156L92 155z"/>
<path style="fill:#563714; stroke:none;" d="M163 155L164 156L163 155z"/>
<path style="fill:#36230c; stroke:none;" d="M173 155C174.248 155.685 174.548 155.749 176 156C174.752 155.315 174.452 155.251 173 155M189.667 155.333C189.222 155.778 190.278 155.722 190.333 155.667C190.778 155.222 189.722 155.278 189.667 155.333z"/>
<path style="fill:#613e16; stroke:none;" d="M279 155L280 156L279 155z"/>
<path style="fill:#774c1b; stroke:none;" d="M141.333 156.667C141.278 156.722 141.222 157.778 141.667 157.333C141.722 157.278 141.778 156.222 141.333 156.667z"/>
<path style="fill:#563714; stroke:none;" d="M162 156L163 157L162 156z"/>
<path style="fill:#412a0f; stroke:none;" d="M172 156L173 157L172 156z"/>
<path style="fill:#563714; stroke:none;" d="M199 156L200 157L199 156M211 156L212 157L211 156z"/>
<path style="fill:#412a0f; stroke:none;" d="M219 156L220 157L219 156M74 157L75 158L74 157z"/>
<path style="fill:#563714; stroke:none;" d="M89 157L90 158L89 157z"/>
<path style="fill:#613e16; stroke:none;" d="M118 157L119 158L118 157z"/>
<path style="fill:#4c3111; stroke:none;" d="M208.667 157.333C208.222 157.778 209.278 157.722 209.333 157.667C209.778 157.222 208.722 157.278 208.667 157.333z"/>
<path style="fill:#563714; stroke:none;" d="M218 157L219 158L218 157z"/>
<path style="fill:#412a0f; stroke:none;" d="M261 157L262 158L261 157z"/>
<path style="fill:#563714; stroke:none;" d="M276 157L277 158L276 157z"/>
<path style="fill:#bf9769; stroke:none;" d="M402 157L403 158L402 157z"/>
<path style="fill:#613e16; stroke:none;" d="M101 158L102 159L101 158M113 158L114 159L113 158M119 158L120 159L119 158z"/>
<path style="fill:#412a0f; stroke:none;" d="M141.333 158.667C141.278 158.722 141.222 159.778 141.667 159.333C141.722 159.278 141.778 158.222 141.333 158.667z"/>
<path style="fill:#4c3111; stroke:none;" d="M159 158L160 159L159 158M171 158L172 159L171 158z"/>
<path style="fill:#613e16; stroke:none;" d="M217 158L218 159L217 158z"/>
<path style="fill:#774c1b; stroke:none;" d="M110.667 159.333C110.222 159.778 111.278 159.722 111.333 159.667C111.778 159.222 110.722 159.278 110.667 159.333z"/>
<path style="fill:#613e16; stroke:none;" d="M120 159L121 160L120 159z"/>
<path style="fill:#412a0f; stroke:none;" d="M128 159L129 160L128 159M149.667 159.333C149.222 159.778 150.278 159.722 150.333 159.667C150.778 159.222 149.722 159.278 149.667 159.333z"/>
<path style="fill:#36230c; stroke:none;" d="M154 159C155.248 159.685 155.548 159.749 157 160C155.752 159.315 155.452 159.251 154 159z"/>
<path style="fill:#613e16; stroke:none;" d="M172 159L173 160L172 159z"/>
<path style="fill:#4c3111; stroke:none;" d="M202 159L203 160L202 159z"/>
<path style="fill:#774c1b; stroke:none;" d="M80 160C81.769 160.779 83.0359 160.912 85 161C83.231 160.221 81.9641 160.088 80 160M104 160C105.769 160.779 107.036 160.912 109 161C107.231 160.221 105.964 160.088 104 160z"/>
<path style="fill:#412a0f; stroke:none;" d="M122 160C123.506 160.683 124.315 160.826 126 161C124.494 160.317 123.685 160.174 122 160z"/>
<path style="fill:#563714; stroke:none;" d="M147 160L148 161L147 160z"/>
<path style="fill:#774c1b; stroke:none;" d="M175 160C177.052 160.874 178.747 160.953 181 161C178.948 160.126 177.253 160.047 175 160M184 160C185.506 160.683 186.315 160.826 188 161C186.494 160.317 185.685 160.174 184 160M267 160C268.769 160.779 270.036 160.912 272 161C270.231 160.221 268.964 160.088 267 160z"/>
<path style="fill:#613e16; stroke:none;" d="M140 161L141 162L140 161z"/>
<path style="fill:#4c3111; stroke:none;" d="M206 161C207.769 161.779 209.036 161.912 211 162C209.231 161.221 207.964 161.088 206 161z"/>
<path style="fill:#bf9769; stroke:none;" d="M384 161L385 162L384 161z"/>
<path style="fill:#383129; stroke:none;" d="M7 162L8 163L7 162z"/>
<path style="fill:#613e16; stroke:none;" d="M146.333 162.667C146.278 162.722 146.222 163.778 146.667 163.333C146.722 163.278 146.778 162.222 146.333 162.667z"/>
<path style="fill:#bf9769; stroke:none;" d="M387 162L388 163L387 162z"/>
<path style="fill:#613e16; stroke:none;" d="M139 163L140 164L139 163M138 164L139 165L138 164z"/>
<path style="fill:#4d3f2d; stroke:none;" d="M8 165L9 166L8 165z"/>
<path style="fill:#4c3111; stroke:none;" d="M137 165L138 166L137 165z"/>
<path style="fill:#563714; stroke:none;" d="M147 166L148 167L147 166z"/>
<path style="fill:#412a0f; stroke:none;" d="M148 167L149 168L148 167z"/>
<path style="fill:#36230c; stroke:none;" d="M149.333 168.667C149.278 168.722 149.222 169.778 149.667 169.333C149.722 169.278 149.778 168.222 149.333 168.667z"/>
<path style="fill:#563714; stroke:none;" d="M135 169C136.506 169.683 137.315 169.826 139 170C137.494 169.317 136.685 169.174 135 169z"/>
<path style="fill:#a26825; stroke:none;" d="M360 177C363.777 182.362 368.709 187.169 373.17 191.995C374.871 193.837 377.22 196.793 379.999 196.793C385.493 196.793 390.149 187.234 392 183C386.724 179.771 381.311 176.774 376 173.6C373.795 172.283 370.828 169.826 368.09 170.103C364.865 170.429 362.068 174.847 360 177z"/>
<path style="fill:#563714; stroke:none;" d="M140 170C141.506 170.683 142.315 170.826 144 171C142.494 170.317 141.685 170.174 140 170z"/>
<path style="fill:#774c1b; stroke:none;" d="M144 170C145.769 170.779 147.036 170.912 149 171C147.231 170.221 145.964 170.088 144 170z"/>
<path style="fill:#bf9769; stroke:none;" d="M333 170L334 171L333 170M332 173L333 174L332 173M329 181L330 182L329 181M14 183L15 184L14 183z"/>
<path style="fill:#a26825; stroke:none;" d="M341 186C343.151 195.036 342.835 204.782 344 214C350.673 213.862 356.701 212.049 363 210L352 183L341 186z"/>
<path style="fill:#bf9769; stroke:none;" d="M391 184L392 185L391 184z"/>
<path style="fill:#b98d5b; stroke:none;" d="M341.667 185.333C341.222 185.778 342.278 185.722 342.333 185.667C342.778 185.222 341.722 185.278 341.667 185.333M327 187L327 191C327.71 189.241 327.71 188.759 327 187M341.333 187.667C341.278 187.722 341.222 188.778 341.667 188.333C341.722 188.278 341.778 187.222 341.333 187.667z"/>
<path style="fill:#bf9769; stroke:none;" d="M356 194L357 195L356 194z"/>
<path style="fill:#b98d5b; stroke:none;" d="M342 198L342 201C342.696 199.446 342.696 199.554 342 198z"/>
<path style="fill:#bf9769; stroke:none;" d="M24 204L25 205L24 204z"/>
<path style="fill:#b98d5b; stroke:none;" d="M318 204L318 207C318.696 205.446 318.696 205.554 318 204M326 204L326 208C326.71 206.241 326.71 205.759 326 204z"/>
<path style="fill:#bf9769; stroke:none;" d="M361 206L362 207L361 206z"/>
<path style="fill:#b98d5b; stroke:none;" d="M343 210L343 213C343.696 211.446 343.696 211.554 343 210z"/>
<path style="fill:#383129; stroke:none;" d="M304 225L305 226L304 225z"/>
<path style="fill:#bf9769; stroke:none;" d="M56 240L57 241L56 240M286 242L287 243L286 242M94 258L95 259L94 258M105 262L106 263L105 262M108 263L109 264L108 263M240 265L241 266L240 265M237 266L238 267L237 266z"/>
<path style="fill:#b07f47; stroke:none;" d="M143.667 272.333C143.222 272.778 144.278 272.722 144.333 272.667C144.778 272.222 143.722 272.278 143.667 272.333M149.667 273.333C149.222 273.778 150.278 273.722 150.333 273.667C150.778 273.222 149.722 273.278 149.667 273.333z"/>
<path style="fill:#b98d5b; stroke:none;" d="M157.667 274.333C157.222 274.778 158.278 274.722 158.333 274.667C158.778 274.222 157.722 274.278 157.667 274.333M199.667 274.333C199.222 274.778 200.278 274.722 200.333 274.667C200.778 274.222 199.722 274.278 199.667 274.333M169 275C170.769 275.779 172.036 275.912 174 276C172.231 275.221 170.964 275.088 169 275M185 275C186.769 275.779 188.036 275.912 190 276C188.231 275.221 186.964 275.088 185 275z"/>
</svg>
