<?xml version="1.0" encoding="utf-8"?>
<!-- Generator: Adobe Illustrator 21.1.0, SVG Export Plug-In . SVG Version: 6.00 Build 0)  -->
<svg version="1.1" id="Layer_1" xmlns="http://www.w3.org/2000/svg" xmlns:xlink="http://www.w3.org/1999/xlink" x="0px" y="0px"
	 viewBox="0 0 343.9 251.8" style="enable-background:new 0 0 343.9 251.8;" xml:space="preserve">
<style type="text/css">
	.st0{fill:#FFFFF5;}
	.st1{fill:#B57111;}
	.st2{fill:#FFD7C1;}
	.st3{fill:#FFFFFF;}
	.st4{fill:none;stroke:#000000;stroke-width:5;stroke-miterlimit:10;}
	.st5{fill:none;stroke:#FFFFFF;stroke-width:5;stroke-miterlimit:10;}
	.st6{fill:none;stroke:#000000;stroke-miterlimit:10;}
</style>
<g id="XMLID_1_">
	<g>
		<path class="st0" d="M319,52.3c0.5,1.4,0.8,2.8,0.8,4.3c0,3.7-1.8,7.3-5.3,10.6c-3.1-11.7-3.1-11.9-3.1-11.9
			c-2.9-4.2-9.2-11-36.7-18.5c-17.8-4.9-33.2-6.6-42.2-7.6c-8.5-0.9-15.1-1.3-18.6-1.4C176.9,26,119.3,23.3,86,50
			c-6.4,5.2-10.2,10-9.6,14.9c0.2,1.6,0.8,3,1.7,4.3c-4.8-4-7.5-8.2-7.5-12.7c0-0.5,0-1,0.1-1.5c1-2.6,1.9-4.7,2.6-6.2
			c11.9-16.7,62-29.3,121.9-29.3C259.2,19.5,311.9,33.8,319,52.3z"/>
		<path class="st0" d="M63.1,157c1.3,4.3,2.9,8.6,4.8,12.9c-4-0.9-40.8-9.5-55.2-43c-2.1-4.8-10.9-24.1-3.9-45.3
			c2-6.2,5.9-17.8,16.7-22.8c11.8-5.5,27.7-1.2,40,11c-1.1,3.6-2.2,7.6-3.1,11.8c-2-1-15.9-8.1-27.3-1.8
			c-13.9,7.7-12.6,29.1-10.5,38.6C29.9,142.8,55,154,63.1,157z"/>
		<path class="st0" d="M63.1,157c-8.3-27.2-5.6-54.6-0.7-75.4c1-4.2,2.1-8.2,3.1-11.8c1.8-5.9,3.6-10.9,5.1-14.8
			c-0.1,0.5-0.1,1-0.1,1.5c0,4.4,2.7,8.7,7.5,12.7c5.2,7.5,20.4,10.8,21.8,11.1c22.9,8.1,57.1,13.2,95.4,13.2
			c56.3,0,104-11.1,119.4-26.3c3.4-3.4,5.3-6.9,5.3-10.6c0-1.4-0.3-2.9-0.8-4.3l1.1-0.4c20.9,58.3,8.6,121.4-31.5,158.6
			c-61,56.6-172.4,40-214-28c-2.5-4.2-4.7-8.4-6.6-12.6C66,165.6,64.4,161.3,63.1,157z"/>
		<path class="st1" d="M311.4,55.3c0,0,0.1,0.2,3.1,11.9c-15.4,15.2-63,26.3-119.4,26.3c-38.3,0-72.5-5.1-95.4-13.2
			c-9.3-3.3-16.7-7-21.8-11.1c-0.9-1.3-1.5-2.7-1.7-4.3C75.7,60,79.5,55.2,86,50c33.3-26.7,91-24,127.9-22.3
			c3.5,0.2,10.1,0.5,18.6,1.4c9.1,1,24.4,2.6,42.2,7.6C302.2,44.3,308.5,51,311.4,55.3z M281.2,65.4c0.6-0.5,13.2-9.8,6.1-18.2
			c-8.2-9.6-38.2-12.7-58.1-8.7c-19,3.9-18,12.1-33.6,13.5c-18.5,1.7-25.2-9.4-53.6-11.3c-14.6-1-36.4,0.5-42.8,7.2
			c-5.2,5.4,1.6,12.1,4.6,15c8.7,8.6,23.6,12.4,36.7,15.8c12.6,3.3,28.9,7.5,50.4,7c7.6-0.2,22.5-3.2,52-9.4
			C270.2,70.8,276.1,69.1,281.2,65.4z"/>
		<path class="st2" d="M287.3,47.3c7.1,8.3-5.5,17.7-6.1,18.2c-5.1,3.7-11,5.4-38.2,11.1c-29.5,6.1-44.4,9.2-52,9.4
			c-21.5,0.5-37.8-3.7-50.4-7c-13.1-3.4-28-7.2-36.7-15.8c-3-3-9.7-9.6-4.6-15c6.4-6.8,28.2-8.2,42.8-7.2
			c28.4,1.9,35.1,13,53.6,11.3c15.6-1.4,14.6-9.7,33.6-13.5C249.1,34.5,279.2,37.6,287.3,47.3z M240.9,69.9
			c0.4-0.3,7.5-5.6,3.5-10.4c-4.9-5.8-20.1-10.7-32.9-5c-12.6,5.6-15.4,17.8-22.9,16.5c-4-0.7-3.9-4.2-11.4-9.2
			c-1.4-0.9-7-4.5-15-6.1c-12.6-2.5-21.8,1.5-24.2,4.1c-2.9,3.1,0.9,6.9,2.6,8.6c4.9,4.9,13.4,7.1,20.8,9c7.1,1.9,16.4,4.3,28.6,4
			c4.3-0.1,12.7-1.8,29.4-5.4C234.7,73,238,72,240.9,69.9z"/>
		<path class="st2" d="M244.4,59.5c4,4.8-3.1,10.1-3.5,10.4c-2.9,2.1-6.3,3.1-21.6,6.3c-16.7,3.5-25.1,5.3-29.4,5.4
			c-12.2,0.3-21.4-2.1-28.6-4c-7.4-1.9-15.9-4.1-20.8-9c-1.7-1.7-5.5-5.5-2.6-8.6c2.5-2.6,11.7-6.7,24.2-4.1c8,1.6,13.6,5.2,15,6.1
			c7.6,5,7.5,8.5,11.4,9.2c7.5,1.3,10.3-10.9,22.9-16.5C224.3,48.8,239.5,53.7,244.4,59.5z"/>
		<path class="st3" d="M73.2,48.8c-0.7,1.5-1.6,3.7-2.6,6.2C70.9,52.9,71.8,50.8,73.2,48.8z"/>
	</g>
	<g>
		<path class="st4" d="M319,52.3c0.5,1.4,0.8,2.8,0.8,4.3c0,3.7-1.8,7.3-5.3,10.6c-15.4,15.2-63,26.3-119.4,26.3
			c-38.3,0-72.5-5.1-95.4-13.2c-9.3-3.3-16.7-7-21.8-11.1c-4.8-4-7.5-8.2-7.5-12.7c0-0.5,0-1,0.1-1.5c0.3-2.1,1.2-4.2,2.6-6.2
			c11.9-16.7,62-29.3,121.9-29.3C259.2,19.5,311.9,33.8,319,52.3z"/>
		<path class="st4" d="M319.8,51.2c0.1,0.2,0.2,0.5,0.3,0.7c20.9,58.3,8.6,121.4-31.5,158.6c-61,56.6-172.4,40-214-28
			c-2.5-4.2-4.7-8.4-6.6-12.6c-1.9-4.3-3.5-8.6-4.8-12.9c-8.3-27.2-5.6-54.6-0.7-75.4c1-4.2,2.1-8.2,3.1-11.8
			c1.8-5.9,3.6-10.9,5.1-14.8c1-2.6,1.9-4.7,2.6-6.2c0.6-1.3,1.1-2.3,1.3-2.8"/>
		<path class="st4" d="M62.3,81.6c-2-1-15.9-8.1-27.3-1.8c-13.9,7.7-12.6,29.1-10.5,38.6C29.9,142.8,55,154,63.1,157
			c1.2,0.4,2,0.7,2.3,0.8"/>
		<path class="st4" d="M65.5,69.8L65.5,69.8c-12.4-12.2-28.3-16.5-40.1-11c-10.8,5-14.6,16.6-16.7,22.8c-7,21.3,1.9,40.6,3.9,45.3
			c14.4,33.5,51.2,42.1,55.2,43"/>
		<path class="st4" d="M99.8,80.3C98.4,80,83.2,76.7,78,69.2c-0.9-1.3-1.5-2.7-1.7-4.3C75.7,60,79.5,55.2,86,50
			c33.3-26.7,91-24,127.9-22.3c3.5,0.2,10.1,0.5,18.6,1.4c9.1,1,24.4,2.6,42.2,7.6c27.4,7.6,33.8,14.3,36.7,18.5
			c0,0,0.1,0.2,3.1,11.9"/>
		<path class="st5" d="M191,85.8c-21.5,0.5-37.8-3.7-50.4-7c-13.1-3.4-28-7.2-36.7-15.8c-3-3-9.7-9.6-4.6-15
			c6.4-6.8,28.2-8.2,42.8-7.2c28.4,1.9,35.1,13,53.6,11.3c15.6-1.4,14.6-9.7,33.6-13.5c19.9-4,49.9-0.9,58.1,8.7
			c7.1,8.3-5.5,17.7-6.1,18.2c-5.1,3.7-11,5.4-38.2,11.1C213.5,82.6,198.6,85.7,191,85.8z"/>
		<path class="st5" d="M189.8,81.6c-12.2,0.3-21.4-2.1-28.6-4c-7.4-1.9-15.9-4.1-20.8-9c-1.7-1.7-5.5-5.5-2.6-8.6
			c2.5-2.6,11.7-6.7,24.2-4.1c8,1.6,13.6,5.2,15,6.1c7.6,5,7.5,8.5,11.4,9.2c7.5,1.3,10.3-10.9,22.9-16.5c12.8-5.7,28-0.8,32.9,5
			c4,4.8-3.1,10.1-3.5,10.4c-2.9,2.1-6.3,3.1-21.6,6.3C202.6,79.7,194.1,81.5,189.8,81.6z"/>
	</g>
</g>
<path class="st6" d="M-26.3-50.9"/>
<g>
	<path d="M123.7,136.2v4.1c0,0.5-0.2,0.8-0.5,1.2c-0.3,0.3-0.7,0.5-1.2,0.5h-11.9v1c0,0.6,0.2,1.1,0.7,1.5l1,0.8
		c0.5,0.4,1,0.6,1.5,0.6h8.6c0.5,0,0.8,0.2,1.2,0.5c0.3,0.3,0.5,0.7,0.5,1.2c0,0.5-0.2,0.8-0.5,1.2c-0.3,0.3-0.7,0.5-1.2,0.5h-8.9
		c-0.6,0-1.2-0.1-1.9-0.4c-0.6-0.2-1.1-0.5-1.4-0.8l-1.5-1.3c-0.5-0.4-0.9-0.9-1.2-1.6c-0.3-0.7-0.5-1.3-0.5-1.8v-7.7
		c0-0.4,0.2-1,0.5-1.8c0.3-0.7,0.8-1.3,1.3-1.7l1.4-1.1c0.9-0.7,1.9-1.1,3.1-1.1h4.7c1.2,0,2.3,0.5,3.4,1.5l1.3,1.2
		C123.3,133.4,123.7,134.6,123.7,136.2z M110.2,135.9v2.6h10.2v-2.3c0-0.6-0.2-1.1-0.6-1.4l-1-0.9c-0.5-0.4-1-0.6-1.4-0.6h-4.2
		c-0.5,0-1,0.2-1.4,0.5l-1,0.8C110.4,135,110.2,135.4,110.2,135.9z"/>
	<path d="M140.3,141.9l-5.5,6.6c-0.4,0.5-0.8,0.7-1.3,0.7c-0.5,0-0.9-0.2-1.2-0.5c-0.3-0.3-0.5-0.7-0.5-1.2c0-0.4,0.1-0.8,0.3-1
		l6-7.2l-5.6-6.6c-0.3-0.3-0.4-0.6-0.4-1c0-0.4,0.2-0.8,0.5-1.2c0.3-0.4,0.7-0.5,1.2-0.5c0.6,0,1,0.2,1.4,0.6l5.1,6.1l5.2-6.2
		c0.3-0.4,0.7-0.6,1.2-0.6c0.4,0,0.8,0.1,1.2,0.5c0.3,0.3,0.5,0.7,0.5,1.2c0,0.5-0.1,0.8-0.2,0.9l-5.7,6.8l6,7.2
		c0.2,0.3,0.3,0.6,0.3,0.9c0,0.5-0.2,0.9-0.5,1.3c-0.3,0.3-0.7,0.5-1.2,0.5c-0.5,0-1-0.2-1.4-0.7L140.3,141.9z"/>
	<path d="M159.7,147.3v7.4c0,0.5-0.2,0.9-0.5,1.2c-0.3,0.3-0.7,0.5-1.2,0.5c-0.5,0-0.9-0.2-1.2-0.5c-0.3-0.3-0.5-0.7-0.5-1.2v-24
		c0-0.5,0.2-0.8,0.5-1.2c0.3-0.3,0.7-0.5,1.2-0.5c0.5,0,0.8,0.2,1.2,0.5c0.3,0.3,0.5,0.7,0.5,1.2v1.1c1.6-1.8,3.2-2.7,4.8-2.7h0.8
		c1.2,0,2.3,0.4,3.3,1.3l2.8,2.4c1.2,1.1,1.8,2.4,1.8,4.1v5.2c0,1.7-0.7,3-2,4.2l-2.7,2.4c-0.9,0.8-2.1,1.2-3.4,1.2h-0.7
		c-1.3,0-2.4-0.5-3.3-1.4L159.7,147.3z M164.5,146.5h0.9c0.4,0,0.9-0.2,1.3-0.6l2.6-2.3c0.4-0.3,0.7-0.8,0.7-1.4v-5.4
		c0-0.5-0.2-1-0.7-1.4l-2.8-2.4c-0.3-0.3-0.7-0.4-1-0.4h-1c-0.4,0-0.9,0.3-1.5,0.9l-2.5,2.5c-0.4,0.4-0.7,0.9-0.7,1.5v4.3
		c0,0.5,0.2,1,0.7,1.5l2.4,2.4C163.5,146.2,164,146.5,164.5,146.5z"/>
	<path d="M194.6,149.2h-10.2c-0.5,0-0.9-0.2-1.2-0.5c-0.3-0.3-0.5-0.7-0.5-1.2c0-0.5,0.2-0.8,0.5-1.2c0.3-0.3,0.7-0.5,1.2-0.5h3.4
		V126h-3.4c-0.5,0-0.9-0.2-1.2-0.5c-0.3-0.3-0.5-0.7-0.5-1.2c0-0.5,0.2-0.9,0.5-1.2c0.3-0.3,0.7-0.5,1.2-0.5h5.1
		c0.5,0,0.8,0.2,1.2,0.5c0.3,0.3,0.5,0.7,0.5,1.2v21.5h3.4c0.5,0,0.8,0.2,1.2,0.5c0.3,0.3,0.5,0.7,0.5,1.2c0,0.5-0.2,0.9-0.5,1.2
		C195.5,149,195.1,149.2,194.6,149.2z"/>
	<path d="M222.8,135.9v7.1c0,1.5-0.7,2.9-2.1,4.2c-1.4,1.3-2.9,1.9-4.4,1.9h-3.9c-1.5,0-3-0.7-4.4-2c-1.4-1.3-2.1-2.7-2.1-4.2v-7.1
		c0-1.5,0.7-2.9,2.1-4.2c1.4-1.3,2.9-2,4.5-2h3.9c1.5,0,3,0.6,4.4,1.9C222.1,133,222.8,134.4,222.8,135.9z M209.2,136.1v6.8
		c0,0.6,0.2,1.1,0.7,1.5l1.3,1.1c0.3,0.2,0.7,0.4,1.2,0.4h3.9c0.6,0,1.1-0.2,1.6-0.6l1-0.9c0.4-0.3,0.6-0.8,0.6-1.3v-6.8
		c0-0.7-0.2-1.2-0.6-1.5l-1.2-0.9c-0.4-0.3-0.9-0.5-1.4-0.5h-3.5c-0.8,0-1.3,0.2-1.8,0.5l-1.1,1
		C209.4,135.1,209.2,135.5,209.2,136.1z"/>
	<path d="M230.6,147.5v-16c0-0.5,0.2-0.9,0.5-1.2c0.3-0.3,0.7-0.5,1.2-0.5c0.5,0,0.9,0.2,1.2,0.5c0.3,0.3,0.5,0.7,0.5,1.2v2.1
		l2.7-2.3c1.1-1,2.2-1.4,3.3-1.4h2.5c1.4,0,2.6,0.5,3.6,1.5c1,1,1.5,2.2,1.5,3.6v0.9c0,0.5-0.2,0.9-0.5,1.2
		c-0.3,0.3-0.7,0.5-1.2,0.5c-0.5,0-0.9-0.2-1.2-0.5c-0.3-0.3-0.5-0.7-0.5-1.2v-0.9c0-0.5-0.2-0.9-0.5-1.2s-0.7-0.5-1.2-0.5h-2.2
		c-0.5,0-1,0.2-1.6,0.7l-4.8,4.1v9.4c0,0.5-0.2,0.9-0.5,1.2c-0.3,0.3-0.7,0.5-1.2,0.5c-0.5,0-0.9-0.2-1.2-0.5
		C230.8,148.4,230.6,148,230.6,147.5z"/>
	<path d="M272.3,136.2v4.1c0,0.5-0.2,0.8-0.5,1.2c-0.3,0.3-0.7,0.5-1.2,0.5h-11.9v1c0,0.6,0.2,1.1,0.7,1.5l1,0.8
		c0.5,0.4,1,0.6,1.5,0.6h8.6c0.5,0,0.8,0.2,1.2,0.5c0.3,0.3,0.5,0.7,0.5,1.2c0,0.5-0.2,0.8-0.5,1.2c-0.3,0.3-0.7,0.5-1.2,0.5h-8.9
		c-0.6,0-1.2-0.1-1.9-0.4c-0.6-0.2-1.1-0.5-1.4-0.8l-1.5-1.3c-0.5-0.4-0.9-0.9-1.2-1.6c-0.3-0.7-0.5-1.3-0.5-1.8v-7.7
		c0-0.4,0.2-1,0.5-1.8c0.3-0.7,0.8-1.3,1.3-1.7l1.4-1.1c0.9-0.7,1.9-1.1,3.1-1.1h4.7c1.2,0,2.3,0.5,3.4,1.5l1.3,1.2
		C271.8,133.4,272.3,134.6,272.3,136.2z M258.8,135.9v2.6H269v-2.3c0-0.6-0.2-1.1-0.6-1.4l-1-0.9c-0.5-0.4-1-0.6-1.4-0.6h-4.2
		c-0.5,0-1,0.2-1.4,0.5l-1,0.8C259,135,258.8,135.4,258.8,135.9z"/>
</g>
</svg>
