<?xml version="1.0" standalone="yes"?>
<svg xmlns="http://www.w3.org/2000/svg" width="408" height="273">
<path style="fill:#ffffff; stroke:none;" d="M0 0L0 92C1.9784 87.287 1.56207 81.1024 2.28549 76C3.42365 67.9725 5.96675 60.0247 6.82639 52C7.41823 46.4752 5.38459 39.0443 8.56404 34.1705C16.5328 21.9551 29.967 18.9432 42.7145 14.6312C55.4447 10.325 68.6979 9.2923 81.8302 6.7446C102.473 2.73984 123.973 1 145 1C140.531 -0.875153 134.809 0 130 0L101 0L0 0z"/>
<path style="fill:#986623; stroke:none;" d="M60 58C55.5756 53.8585 50.5038 56.2798 45.0394 55.0224C37.0141 53.1757 30.6978 49.3294 23.5718 45.5941C20.0645 43.7557 14.9819 42.4131 14.0972 37.8032C13.2933 33.6143 19.9121 29.4486 22.8696 27.6158C33.0457 21.3094 45.2103 17.4325 57 15.5903C68.6769 13.7657 80.2813 10.5292 92.0394 9.12885C106.598 7.39499 121.359 7.98874 135.961 6.94598C139.092 6.72238 141.878 5.27356 145.015 5.05402C164.774 3.67084 185.612 4.43512 205 7C204.232 5.68588 204.314 5.76785 203 5L203 3C204.314 2.23215 204.232 2.31412 205 1C152.136 0.965149 98.7032 -1.08038 47.0895 12.7037C37.07 15.3795 16.8981 19.3897 12.3341 30.1705C8.93579 38.1978 13.8885 46.1549 20.5795 49.9043C32.4795 56.5728 46.6977 58 60 58z"/>
<path style="fill:#ffffff; stroke:none;" d="M195 0C200.312 2.56525 208.136 0.694031 213.995 1.02313C216.863 1.18423 219.252 2.61298 222.06 2.9213C229.301 3.71628 236.73 3.42181 244 4.13428C247.606 4.48767 256.979 7.76413 259 5C263.527 8.17148 269.704 7.14459 274.961 8.54938C290.519 12.7071 312.378 15.0617 324.373 26.8434C329.105 31.4905 329.253 36.8557 330.321 43C331.822 51.6391 333.395 65.1832 339.228 71.9606C341.271 74.3346 352.26 80.7805 349.94 84.564C348.052 87.643 341.233 82.934 339 82C341.98 105.58 342.261 129.591 337.551 153C335.528 163.056 331.122 172.179 328.61 182C327.135 187.762 327.032 195.049 327.001 201C326.986 203.762 327.716 208.231 325.397 210.307C323.526 211.981 320.251 211.151 318 211L319 202C311.054 210.459 306.56 221.72 297.985 229.91C279.282 247.777 255.654 258.631 231 265.709C219.384 269.044 207.138 271.967 195 272C200.707 274.395 208.846 273 215 273L258 273L408 273L408 126C407.221 127.769 407.088 129.036 407 131C397.64 129.262 387.518 128.079 378 128C378.546 125.015 377.671 118.978 379.693 116.742C381.541 114.698 385.475 114.669 388 114.247C394.337 113.188 400.686 112.19 407 111L407 118C408.661 114.041 408 109.26 408 105L408 82L408 0L195 0z"/>
<path style="fill:#976322; stroke:none;" d="M203 3L203 5C212.181 9.78442 225.807 7.1998 236 8.16977C257.692 10.2341 280.426 13.2546 300.91 20.7955C308.155 23.4626 315.805 24.8541 321.37 30.6296C327.567 37.0622 322.862 43.9463 315 45L316 49C323.898 47.5575 331.473 39.5721 328.11 31.0895C326.438 26.8715 321.657 23.2496 317.714 21.2492C293.165 8.79468 262.756 7.08862 236 3.57562C231.677 3.00803 227.343 3.37646 223.039 2.87115C215.869 2.0293 210.004 -0.64447 203 3z"/>
<path style="fill:#9d7a42; stroke:none;" d="M81 11C82.0813 13.1208 82.8792 13.9187 85 15C82.9786 24.4165 92.7891 25.8044 95 17C93.3924 15.5502 92.9357 14.9485 92 13C93.0226 14.5339 92.8046 14.4023 94 15C97.4153 13.224 98.9925 13.7514 101 17C98.6567 19.0608 98.6331 23.0568 102.148 24.3071C104.616 25.1848 107.359 23.9314 109.91 24.5841C112.372 25.2137 114.264 26.9913 116.949 26.7978C123.892 26.2976 122.002 18.2873 125.532 14.3881C129.39 10.127 131.981 15.1635 132.352 18.9961C132.552 21.0636 132.593 22.9502 133 25C137.803 23.8481 149.286 15.1124 140 12C144.581 9.38989 146.354 9.93768 151 12C149.446 14.2102 149.726 14.5858 152 16L152 12C155.247 12.2608 157.078 11.6962 159 9L161 9C162.057 10.9693 162.32 10.4549 164 9L165 15C166.314 14.2321 166.232 14.3141 167 13C167.992 16.2645 168.374 19.6379 169 23L172 23C172.738 18.3658 169.347 15.9938 169.596 12.0309C169.829 8.31351 173.235 9.60211 175 11C181.007 7.32086 188.008 6.45859 193 12C194.758 11.4325 196.987 10.1075 198.871 10.2585C204.781 10.7319 207.417 14.4225 211 7C206.034 6.99615 201.775 5.39786 196.961 5.05402C179.887 3.83466 161.113 3.83466 144.039 5.05402C140.909 5.27762 138.122 6.72644 134.985 6.94598C120.686 7.94696 106.342 7.95963 92.0394 9.05322C88.2355 9.34406 84.8768 10.887 81 11z"/>
<path style="fill:#222222; stroke:none;" d="M259.333 5.66666C259.278 5.72217 259.222 6.7778 259.667 6.33334C259.722 6.2778 259.778 5.22217 259.333 5.66666z"/>
<path style="fill:#96743f; stroke:none;" d="M211 7C209.416 9.19803 207.404 12.2181 204.285 11.9221C202.043 11.7092 200.483 9.51611 198.117 9.75925C196.401 9.93555 194.522 11.2708 193 12C189.844 6.85571 179.802 6.00571 176 11C173.815 9.1684 169.438 7.28232 169.282 12.0162C169.154 15.8814 172.261 18.6918 172 23L169 23L168 13L165 15L164 9C162.805 9.59772 163.023 9.46609 162 11L161 9L159 9C156.744 11.0453 155.031 11.6869 152 12L152 16C150.521 15.0143 150.797 15 149 15L151 12C146.676 9.27917 144.726 9.31491 140 11C145.726 16.4244 140.921 20.2537 136 24C137.053 25.0457 138.068 26.0559 138.965 27.2446C139.565 28.0403 140.167 28.8794 140.683 29.7323L141.678 31.409C143.802 38.1909 136.548 34.4451 133.317 36.1381C131.394 37.146 131.298 39.1302 131 41L128 41C128.297 37.7083 128.822 35.5011 131 33C129.494 32.317 128.685 32.1741 127 32C126.9 41.0011 123.907 44.6719 115 44C116.551 45.7824 117.929 46.8602 120 48C117.804 50.4334 116.312 51.7893 113 52C111.746 55.161 111.81 56.8134 113 60C118.182 59.038 122.841 58.7718 128 60L131 57L131 55C129.733 53.457 129.511 52.9522 129 51C132.967 51.8041 135.486 54.2217 139 56L139 59C133.954 62.3385 139.519 63.5397 143 63L144 57C145.186 58.0356 145.604 58.3387 147 59C145.664 60.8255 145.31 61.7528 145 64C150.067 64.104 154.118 64.7388 159 63C158.339 61.6037 158.036 61.1863 157 60C163.795 56.9163 167.456 56.343 171 64C173.715 63.6954 176.272 63.8409 179 64C178.402 62.8046 178.534 63.0226 177 62C179.263 59.2115 180.451 57.0622 184 56L185 51L188 52C187.943 48.6167 184.938 42.4443 188 41C185.717 39.7785 183.572 39.3479 181 39L185 28L181 28C181.847 24.8575 183.515 22.2575 184 19C191.516 18.9155 199.923 14.9985 203 25C205.834 24.0945 207.426 23.5217 209 21C211.598 22.559 212.503 22.9869 212 25C214.111 25.9291 216.74 28.5009 219.141 28.2083C225.984 27.3744 224.419 17.6219 222.427 13.3796C221.028 10.4008 217.332 9.11594 215 7L211 7z"/>
<path style="fill:#a07c44; stroke:none;" d="M215 7L215 9C221.497 10.62 229.24 23.8455 219.988 27.4043C217.422 28.3912 214.442 25.6683 212 25C211.919 22.5372 211.269 22.0578 209 21C207.14 22.9828 205.491 23.8711 203 25C201.127 13.9459 191.159 18.7865 184 19C183.185 22.1411 181.5 24.7712 181 28L191 29C192.098 26.9176 192.685 25.3298 193 23C195.706 23.9906 198.132 24.7126 201 25C200.244 31.1169 200.161 35.3337 207 37C208.058 33.284 208.595 30.0811 212 28C211.389 31.7943 212.49 35.213 213 39C215.281 38.2796 216.907 36.7261 219.129 35.8742C224.786 33.7055 229.022 35.7674 227 28C232.278 28.2115 236.484 29.4635 237 23C233.458 22.5388 230.439 20.8956 227 20C228.97 17.3913 230.742 15.0226 232 12L245.91 13.108L256 16C255.263 18.9031 255.471 21.0494 256 24C258.185 23.4705 261.38 23.4029 263.212 22.0162C264.892 20.7451 264.911 18.221 267.225 17.6428C269.56 17.0589 272.642 18.6883 275 19L275 21L271 21L269 27C273.839 27.9849 278.079 28.1705 283 28C284.19 32.5756 289.509 34.3049 291 29L295 29L296 35L300 35C299.188 37.7817 298.547 38.6274 296 40C297.248 40.6848 297.548 40.7488 299 41L299 47C296.475 47.8544 295.97 48.5083 295 51C301.714 50.0959 307.902 47.8384 314.285 45.7199C317.496 44.6547 320.857 44.5521 323.106 41.6559C326.558 37.2128 324.228 32.3998 320.571 29.0941C315.234 24.2698 306.093 21.4712 299 21C299.661 22.3964 299.964 22.8137 301 24C294.614 24.2404 294.944 17.438 288.96 16.2099C264.818 11.2553 239.736 7.0163 215 7z"/>
<path style="fill:#222222; stroke:none;" d="M265 7C266.506 7.68304 267.315 7.8259 269 8C267.494 7.31696 266.685 7.1741 265 7z"/>
<path style="fill:#414141; stroke:none;" d="M272 8C273.506 8.68301 274.315 8.8259 276 9C274.494 8.31696 273.685 8.1741 272 8z"/>
<path style="fill:#92713e; stroke:none;" d="M105 24L105 31C108.554 32.4117 111.299 34.9857 115 36L115 41L112 40C110.798 41.666 109.84 43.1387 109 45C112.8 44.7027 119.221 45.743 122.585 44.3611C127.058 42.5236 126.987 35.918 127 32C131.757 31.9832 134.736 30.9081 139 29C137.739 31.2971 136.791 33.5012 136 36C145.842 38.4023 140.922 30.0115 139 25C136.861 24.8347 134.519 24.8517 133.346 22.6821C131.831 19.8797 133.575 12.768 128.776 12.2562C122.51 11.5878 123.573 22.8583 119.518 25.5617C115.689 28.114 109.454 24.0522 105 24z"/>
<path style="fill:#a27e44; stroke:none;" d="M47 17L47 20L51 20C51.8387 22.6265 52.3735 23.1613 55 24C53.5595 27.5526 51.1721 30.4477 55 33C53.2656 36.3332 51.8432 40.2416 55 43L55 45C52.9199 46.6667 52.5766 48.391 52 51C58.0902 54.6933 60.3891 57.974 68 58L68 56C57.2403 54.7875 59.9947 42.9554 60 35C66.19 36.5658 68.9089 35.8028 67 29C68.5944 30.2965 69.0182 30.5354 71 31L72 27C62.089 21.6347 74.2487 17.4125 76 12C71.8908 12.191 68.8232 13.9928 64.9105 14.7369C59.1273 15.8367 52.8734 16.2538 47 17z"/>
<path style="fill:#95743f; stroke:none;" d="M76 12C73.7133 16.258 60.9217 23.3202 72 27L71 31C69.42 30.3164 69.2228 30.1952 68 29C66.3314 34.6889 66.7764 35.9289 60 35C59.9845 40.6256 57.0399 51.8579 63.3032 55.2971C68.8443 58.3396 74.3946 54.2338 79 59C79.9845 56.6685 79.9813 54.5434 80 52L85 52L85 57L95 56C94.8179 53.2763 94.2646 51.4173 93 49L103 51C105.351 46.8358 109.63 44.411 112 40C113.478 40.9856 113.203 41 115 41L115 36C111.5 34.4677 108.745 31.9392 105 31L105 25C100.806 23.7833 98.1387 21.0169 101 17C99.1427 12.3748 96.6959 14.4236 93 13C92.4424 15.3082 93.0036 15.7563 95 17C91.8841 24.8141 83.8127 24.038 85 15C81.9542 13.1195 79.5927 12.1956 76 12z"/>
<path style="fill:#91713d; stroke:none;" d="M232 12L227 20C230.431 21.2904 233.298 22.7515 237 23L236 31C232.071 31.6543 231.429 33.2126 231 37L235 37L235 39L228 39C230.058 46.8715 233.608 47.2962 241 47C243.628 41.7695 245.443 39.1319 244 33C255.052 31.4685 253.884 24.8891 256 16C252.778 15.3008 249.972 13.5808 246.83 12.8534C242.263 11.7961 236.717 12.2863 232 12z"/>
<path style="fill:#95743f; stroke:none;" d="M256 21C253.111 27.5977 251.789 31.2974 244 33C244.684 36.8564 244.478 40.1361 244 44C247.267 46.2204 245.232 49.4622 245 53C241.508 51.9433 240.568 50.5824 240 47C233.15 47.1286 230.475 45.5124 228 39L235 39L235 37L231 37C232.004 32.9683 235.248 31.5262 236 28L227 28C228.17 35.4132 225.032 33.7664 219.129 35.5679C216.891 36.2508 215.069 37.9608 213 39C212.699 35.2882 211.881 31.7357 212 28C207.948 29.1853 206.566 35.2465 205 39C207.695 39.8448 210.194 40.6569 213 41L213 47L224 44C224.517 47.2065 225.842 48.6429 228 51C226.122 51.1759 224.801 51.4382 223 52L223 49C221.13 50.2292 220.776 50.8683 220 53C218.814 51.9644 218.396 51.6613 217 51L215 56C220.485 55.8745 227.821 53.577 231 59C232.376 56.6054 232.213 54.761 232 52C237.101 53.3911 237.325 57.4769 241.299 59.9768C243.921 61.6255 248.031 61.8622 251 63C252.624 60.9564 253.643 60.1036 256 59C256.255 56.4897 256.77 54.7978 255 53L259 52C258.339 48.1863 256.741 47.4297 253 47L253 45C256.422 44.9717 259.637 44.6245 263 44C260.395 40.9968 251.675 30.83 259.268 27.6427C262.566 26.258 268.386 27.99 272 28C270.752 27.3152 270.452 27.2512 269 27L271 21L275 21L275 19C272.101 18.6866 269.202 15.9742 266.167 17.1667C263.709 18.132 265.219 20.5238 263.667 22C261.419 24.1382 256.389 24.0121 256 21z"/>
<path style="fill:#987640; stroke:none;" d="M41 19C42.2483 19.6848 42.5485 19.7488 44 20C40.9426 23.6417 38.3899 29.1675 34.7901 32.1157C31.2146 35.0441 24.6558 33.8374 22.0278 37.5725C20.6018 39.5993 21.0083 42.6655 21 45C24.4791 46.3725 26.9767 48.972 30.2863 50.5849C38.6423 54.6569 47.9151 55.716 57 55C55.6174 52.6832 54.5134 52.0374 52 51C52.7526 48.591 53.3969 46.9241 55 45L55 43C52.3991 39.548 53.5512 36.7826 55 33C52.2256 29.8415 54.058 27.6997 55 24C52.7511 22.8465 52.1535 22.2489 51 20L41 19z"/>
<path style="fill:#91713d; stroke:none;" d="M295 19C295.339 23.2488 296.676 24.8232 301 24C300.209 22.239 300.038 22.4546 301 21C299.031 19.9372 297.202 19.4679 295 19z"/>
<path style="fill:#a17d44; stroke:none;" d="M21 44C21.327 34.0069 28.5817 37.162 34.7901 32.6597C38.3343 30.0894 41.8013 23.7804 44 20C34.775 20.0255 24.7201 24.4232 17.8086 30.6937C12.2565 35.7308 12.8022 42.6723 21 44z"/>
<path style="fill:#92713e; stroke:none;" d="M193 23L191 29C184.542 28.4588 181.792 33.0533 181 39L188 40L187 33C193.473 34.916 193.465 42.1654 199 44L197 51C198.753 52.3302 199.67 53.2475 201 55C194.919 55.8023 190.895 51.8061 185 51L184 56C179.737 56.7058 178.532 59.1651 177 63C182.224 64.2863 188.966 63.3348 193 67L195 67C197.066 65.2805 200.354 64.5138 201.977 62.3488C203.419 60.425 203.496 57.9637 205 56C203.652 49.4688 207.016 48.0707 213 48L213 41C204.193 39.0826 200.398 33.6145 201 25L193 23z"/>
<path style="fill:#9e7b43; stroke:none;" d="M80 47C87.0112 47.539 100.385 50.4581 99 40L93 40L93 43L89 43C90.7698 40.1018 92.6838 39.5301 96 39C97.5571 36.1668 99.7335 34.0492 101 31C98.088 29.4007 95.1048 28.1759 92 27C90.5467 29.4491 85.5249 41.9491 81.6883 38.2878C79.4101 36.1138 80.611 27.2912 80 24C74.3076 25.8443 73.9252 35.7645 75.777 40.8711C76.6097 43.1675 78.8176 44.8749 80 47z"/>
<path style="fill:#a47f45; stroke:none;" d="M169 32C169.791 33.761 169.962 33.5454 169 35C172.432 36.4403 176.3 36 180 36C180.066 32.2971 180.394 28.692 180 25C173.417 24.5229 173.215 27.9871 169 32z"/>
<path style="fill:#92713e; stroke:none;" d="M272 58C273.56 57.4037 274.623 56.9115 276 56C274.521 55.0143 274.797 55 273 55L273 53C275.711 52.4522 277.348 52.2786 280 53C282.489 50.6646 283.274 48.3026 284 45C279.643 44.3441 276.169 42.0813 272 41C272.562 39.1994 272.824 37.8781 273 36C277.231 36.7855 280.832 37.2292 285 36C285.482 38.364 285.636 38.5175 288 39C287.362 42.3324 287.706 43.8417 291 45L289 51C293.385 50.8548 295.308 48.9282 299 47C298.987 43.8058 299.403 41.7292 296 41C298.644 39.2119 299.492 38.156 300 35L296 35L295 29L291 29C288.453 33.1066 285.09 31.843 283 28C279.31 28.046 275.651 28.1169 271.961 28.0239C268.115 27.927 262.927 26.2955 259.232 27.3326C255.319 28.431 256.332 35.7519 257.588 38.6204C259.32 42.5747 264.983 44.3751 267.945 47.3488C271.083 50.4987 271.118 53.9132 272 58z"/>
<path style="fill:#96743f; stroke:none;" d="M309 36C312.826 30.1598 315.768 36.7798 316 41C324.404 39.5974 319.479 30.6848 313.829 28.5849C311.444 27.6982 303.919 26.4473 302.086 28.7384C299.409 32.0854 306.91 35.2812 309 36z"/>
<path style="fill:#a17d44; stroke:none;" d="M136 29C131.716 33.5438 128.328 33.9533 128 41L131 41C132.038 37.4093 133.409 36.0384 137 35L139 29L136 29z"/>
<path style="fill:#9e7b43; stroke:none;" d="M148 45L148 49L156 51C158.652 47.3327 160.369 44.5508 161 40L167 39C166.232 37.6859 166.314 37.7679 165 37L165 35C166.923 34.0985 166.999 33.9238 168 32C164.855 31.0703 159.479 29.802 156.859 32.6034C154.402 35.2299 156.305 38.8429 154.803 41.6968C153.534 44.1078 150.373 44.4805 148 45z"/>
<path style="fill:#a26825; stroke:none;" d="M318 202C318.673 205.102 318.242 207.84 318 211C320.784 211.058 323.291 211.352 326 212C326.727 202.792 326.455 193.064 328.375 184C329.462 178.869 332.055 173.998 333.656 169C335.949 161.842 337.365 154.379 338.739 147C342.557 126.503 342.808 102.513 339 82C341.218 83.3067 350.002 89.4807 350.94 83.8866C351.802 78.7429 340.493 73.5266 337.854 69.7137C335.748 66.6701 335.274 62.5165 334.37 59C332.687 52.4525 330.588 45.746 330 39C324.829 42.1368 322.138 47.1622 316 49L315 45C309.145 47.3036 303.232 49.4326 297 50.5363C293.682 51.1238 290.229 50.7832 287 51.8534C275.806 55.5639 263.327 62.9539 251 61C247.328 64.4408 242.783 63.9473 238 64.5756C226.414 66.0977 214.645 66.3467 203 67.0887C194.507 67.6299 185.513 68.8089 177.004 67.892C173.511 67.5156 170.477 64.3099 167.05 64.537C164.789 64.6869 163.1 66.5352 160.91 66.9915C156.787 67.8509 151.251 67.864 147 67.946C138.976 68.1008 130.839 65.6767 123.001 65.5139C112.524 65.2963 101.494 64.8888 91 63.7477C84.2968 63.0188 78.1186 59.1174 71.7145 57.5347C68.9074 56.841 65.8383 57.8365 63 57.9606C50.7978 58.4942 40.5951 56.4702 29 52.8835C23.7183 51.2497 16.6755 48.7423 13.6883 43.696C11.6248 40.2101 12.0026 35.8905 12 32C4.79943 34.1859 7.22631 42.9419 6.96065 49C6.78124 53.0911 5.88303 57.0534 4.86111 61C-4.05067 95.4167 -0.376259 134.447 10.3441 168C18.4475 193.362 30.472 216.105 51 233.7C65.0874 245.774 84.5694 252.835 102 258.667C144.966 273.041 188.903 278.005 233 265.421C266.079 255.982 305.343 236.57 318 202z"/>
<path style="fill:#a17d44; stroke:none;" d="M187 33C187.231 36.4134 187.988 38.9409 185 41C188.057 48.7733 190.904 57.1667 201 55C199.846 52.7511 199.249 52.1535 197 51C197.854 48.62 198.666 46.5123 199 44C193.568 41.0114 194.18 34.1824 187 33z"/>
<path style="fill:#a07b43; stroke:none;" d="M273 36L272 41C276.138 42.6945 279.436 44.5982 284 45C283.047 48.0668 281.941 50.4371 280 53C277.415 51.3979 275.867 52.0244 273 53L273 55C280.478 57.5529 289.08 52.6939 291 45C288.251 43.3663 287.866 42.1834 288 39C285.876 38.1007 285.899 38.1236 285 36C280.78 36.993 277.247 36.5363 273 36z"/>
<path style="fill:#b98d5b; stroke:none;" d="M329 36L329 39C329.696 37.4463 329.696 37.5537 329 36z"/>
<path style="fill:#a17d44; stroke:none;" d="M253 45L253 47C256.456 47.7176 257.929 48.5979 259 52L255 52C255.946 54.4107 256.04 56.4101 256 59C253.703 59.6736 253.226 59.9653 252 62C258.814 61.4578 265.331 59.3764 272 58C271.589 52.437 269.984 44.6749 262.96 44.0239C259.778 43.729 256.249 44.9308 253 45M103 51C99.5533 50.2318 96.5856 49.1059 93 49C93.9176 51.3817 94.6756 53.4614 95 56L85 57L85 52L80 52L80 59C77.7735 56.9675 75.9286 55.7326 73 55C74.3557 62.8319 89.4725 63.7239 96 63.7847C103.629 63.8559 111.493 66.3302 118.999 66.4861C127.56 66.6639 136.292 67.6206 145 67.9599C151.165 68.2001 156.805 67.2177 163 68C163.207 66.1585 163.349 62.2856 166.019 62.1921C168.794 62.095 171.19 66.7936 174.093 67.581C179.829 69.1366 187.081 68 193 68C190.951 62.1775 176.297 62.8523 171 64C168.639 55.8382 163.248 55.9227 157 60L159 63C154.195 64.1722 149.908 64.0374 145 64C145.511 62.0478 145.733 61.543 147 60C146.027 58.7301 145.27 57.9725 144 57L143 63C139.542 63.1795 135.827 62.7273 139 59L139 56C135.622 53.4879 133.291 51.4814 129 51C129.307 53.1227 129.382 53.686 131 55L131 57C129.077 57.9015 129.001 58.0762 128 60C123.053 58.5376 117.998 58.8101 113 60C112.148 56.9338 112.035 55.038 113 52C116.602 52.0045 118.104 51.0495 120 48C114.586 43.9856 105.648 43.2901 103 51z"/>
<path style="fill:#a07c44; stroke:none;" d="M205 56C200.765 59.6715 201.932 63.74 195 65L195 68C213.119 67.222 230.811 64.012 249 64L249 61C246.341 60.9686 243.528 61.1326 241.299 59.4113C237.438 56.4292 237.446 52.8341 232 52L232 59C227.908 53.3327 221.168 55.6235 215 56C215.89 54.2554 216.453 52.875 217 51L220 53C220.955 51.2328 221.566 50.3925 223 49L223 52L228 51C226.453 48.5506 224.817 46.8414 224 44C219.839 44.3435 216.795 45.9051 212.91 47.1644C207.174 49.0241 202.859 48.4836 205 56z"/>
<path style="fill:#a37f45; stroke:none;" d="M241 44C240.155 48.6358 239.606 52.0997 245 53L247 44L241 44z"/>
<path style="fill:#a27e44; stroke:none;" d="M161 45L161 51C164.018 50.5729 166.271 49.315 169 48C166.583 45.4585 164.45 45.1039 161 45z"/>
<path style="fill:#a26825; stroke:none;" d="M358 78C366.293 78.917 370.07 69.8713 374.37 64C375.977 61.8063 379.245 58.3701 377.839 55.3904C375.383 50.1878 363.942 49.1168 359.001 49.0548C356.85 49.0278 353.659 49.0586 352.694 51.4336C351.686 53.9113 353.267 57.5715 353.873 60C355.359 65.9543 357.181 71.9144 358 78z"/>
<path style="fill:#b98d5b; stroke:none;" d="M363.667 49.3333C363.222 49.7777 364.278 49.7224 364.333 49.6667C364.778 49.2221 363.722 49.2779 363.667 49.3333z"/>
<path style="fill:#95743f; stroke:none;" d="M257 59L265 59L264 53C260.433 53.9408 258.171 55.4448 257 59z"/>
<path style="fill:#af7e45; stroke:none;" d="M5.33333 58.6667C5.27774 58.7223 5.22222 59.7778 5.66667 59.3333C5.72218 59.2778 5.7778 58.2222 5.33333 58.6667z"/>
<path style="fill:#90703d; stroke:none;" d="M163 67C165.029 65.5144 166.575 64.6409 169 64C165.799 59.5567 163.483 62.7983 163 67z"/>
<path style="fill:#be9667; stroke:none;" d="M337 70L338 71L337 70z"/>
<path style="fill:#b98d5b; stroke:none;" d="M2.33333 74.6667C2.27778 74.7222 2.22222 75.7778 2.66667 75.3333C2.72223 75.2778 2.77779 74.2222 2.33333 74.6667z"/>
<path style="fill:#a26825; stroke:none;" d="M370 87C370.777 91.5121 372.796 95.5961 374 100C383.573 99.5626 392.714 95.1289 402 93C401.019 86.3594 398.309 79.8142 395 74C386.344 77.6038 378.291 82.6378 370 87z"/>
<path style="fill:#b98d5b; stroke:none;" d="M0 92L0 97C0.829904 94.9695 0.829898 94.0305 0 92M340 93L340 96C340.696 94.4463 340.696 94.5537 340 93z"/>
<path style="fill:#a26825; stroke:none;" d="M378 116C378.749 120.036 378.997 123.899 379 128C388.053 128.075 398.19 128.902 407 131C407.026 127.878 407.276 125.04 408 122L392 122C397.242 120.342 402.783 120.545 408 119C407.352 116.291 407.058 113.784 407 111C397.377 112.223 387.42 113.679 378 116z"/>
<path style="fill:#b98d5b; stroke:none;" d="M0 112L0 117C0.829898 114.97 0.82989 114.03 0 112z"/>
<path style="fill:#ffffff; stroke:none;" d="M0 117L0 273L164 273C159.52 271.116 153.835 271.4 149 270.715C141.32 269.626 133.498 267.82 126 265.846C104.436 260.166 79.8734 252.586 61 240.453C44.1904 229.646 30.3198 212.673 21.2593 195C13.0059 178.901 7.60985 160.685 4.00386 143C2.36169 134.946 3.10574 124.401 0 117z"/>
<path style="fill:#997954; stroke:none;" d="M378.333 118.667C378.278 118.722 378.222 119.778 378.667 119.333C378.722 119.278 378.778 118.222 378.333 118.667z"/>
<path style="fill:#ffffff; stroke:none;" d="M407 119C403.431 120.084 399.707 120.531 396 121C398.447 122.182 408.76 123.669 407 119z"/>
<path style="fill:#b98d5b; stroke:none;" d="M398.667 120.333C398.222 120.778 399.278 120.722 399.333 120.667C399.778 120.222 398.722 120.278 398.667 120.333z"/>
<path style="fill:#2b1c0a; stroke:none;" d="M233 121C234.769 121.779 236.036 121.912 238 122C236.231 121.221 234.964 121.088 233 121z"/>
<path style="fill:#b3844d; stroke:none;" d="M392 121C393.506 121.683 394.315 121.826 396 122C394.494 121.317 393.685 121.174 392 121z"/>
<path style="fill:#000000; stroke:none;" d="M232 122C232.812 124.782 233.453 125.627 236 127C233.609 137.43 228.223 147.189 228 158C235.114 155.888 234.872 146.474 240.185 141.62C241.757 140.185 245.128 137.052 247.422 138.832C252.748 142.965 239.689 154.721 248.148 158.242C253.562 160.496 257.055 155.746 256 151L251 153C251.873 146.545 258.931 130.128 246.005 131.608C243.998 131.838 241.968 132.551 240 133C240.276 129.839 241.042 127.021 242 124C238.619 122.372 235.733 122.033 232 122z"/>
<path style="fill:#563714; stroke:none;" d="M239 122L240 123L239 122z"/>
<path style="fill:#2b1c0a; stroke:none;" d="M231.333 123.667C231.278 123.722 231.222 124.778 231.667 124.333C231.722 124.278 231.778 123.222 231.333 123.667z"/>
<path style="fill:#613e16; stroke:none;" d="M241 123L242 124L241 123z"/>
<path style="fill:#b98d5b; stroke:none;" d="M407 123L407 126C407.696 124.446 407.696 124.554 407 123z"/>
<path style="fill:#613e16; stroke:none;" d="M241.333 125.667C241.278 125.722 241.222 126.778 241.667 126.333C241.722 126.278 241.778 125.222 241.333 125.667z"/>
<path style="fill:#b98d5b; stroke:none;" d="M378 125L378 128C378.696 126.446 378.696 126.554 378 125z"/>
<path style="fill:#997954; stroke:none;" d="M1.33333 126.667C1.2778 126.722 1.22221 127.778 1.66667 127.333C1.72224 127.278 1.77779 126.222 1.33333 126.667z"/>
<path style="fill:#563714; stroke:none;" d="M235 127L235 130C235.696 128.446 235.696 128.554 235 127z"/>
<path style="fill:#774c1b; stroke:none;" d="M240 128L240 133C240.83 130.969 240.83 130.031 240 128z"/>
<path style="fill:#b98d5b; stroke:none;" d="M385.667 128.333C385.222 128.778 386.278 128.722 386.333 128.667C386.778 128.222 385.722 128.278 385.667 128.333z"/>
<path style="fill:#613e16; stroke:none;" d="M121.667 129.333C121.222 129.778 122.278 129.722 122.333 129.667C122.778 129.222 121.722 129.278 121.667 129.333z"/>
<path style="fill:#b3844d; stroke:none;" d="M395.667 129.333C395.222 129.778 396.278 129.722 396.333 129.667C396.778 129.222 395.722 129.278 395.667 129.333z"/>
<path style="fill:#563714; stroke:none;" d="M117 130C118.248 130.685 118.548 130.749 120 131C118.752 130.315 118.452 130.251 117 130z"/>
<path style="fill:#000000; stroke:none;" d="M127 149C121.274 149.832 117.03 152.945 111 153C114.819 145.649 126.815 146.813 128.663 138C130.229 130.53 122.203 129.567 117 131.224C109.967 133.464 105.503 138.714 104.326 146C101.969 160.6 123.425 161.466 127 149z"/>
<path style="fill:#563714; stroke:none;" d="M149.667 130.333C149.222 130.778 150.278 130.722 150.333 130.667C150.778 130.222 149.722 130.278 149.667 130.333z"/>
<path style="fill:#b98d5b; stroke:none;" d="M404.667 130.333C404.222 130.778 405.278 130.722 405.333 130.667C405.778 130.222 404.722 130.278 404.667 130.333z"/>
<path style="fill:#412a0f; stroke:none;" d="M115 131L116 132L115 131z"/>
<path style="fill:#613e16; stroke:none;" d="M127 131L128 132L127 131z"/>
<path style="fill:#563714; stroke:none;" d="M143 131C144.248 131.685 144.549 131.749 146 132C144.752 131.315 144.452 131.251 143 131z"/>
<path style="fill:#000000; stroke:none;" d="M162 149L157 152C156.228 148.029 156.822 144.836 158.075 141C158.77 138.871 160.425 135.746 158.929 133.603C157.502 131.558 153.228 131.513 151 131.3C140.012 130.25 132.314 140.273 134.229 150.999C135.467 157.93 141.278 157.947 147 157.934C154.687 157.918 160.936 158.531 162 149z"/>
<path style="fill:#2b1c0a; stroke:none;" d="M169.667 131.333C169.222 131.778 170.278 131.722 170.333 131.667C170.778 131.222 169.722 131.278 169.667 131.333z"/>
<path style="fill:#000000; stroke:none;" d="M168 132C169.099 134.537 171.177 137.182 171.361 140C171.744 145.859 167.52 152.046 167 158C174.139 155.853 174.942 146.077 180.194 141.202C183.925 137.74 189.166 142.807 191.971 139.383C194.282 136.563 192.09 132.398 188.941 131.603C186.347 130.948 183.619 132.041 181 132.01C176.387 131.956 172.656 131.139 168 132z"/>
<path style="fill:#563714; stroke:none;" d="M177 131L178 132L177 131z"/>
<path style="fill:#4c3111; stroke:none;" d="M184.667 131.333C184.222 131.778 185.278 131.722 185.333 131.667C185.778 131.222 184.722 131.278 184.667 131.333z"/>
<path style="fill:#563714; stroke:none;" d="M212 131C213.248 131.685 213.548 131.749 215 132C213.752 131.315 213.452 131.251 212 131z"/>
<path style="fill:#4c3111; stroke:none;" d="M249 131L250 132L249 131z"/>
<path style="fill:#b98d5b; stroke:none;" d="M340 131L340 134C340.696 132.446 340.696 132.554 340 131z"/>
<path style="fill:#563714; stroke:none;" d="M83 132C84.769 132.779 86.0359 132.912 88 133C86.2309 132.221 84.9641 132.088 83 132z"/>
<path style="fill:#000000; stroke:none;" d="M82 139C84.4091 137.779 87.0926 135.71 89.8711 137.079C92.1828 138.217 93.6456 143.034 96.74 142.168C100.155 141.213 98.5328 136.19 96.6821 134.6C92.1549 130.708 80.6661 131.819 78.6466 138.019C76.3821 144.972 83.4192 146.017 87.9522 147.558C90.2586 148.342 92.506 150.149 91.0293 152.79C89.0983 156.243 83.3808 156.839 80.9838 153.683C79.7124 152.009 79.6587 149.209 77.5864 148.176C74.2079 146.492 72.7777 151.511 73.3372 153.892C74.1499 157.351 77.939 158.242 81 158.699C88.1429 159.765 99.52 156.983 95.3958 147.133C93.2995 142.127 85.4922 143.193 82 139z"/>
<path style="fill:#6c4519; stroke:none;" d="M90.6667 132.333C90.2222 132.778 91.2778 132.722 91.3333 132.667C91.7778 132.222 90.7222 132.278 90.6667 132.333z"/>
<path style="fill:#36230c; stroke:none;" d="M92.6667 132.333C92.2222 132.778 93.2778 132.722 93.3333 132.667C93.7778 132.222 92.7222 132.278 92.6667 132.333z"/>
<path style="fill:#4c3111; stroke:none;" d="M113 132L114 133L113 132M179.667 132.333C179.222 132.778 180.278 132.722 180.333 132.667C180.778 132.222 179.722 132.278 179.667 132.333z"/>
<path style="fill:#563714; stroke:none;" d="M191 132L192 133L191 132z"/>
<path style="fill:#412a0f; stroke:none;" d="M210 132L211 133L210 132z"/>
<path style="fill:#000000; stroke:none;" d="M221 149C217.299 150.887 212.526 156.148 208.054 154.469C205.548 153.528 203.834 150.821 202 149C204 145.467 205.844 138.426 210.985 138.497C214.941 138.551 218.334 148.39 222.157 144.377C225.946 140.4 222.135 134.509 217.985 132.894C207.249 128.718 197.318 139.884 198.062 150C199.085 163.894 220.016 162.049 221 149z"/>
<path style="fill:#613e16; stroke:none;" d="M217.667 132.333C217.222 132.778 218.278 132.722 218.333 132.667C218.778 132.222 217.722 132.278 217.667 132.333M234 132L235 133L234 132z"/>
<path style="fill:#563714; stroke:none;" d="M252 132L253 133L252 132z"/>
<path style="fill:#bb9160; stroke:none;" d="M2.33333 133.667C2.27778 133.722 2.22222 134.778 2.66667 134.333C2.72222 134.278 2.77778 133.222 2.33333 133.667z"/>
<path style="fill:#4c3111; stroke:none;" d="M206 133C207.248 133.685 207.548 133.749 209 134C207.752 133.315 207.452 133.251 206 133z"/>
<path style="fill:#613e16; stroke:none;" d="M220 133L221 134L220 133z"/>
<path style="fill:#563714; stroke:none;" d="M80 134L81 135L80 134M97 134L98 135L97 134z"/>
<path style="fill:#4c3111; stroke:none;" d="M110 134L111 135L110 134z"/>
<path style="fill:#774c1b; stroke:none;" d="M119 134C120.248 134.685 120.548 134.749 122 135C120.752 134.315 120.452 134.251 119 134z"/>
<path style="fill:#412a0f; stroke:none;" d="M122.667 134.333C122.222 134.778 123.278 134.722 123.333 134.667C123.778 134.222 122.722 134.278 122.667 134.333z"/>
<path style="fill:#2b1c0a; stroke:none;" d="M129 134L129 139C129.83 136.969 129.83 136.031 129 134z"/>
<path style="fill:#613e16; stroke:none;" d="M168 134L169 135L168 134z"/>
<path style="fill:#2b1c0a; stroke:none;" d="M193 134L193 139C193.83 136.969 193.83 136.031 193 134z"/>
<path style="fill:#613e16; stroke:none;" d="M221 134L222 135L221 134z"/>
<path style="fill:#2b1c0a; stroke:none;" d="M233 134L233 137C233.696 135.446 233.696 135.554 233 134z"/>
<path style="fill:#412a0f; stroke:none;" d="M79 135L80 136L79 135z"/>
<path style="fill:#563714; stroke:none;" d="M98 135L99 136L98 135z"/>
<path style="fill:#a26825; stroke:none;" d="M111 144C116.683 143.418 122.957 141.167 124 135C117.48 135.076 112.415 137.132 111 144z"/>
<path style="fill:#774c1b; stroke:none;" d="M124 135L124 138C124.696 136.446 124.696 136.554 124 135z"/>
<path style="fill:#563714; stroke:none;" d="M138 135L139 136L138 135z"/>
<path style="fill:#613e16; stroke:none;" d="M169 135L170 136L169 135z"/>
<path style="fill:#563714; stroke:none;" d="M78 136L79 137L78 136M85 136C87.0521 136.874 88.7472 136.953 91 137C88.9479 136.126 87.2528 136.047 85 136z"/>
<path style="fill:#412a0f; stroke:none;" d="M115 136L116 137L115 136z"/>
<path style="fill:#36230c; stroke:none;" d="M147.667 136.333C147.222 136.778 148.278 136.722 148.333 136.667C148.778 136.222 147.722 136.278 147.667 136.333z"/>
<path style="fill:#4c3111; stroke:none;" d="M99 137L99 141C99.7102 139.241 99.7102 138.76 99 137z"/>
<path style="fill:#613e16; stroke:none;" d="M114 137L115 138L114 137z"/>
<path style="fill:#a26825; stroke:none;" d="M145.042 138.083C138.862 140.89 136.353 156.105 145.946 152.392C152.268 149.945 153.936 134.043 145.042 138.083z"/>
<path style="fill:#412a0f; stroke:none;" d="M149 137L150 138L149 137z"/>
<path style="fill:#774c1b; stroke:none;" d="M171 137L171 140C171.696 138.446 171.696 138.554 171 137z"/>
<path style="fill:#2b1c0a; stroke:none;" d="M209.667 137.333C209.222 137.778 210.278 137.722 210.333 137.667C210.778 137.222 209.722 137.278 209.667 137.333z"/>
<path style="fill:#412a0f; stroke:none;" d="M223 137L224 138L223 137z"/>
<path style="fill:#563714; stroke:none;" d="M245 137C246.248 137.685 246.549 137.749 248 138C246.752 137.315 246.452 137.251 245 137M254 137L254 142C254.83 139.969 254.83 139.031 254 137M77 138L77 141C77.6961 139.446 77.6961 139.554 77 138M83 138L84 139L83 138z"/>
<path style="fill:#2b1c0a; stroke:none;" d="M92 138L92 141C92.6961 139.446 92.6961 139.554 92 138z"/>
<path style="fill:#563714; stroke:none;" d="M136 138L137 139L136 138z"/>
<path style="fill:#412a0f; stroke:none;" d="M143 138L144 139L143 138z"/>
<path style="fill:#613e16; stroke:none;" d="M150 138L151 139L150 138z"/>
<path style="fill:#563714; stroke:none;" d="M182 138L183 139L182 138M208 138L209 139L208 138M243 138L244 139L243 138z"/>
<path style="fill:#36230c; stroke:none;" d="M82.3333 139.667C82.2778 139.722 82.2222 140.778 82.6667 140.333C82.7223 140.278 82.7777 139.222 82.3333 139.667z"/>
<path style="fill:#613e16; stroke:none;" d="M122 139L123 140L122 139z"/>
<path style="fill:#563714; stroke:none;" d="M142 139L143 140L142 139z"/>
<path style="fill:#774c1b; stroke:none;" d="M158.333 139.667C158.278 139.722 158.222 140.778 158.667 140.333C158.722 140.278 158.778 139.222 158.333 139.667z"/>
<path style="fill:#412a0f; stroke:none;" d="M242 139L243 140L242 139M249.333 139.667C249.278 139.722 249.222 140.778 249.667 140.333C249.722 140.278 249.778 139.222 249.333 139.667z"/>
<path style="fill:#4c3d2b; stroke:none;" d="M3 140L4 141L3 140z"/>
<path style="fill:#412a0f; stroke:none;" d="M111 140L112 141L111 140z"/>
<path style="fill:#4c3111; stroke:none;" d="M128 140L129 141L128 140z"/>
<path style="fill:#613e16; stroke:none;" d="M135 140L136 141L135 140M141 140L142 141L141 140z"/>
<path style="fill:#412a0f; stroke:none;" d="M171.333 140.667C171.278 140.722 171.222 141.778 171.667 141.333C171.722 141.278 171.778 140.222 171.333 140.667z"/>
<path style="fill:#2b1c0a; stroke:none;" d="M186.667 140.333C186.222 140.778 187.278 140.722 187.333 140.667C187.778 140.222 186.722 140.278 186.667 140.333z"/>
<path style="fill:#613e16; stroke:none;" d="M241 140L242 141L241 140M83 141L84 142L83 141z"/>
<path style="fill:#563714; stroke:none;" d="M105 141L106 142L105 141z"/>
<path style="fill:#613e16; stroke:none;" d="M127 141L128 142L127 141z"/>
<path style="fill:#774c1b; stroke:none;" d="M140.333 141.667C140.278 141.722 140.222 142.778 140.667 142.333C140.722 142.278 140.778 141.222 140.333 141.667z"/>
<path style="fill:#4c3111; stroke:none;" d="M199 141L200 142L199 141z"/>
<path style="fill:#563714; stroke:none;" d="M78 142L79 143L78 142M84 142C86.0521 142.874 87.7472 142.953 90 143C87.9479 142.126 86.2528 142.047 84 142z"/>
<path style="fill:#412a0f; stroke:none;" d="M94 142L95 143L94 142M104 142L104 145C104.696 143.446 104.696 143.554 104 142z"/>
<path style="fill:#563714; stroke:none;" d="M110 142C110.482 144.364 110.636 144.518 113 145C112.027 143.73 111.27 142.973 110 142z"/>
<path style="fill:#412a0f; stroke:none;" d="M117 142L118 143L117 142z"/>
<path style="fill:#563714; stroke:none;" d="M126 142L127 143L126 142z"/>
<path style="fill:#2b1c0a; stroke:none;" d="M134.333 142.667C134.278 142.722 134.222 143.778 134.667 143.333C134.722 143.278 134.778 142.222 134.333 142.667z"/>
<path style="fill:#563714; stroke:none;" d="M157 142L157 145C157.696 143.446 157.696 143.554 157 142M178 142L179 143L178 142M238 142L239 143L238 142z"/>
<path style="fill:#a26825; stroke:none;" d="M376 142L373 155C381.961 157.916 390.829 161.877 400 164C402.303 158.646 403.746 152.83 404 147C394.609 145.787 385.446 142.752 376 142z"/>
<path style="fill:#774c1b; stroke:none;" d="M91.6667 143.333C91.2222 143.778 92.2778 143.722 92.3333 143.667C92.7777 143.222 91.7222 143.278 91.6667 143.333z"/>
<path style="fill:#412a0f; stroke:none;" d="M125 143L126 144L125 143z"/>
<path style="fill:#4c3111; stroke:none;" d="M198 143L199 144L198 143z"/>
<path style="fill:#563714; stroke:none;" d="M253 143L254 144L253 143M79 144L80 145L79 144z"/>
<path style="fill:#613e16; stroke:none;" d="M124 144L125 145L124 144z"/>
<path style="fill:#412a0f; stroke:none;" d="M139 144L140 145L139 144z"/>
<path style="fill:#563714; stroke:none;" d="M151 144L152 145L151 144M170 144L171 145L170 144z"/>
<path style="fill:#4c3111; stroke:none;" d="M217 144L218 145L217 144z"/>
<path style="fill:#36230c; stroke:none;" d="M230.333 144.667C230.278 144.722 230.222 145.778 230.667 145.333C230.722 145.278 230.778 144.222 230.333 144.667z"/>
<path style="fill:#bd9566; stroke:none;" d="M4 145L5 146L4 145z"/>
<path style="fill:#774c1b; stroke:none;" d="M133 145L133 149C133.71 147.241 133.71 146.759 133 145z"/>
<path style="fill:#563714; stroke:none;" d="M236 145L237 146L236 145z"/>
<path style="fill:#774c1b; stroke:none;" d="M252 145L252 148C252.696 146.446 252.696 146.554 252 145z"/>
<path style="fill:#563714; stroke:none;" d="M82 146L83 147L82 146M118.667 146.333C118.222 146.778 119.278 146.722 119.333 146.667C119.778 146.222 118.722 146.278 118.667 146.333z"/>
<path style="fill:#2b1c0a; stroke:none;" d="M138 146L138 150C138.71 148.241 138.71 147.759 138 146z"/>
<path style="fill:#4c3111; stroke:none;" d="M150 146L151 147L150 146z"/>
<path style="fill:#412a0f; stroke:none;" d="M169.333 146.667C169.278 146.722 169.222 147.778 169.667 147.333C169.722 147.278 169.778 146.222 169.333 146.667z"/>
<path style="fill:#774c1b; stroke:none;" d="M197 146L197 153C198.059 150.466 198.059 148.534 197 146z"/>
<path style="fill:#2b1c0a; stroke:none;" d="M219.667 146.333C219.222 146.778 220.278 146.722 220.333 146.667C220.778 146.222 219.722 146.278 219.667 146.333M83.6667 147.333C83.2222 147.778 84.2778 147.722 84.3333 147.667C84.7778 147.222 83.7222 147.278 83.6667 147.333z"/>
<path style="fill:#563714; stroke:none;" d="M85 147C86.506 147.683 87.3148 147.826 89 148C87.494 147.317 86.6852 147.174 85 147z"/>
<path style="fill:#412a0f; stroke:none;" d="M96 147L96 153C96.9511 150.715 96.9511 149.285 96 147z"/>
<path style="fill:#774c1b; stroke:none;" d="M103.333 147.667C103.278 147.722 103.222 148.778 103.667 148.333C103.722 148.278 103.778 147.222 103.333 147.667z"/>
<path style="fill:#613e16; stroke:none;" d="M203 147L204 148L203 147z"/>
<path style="fill:#563714; stroke:none;" d="M91 148L92 149L91 148M114 148L115 149L114 148z"/>
<path style="fill:#2b1c0a; stroke:none;" d="M124 148C125.248 148.685 125.548 148.749 127 149C125.752 148.315 125.452 148.251 124 148z"/>
<path style="fill:#563714; stroke:none;" d="M202 148L203 149L202 148z"/>
<path style="fill:#4c3111; stroke:none;" d="M246.333 148.667C246.278 148.722 246.222 149.778 246.667 149.333C246.722 149.278 246.778 148.222 246.333 148.667M79 149L80 150L79 149z"/>
<path style="fill:#563714; stroke:none;" d="M112 149L113 150L112 149z"/>
<path style="fill:#412a0f; stroke:none;" d="M133 149L133 152C133.696 150.446 133.696 150.554 133 149z"/>
<path style="fill:#563714; stroke:none;" d="M156.333 149.667C156.278 149.722 156.222 150.778 156.667 150.333C156.722 150.278 156.778 149.222 156.333 149.667z"/>
<path style="fill:#2b1c0a; stroke:none;" d="M162 149L162 152C162.696 150.446 162.696 150.554 162 149z"/>
<path style="fill:#412a0f; stroke:none;" d="M219 149L220 150L219 149z"/>
<path style="fill:#563714; stroke:none;" d="M221 149L221 153C221.71 151.241 221.71 150.759 221 149z"/>
<path style="fill:#412a0f; stroke:none;" d="M251 149L252 150L251 149z"/>
<path style="fill:#774c1b; stroke:none;" d="M72 150L72 156C72.9511 153.715 72.9511 152.285 72 150z"/>
<path style="fill:#613e16; stroke:none;" d="M111 150L112 151L111 150M121 150L122 151L121 150M127 150L128 151L127 150z"/>
<path style="fill:#412a0f; stroke:none;" d="M168 150L169 151L168 150M228.333 150.667C228.278 150.722 228.222 151.778 228.667 151.333C228.722 151.278 228.778 150.222 228.333 150.667M120 151L121 152L120 151z"/>
<path style="fill:#613e16; stroke:none;" d="M139 151L140 152L139 151z"/>
<path style="fill:#563714; stroke:none;" d="M148 151L149 152L148 151M157 151L158 152L157 151z"/>
<path style="fill:#4c3111; stroke:none;" d="M173 151L174 152L173 151z"/>
<path style="fill:#563714; stroke:none;" d="M245 151L246 152L245 151z"/>
<path style="fill:#613e16; stroke:none;" d="M256 151L257 152L256 151z"/>
<path style="fill:#4c3111; stroke:none;" d="M111 152L112 153L111 152z"/>
<path style="fill:#613e16; stroke:none;" d="M118 152L119 153L118 152z"/>
<path style="fill:#36230c; stroke:none;" d="M167.333 152.667C167.278 152.722 167.222 153.778 167.667 153.333C167.722 153.278 167.778 152.222 167.333 152.667z"/>
<path style="fill:#4c3111; stroke:none;" d="M251.667 152.333C251.222 152.778 252.278 152.722 252.333 152.667C252.778 152.222 251.722 152.278 251.667 152.333z"/>
<path style="fill:#997954; stroke:none;" d="M337.333 152.667C337.278 152.722 337.222 153.778 337.667 153.333C337.722 153.278 337.778 152.222 337.333 152.667z"/>
<path style="fill:#2b1c0a; stroke:none;" d="M80.3333 153.667C80.2778 153.722 80.2222 154.778 80.6667 154.333C80.7222 154.278 80.7778 153.222 80.3333 153.667z"/>
<path style="fill:#563714; stroke:none;" d="M91 153L92 154L91 153z"/>
<path style="fill:#613e16; stroke:none;" d="M125 153L126 154L125 153z"/>
<path style="fill:#4c3111; stroke:none;" d="M134 153L135 154L134 153z"/>
<path style="fill:#2b1c0a; stroke:none;" d="M141 153C142.506 153.683 143.315 153.826 145 154C143.494 153.317 142.685 153.174 141 153z"/>
<path style="fill:#774c1b; stroke:none;" d="M161.333 153.667C161.278 153.722 161.222 154.778 161.667 154.333C161.722 154.278 161.778 153.222 161.333 153.667z"/>
<path style="fill:#4c3111; stroke:none;" d="M214 153L215 154L214 153z"/>
<path style="fill:#563714; stroke:none;" d="M244 153L244 156C244.696 154.446 244.696 154.554 244 153z"/>
<path style="fill:#774c1b; stroke:none;" d="M257.333 153.667C257.278 153.722 257.222 154.778 257.667 154.333C257.722 154.278 257.778 153.222 257.333 153.667z"/>
<path style="fill:#563714; stroke:none;" d="M90 154L91 155L90 154z"/>
<path style="fill:#774c1b; stroke:none;" d="M95.3333 154.667C95.2778 154.722 95.2222 155.778 95.6667 155.333C95.7222 155.278 95.7778 154.222 95.3333 154.667z"/>
<path style="fill:#4c3111; stroke:none;" d="M220 154L221 155L220 154M227 154L227 157C227.696 155.446 227.696 155.554 227 154z"/>
<path style="fill:#563714; stroke:none;" d="M81 155C83.6127 156.098 86.1645 155.993 89 156C86.3873 154.902 83.8355 155.007 81 155z"/>
<path style="fill:#412a0f; stroke:none;" d="M107 155L108 156L107 155z"/>
<path style="fill:#563714; stroke:none;" d="M122 155L123 156L122 155z"/>
<path style="fill:#412a0f; stroke:none;" d="M160 155L161 156L160 155M199 155L200 156L199 155z"/>
<path style="fill:#563714; stroke:none;" d="M208 155C209.248 155.685 209.548 155.749 211 156C209.752 155.315 209.452 155.251 208 155z"/>
<path style="fill:#4c3111; stroke:none;" d="M219 155L220 156L219 155z"/>
<path style="fill:#613e16; stroke:none;" d="M136 156L137 157L136 156z"/>
<path style="fill:#412a0f; stroke:none;" d="M159 156L160 157L159 156M200 156L201 157L200 156M232 156L233 157L232 156z"/>
<path style="fill:#563714; stroke:none;" d="M75 157L76 158L75 157M92.6667 157.333C92.2222 157.778 93.2778 157.722 93.3333 157.667C93.7778 157.222 92.7222 157.278 92.6667 157.333M157 157L158 158L157 157z"/>
<path style="fill:#4c3111; stroke:none;" d="M201 157L202 158L201 157z"/>
<path style="fill:#613e16; stroke:none;" d="M231 157L232 158L231 157z"/>
<path style="fill:#2b1c0a; stroke:none;" d="M77 158C78.2484 158.685 78.5484 158.749 80 159C78.7516 158.315 78.4516 158.251 77 158z"/>
<path style="fill:#563714; stroke:none;" d="M90 158L91 159L90 158z"/>
<path style="fill:#774c1b; stroke:none;" d="M113 158C114.769 158.779 116.036 158.912 118 159C116.231 158.221 114.964 158.088 113 158M140 158C141.506 158.683 142.315 158.826 144 159C142.494 158.317 141.685 158.174 140 158M146.667 158.333C146.222 158.778 147.278 158.722 147.333 158.667C147.778 158.222 146.722 158.278 146.667 158.333z"/>
<path style="fill:#613e16; stroke:none;" d="M152 158L153 159L152 158z"/>
<path style="fill:#563714; stroke:none;" d="M202 158L203 159L202 158z"/>
<path style="fill:#4c3111; stroke:none;" d="M215 158L216 159L215 158M247 158L248 159L247 158z"/>
<path style="fill:#563714; stroke:none;" d="M253 158L254 159L253 158M82 159C84.3316 159.985 86.4566 159.981 89 160C86.6685 159.015 84.5433 159.019 82 159z"/>
<path style="fill:#36230c; stroke:none;" d="M204.667 159.333C204.222 159.778 205.278 159.722 205.333 159.667C205.778 159.222 204.722 159.278 204.667 159.333z"/>
<path style="fill:#613e16; stroke:none;" d="M212.667 159.333C212.222 159.778 213.278 159.722 213.333 159.667C213.778 159.222 212.722 159.278 212.667 159.333z"/>
<path style="fill:#563714; stroke:none;" d="M248 159C249.248 159.685 249.548 159.749 251 160C249.752 159.315 249.452 159.251 248 159z"/>
<path style="fill:#bd9566; stroke:none;" d="M8 161L9 162L8 161z"/>
<path style="fill:#a26825; stroke:none;" d="M367 166C365.349 168.43 362.013 171.875 362.167 175C362.307 177.856 365.172 180.083 366.965 182C371.331 186.668 375.476 191.473 380 196C385.431 192.093 389.953 186.413 392 180C383.589 175.523 375.766 169.777 367 166M344 211C350.703 210.982 357.006 210.143 363 207C360.447 198.07 355.453 189.967 353 181C350.072 181.233 345.039 181.203 343.028 183.738C341.136 186.124 342.22 190.29 342.576 193C343.348 198.885 343.951 205.065 344 211z"/>
<path style="fill:#b98d5b; stroke:none;" d="M327 190L327 194C327.71 192.241 327.71 191.759 327 190M342.333 192.667C342.278 192.722 342.222 193.778 342.667 193.333C342.722 193.278 342.778 192.222 342.333 192.667M343 203L343 206C343.696 204.446 343.696 204.554 343 203M318.333 205.667C318.278 205.722 318.222 206.778 318.667 206.333C318.722 206.278 318.778 205.222 318.333 205.667M326 207L326 211C326.71 209.241 326.71 208.759 326 207M322 211C323.248 211.685 323.548 211.749 325 212C323.752 211.315 323.451 211.251 322 211M344.667 211.333C344.222 211.778 345.278 211.722 345.333 211.667C345.778 211.222 344.722 211.278 344.667 211.333z"/>
<path style="fill:#bd9465; stroke:none;" d="M275 247L276 248L275 247z"/>
<path style="fill:#b07f47; stroke:none;" d="M104.667 255.333C104.222 255.778 105.278 255.722 105.333 255.667C105.778 255.222 104.722 255.278 104.667 255.333M179.667 269.333C179.222 269.778 180.278 269.722 180.333 269.667C180.778 269.222 179.722 269.278 179.667 269.333z"/>
<path style="fill:#4c3d2b; stroke:none;" d="M147 270L148 271L147 270z"/>
<path style="fill:#b98d5b; stroke:none;" d="M164 272C165.248 272.685 165.548 272.749 167 273C165.752 272.315 165.452 272.251 164 272M192 272C193.248 272.685 193.548 272.749 195 273C193.752 272.315 193.452 272.251 192 272z"/>
</svg>
