<?xml version="1.0" standalone="yes"?>
<svg xmlns="http://www.w3.org/2000/svg" width="408" height="273">
<path style="fill:#ffffff; stroke:none;" d="M0 0L0 97C2.05802 92.0955 1.26539 85.3486 2 80C3.22728 71.0643 6.31163 61.8896 6.90664 53.0008C7.29563 47.1895 5.20898 39.2802 8.24923 34.0394C15.3248 21.8422 30.5827 18.7349 42.7145 14.6312C55.4447 10.325 68.6979 9.2923 81.8302 6.7446C102.473 2.73984 123.973 1 145 1C140.531 -0.875153 134.809 0 130 0L101 0L0 0z"/>
<path style="fill:#7e5120; stroke:none;" d="M145 0C149.72 1.98056 155.92 1 161 1L195 1C190.28 -0.98056 184.08 0 179 0L145 0z"/>
<path style="fill:#ffffff; stroke:none;" d="M195 0C200.018 2.10547 206.605 0.914001 211.999 1.00464C218.472 1.11337 225.455 2.54691 232 3.16977C249.325 4.81851 266.011 7.8855 283.039 11.2315C294.436 13.4709 307.452 15.9339 317.714 21.7253C334.395 31.1402 329.739 53.3169 336.728 68.8302C339.178 74.2704 346.896 79.2239 352 82L350 87L340 82C338.64 88.1448 340.688 94.779 340.961 101C341.515 113.652 341.076 126.391 339.765 138.961C338.171 154.246 332.21 167.373 328.552 182C326.219 191.33 326.411 202.424 326 212C323.271 211.19 320.85 211.021 318 211L319 203C310.187 210.5 305.767 222.809 296.996 230.83C278.392 247.844 256.03 258.219 232 265.294C220.462 268.691 208.091 271.75 196 272C201.707 274.395 209.846 273 216 273L259 273L408 273L408 124C407.016 126.331 407.019 128.457 407 131C398.474 128.479 387.922 128.214 379 128C378.825 123.975 378.784 119.955 378 116C387.178 114.834 397.134 113.659 406 111L407 117C408.661 113.041 408 108.26 408 104L408 81L408 0L195 0z"/>
<path style="fill:#7c501e; stroke:none;" d="M121 1L121 3L137 3L137 1L121 1z"/>
<path style="fill:#5d451c; stroke:none;" d="M116 3C125.604 7.03003 136.177 3.12134 146 3.00385C166.684 2.75647 187.364 3.93378 208 4C212.896 4.01572 218.056 4.26401 222.83 5.45139C227.028 6.49545 232.701 8.7757 236 5C240.258 8.68878 244.713 7.66632 250 8.16977C256.481 8.78693 262.498 10.9777 269 11L269 9C258.278 7.64499 247.711 5.18909 237 4.16977C226.729 3.19232 216.302 3.66617 206.015 2.94598C202.551 2.70352 199.483 1.14902 195.985 1.01852C178.006 0.347717 158.983 -0.227417 141.039 1.05402C138.224 1.25507 135.742 2.54465 132.961 2.87115C127.426 3.52097 121.57 3 116 3z"/>
<path style="fill:#7a4f1d; stroke:none;" d="M201 1L201 3L219 3L219 1L201 1z"/>
<path style="fill:#7b501f; stroke:none;" d="M105 3C108.432 4.44031 112.3 4 116 4C112.568 2.55969 108.7 3 105 3z"/>
<path style="fill:#352711; stroke:none;" d="M120 24C123.462 23.9904 127.475 24.2989 130.621 22.581C132.859 21.3592 134.281 19.0293 136.314 17.5139C142.592 12.8335 149.162 10.1987 157 12C156.66 13.8791 156.803 16.0504 156.259 17.8758C155.45 20.5924 149.824 25.0103 153.579 27.919C155.432 29.3546 160.633 27.8482 163 28C162.625 30.9486 160.968 33.9732 161.198 36.9498C161.413 39.7402 163.3 42.3001 164 45C166.594 44.5659 168.605 42.3127 171.039 42.0779C173.212 41.8684 175.272 44.0865 177.412 42.713C179.278 41.5149 179.627 37.7934 181 36C179.703 34.0799 179.209 33.6839 177 33C180.9 26.9234 180.825 17.461 172 16C171.134 13.3521 170.77 12.9165 168 13C166.827 2.71353 157.281 5.35275 149.804 6.02701C146.07 6.36377 142.985 2.85953 139.129 3.92206C136.537 4.63635 134.765 7.42307 132.965 9.24692C128.431 13.8394 121.876 17.5956 120 24z"/>
<path style="fill:#382912; stroke:none;" d="M141 3C143.221 4.43845 146.259 6.43625 149 6.47763C156.694 6.59381 165.728 1.91498 168 13L171 12L172 16C176.472 17.3394 178.046 20.9727 180 25C183.912 23.5565 187.465 22.2375 191 20L189 17L195 16C196.511 9.69638 201.671 5.82849 208 5C199.067 1.21649 188.322 3.5524 179 3.96063C166.376 4.51346 153.667 3 141 3z"/>
<path style="fill:#7c521f; stroke:none;" d="M221 3C225.217 4.76932 230.459 4 235 4C230.783 2.23068 225.541 3 221 3z"/>
<path style="fill:#5f461c; stroke:none;" d="M13 28C17.648 29.1274 22.456 24.4434 26.5764 22.4637C35.3808 18.2336 45.5795 15.1372 55.0394 12.8434C59.7904 11.6913 66.1039 13.4671 69 9C76.1071 11.5341 81.6639 8.0795 89 7.28937C98.2615 6.29187 106.899 8.25067 116 5C105.961 0.787445 91.0997 4.82449 80.9105 6.7446C57.247 11.2039 33.0309 13.3849 13 28z"/>
<path style="fill:#382912; stroke:none;" d="M69 9C65.0975 12.985 60.1615 11.5584 55.0394 12.6296C45.5574 14.6126 36.5572 19.3743 27 21L27 23C30.0535 23.0249 33.8931 23.9629 36.8302 23.0926C39.1434 22.4072 40.7608 20.3911 43.0394 19.588C45.2563 18.8066 47.6219 19.1509 49.9105 18.8711C52.3044 18.5785 55.2698 16.6696 57.5818 18.0818C60.4903 19.8583 60.6126 25.0026 61 28C65.5298 27.5861 68.7354 25.1184 73 24L72 31C77.5682 30.938 81.4982 29.7277 87 31L88 28L92 29C91.0272 33.6761 92.8905 35.1353 95 39C97.3879 35.3459 98.4527 32.9456 103 32C98.5114 24.982 99.861 20.7475 101 13C110.765 13 118.393 9.21408 128 8C124.799 13.5505 118.667 16.336 117 23C124.097 19.79 133.858 11.2292 137 4C130.831 5.14124 125.159 3.57343 119.004 4.09415C115.42 4.39737 112.479 6.43356 108.961 6.87036C102.581 7.66229 96.3294 6.73438 90 7.09335C82.3519 7.5271 76.4631 10.7259 69 9z"/>
<path style="fill:#362811; stroke:none;" d="M195 16L189 17L189 19L196 24C193.119 27.066 189.748 27.9812 188 32C194.692 31.8508 202.596 32.7437 205 25C207.612 25.1744 208.943 25.4181 211 27L213 27C214.953 25.2755 216.463 24.6553 219 24L219 20C222.422 20.0283 225.637 20.3755 229 21C227.565 28.3998 225.837 37.1554 235 40C234.169 42.9836 231.687 49.8849 228.971 51.5394C224.595 54.206 217.619 51.4023 213 51L213 56C209.542 53.9234 208.679 52.0065 209 48C204.241 48.3588 200.616 49.3063 199 44C195.106 45.2026 193.359 48.0764 189 48C191.656 51.9056 194.209 54.3473 199 55L195 57L195 61C204.656 60.2444 214.302 59.9743 224 60C223.084 62.6003 221.98 64.0901 220 66C226.652 69.579 236.459 66.5495 243.09 64.5448C246.619 63.4777 250.416 64.3071 254 63.3904C261.102 61.5738 267.755 58.4994 275 57C274.551 55.2437 274.345 54.6072 275 53C267.518 45.4368 278.253 41.0306 284 47C284.892 44.7291 284.859 42.4486 285 40C280.535 37.4173 279.262 34.032 279 29C277.686 29.7679 277.768 29.6858 277 31C273.526 27.6234 271.732 24.8571 271 20C267.892 20.1013 263.852 22.8857 261.171 22.4275C258.086 21.9003 254.925 16.6269 252 15L252 13C259.216 11.2828 262.404 14.4118 269.039 15.6559C274.779 16.732 282.079 15.9837 288 16C280.825 11.2485 273.321 11.9504 265.039 10.875C260.659 10.3062 256.454 8.8132 252 8.28549C246.575 7.6427 241.26 8.99149 237 5C225.785 11.2369 197.937 -5.78836 195 16z"/>
<path style="fill:#7a4f1f; stroke:none;" d="M239 4C241.613 5.09772 244.164 4.9928 247 5C244.387 3.90228 241.835 4.0072 239 4z"/>
<path style="fill:#7a4f1e; stroke:none;" d="M248 5L248 7L265 8C260.063 5.92273 253.384 5.01846 248 5z"/>
<path style="fill:#332510; stroke:none;" d="M113 11C113.31 13.2472 113.664 14.1745 115 16C109.677 17.8692 106.106 24.7142 104.716 30.0903C104.029 32.7461 104.638 36.1573 102.477 38.213C98.5417 41.9552 94.0163 38.0739 89.804 37.5887C86.9646 37.2617 83.7749 39.5276 82.0239 41.5895C81.1641 42.602 81.2111 43.7712 81 45C83.9796 45.0869 87.1503 46.6125 90 46.4414C92.9575 46.2637 96.0526 43.7653 99 43L100 49C105.707 49.0195 118.007 55.721 119.772 46.9498C120.157 45.0327 119.994 42.943 120 41C123.27 39.9405 127.04 35.1555 123.254 32.0278C121.247 30.3701 117.41 31.0019 115 31C115.336 25.8189 117.356 20.6828 120.75 16.7068C123.272 13.753 126.705 11.6986 128 8C122.781 8.4119 117.918 9.24356 113 11z"/>
<path style="fill:#6e4e1d; stroke:none;" d="M265 8C270.195 11.3435 274.214 11.0499 279.961 12.2986C285.212 13.4396 286.607 14.923 292 13C284.369 9.70822 273.337 8.069 265 8z"/>
<path style="fill:#3f2e14; stroke:none;" d="M140 16C143.879 15.9541 145.97 15.423 149 13C148.927 21.2076 146.502 27.7806 149 36C153.571 35.7509 156.652 38.3267 161 39L163 28C160.644 27.6226 156.2 28.7535 154.269 27.7137C152.942 26.9995 152.701 25.4561 153.037 24.1088C153.567 21.9855 155.635 20.7543 156.39 18.7423C157.156 16.7035 156.88 14.1456 157 12C151.388 10.3566 143.412 10.7491 140 16z"/>
<path style="fill:#423115; stroke:none;" d="M219 13L221 19L228 16C225.628 12.619 222.953 12.383 219 13z"/>
<path style="fill:#342611; stroke:none;" d="M252 13L252 15C254.41 16.9467 258.128 22.6506 261.171 23.098C263.996 23.5135 267.796 20.2411 271 20C271.419 24.7568 272.93 27.4546 276 31L279 29C279.121 34.1279 279.861 38.0523 285 40C284.916 40.8777 284.637 42.175 284.764 43.1165C285.788 50.7312 291.844 45.4977 296.039 44.7377C299.697 44.0751 303.273 44.8771 307 44C303.227 37.6109 309.496 35.9363 315 35L316 31C310.997 28.1792 309.923 21.7594 305.037 18.8627C294.948 12.8806 280.882 17.2621 270.015 15.6204C263.102 14.576 259.506 10.7812 252 13z"/>
<path style="fill:#413015; stroke:none;" d="M101 13C99.6067 19.0954 96.8984 26.6593 103 31C100.698 31.9654 97.9678 32.7035 96.9128 35.223C94.8601 40.125 100.276 41.5809 103.219 38.2307C105.116 36.072 104.287 32.6909 105.017 30.0903C106.518 24.7379 110.09 18.5693 115 16C111.267 12.0756 106.052 13 101 13z"/>
<path style="fill:#362811; stroke:none;" d="M147 13C144.306 17.155 137.357 16.3107 133 19C134.809 19.5743 135.069 19.4653 137 19C136.484 22.8511 135.435 25.0963 132 27C129.942 20.8607 123.313 26.1059 120 21C116.454 23.9448 115.14 26.3795 115 31C117.338 31.0083 120.53 30.5786 122.552 32.0278C126.605 34.9339 122.975 39.3974 120 41C119.985 42.6441 120.089 44.3811 119.772 46.0062C117.958 55.2808 107.112 49.021 101 49L101 52L105 52C104.014 53.4785 104 53.2032 104 55C101.41 52.9156 99.3027 52.2995 96 52L96 55C99.0809 55.6869 101.817 56.7885 105 57C105.406 59.0924 105.217 59.0198 107 60C103.4 63.035 100.691 63.9451 96 64C98.9149 65.2231 101.826 64.7159 104.91 65.2593C118.025 67.5698 130.77 67.9194 144 69C139.556 65.5452 134.04 64.6938 131.175 59.1157C129.419 55.6961 129.054 52.7113 133.26 51.5177C134.451 51.1797 135.783 51.137 137 51C137.528 54.7154 139.511 57.5939 141 61C146.136 60.1769 148.409 58.2434 149 53L153 53C153.89 49.3618 155.511 46.8449 155 43L159 41L161 47C169.291 41.1191 153.993 35.4993 149 36C147.037 27.849 148.977 21.1277 149 13L147 13z"/>
<path style="fill:#402f15; stroke:none;" d="M207 17C204.62 16.1456 202.512 15.3336 200 15C202.825 22.7102 208.506 24.3864 216 23C215.88 19.3084 215.687 17.2226 212 16C212.986 14.5215 213 14.7968 213 13C209.602 13.2678 208.285 13.7946 207 17z"/>
<path style="fill:#553f19; stroke:none;" d="M288 16L296 16C292.866 14.0239 290.42 12.6457 288 16z"/>
<path style="fill:#794e1d; stroke:none;" d="M292 13L292 15L296 15L296 13L292 13z"/>
<path style="fill:#70491a; stroke:none;" d="M39 15C40.5061 15.683 41.3148 15.8259 43 16C41.4939 15.317 40.6852 15.1741 39 15z"/>
<path style="fill:#413015; stroke:none;" d="M236 15C236.98 16.7834 236.908 16.5943 239 17L240 24L244 24L245 20C243.199 19.4382 241.878 19.1759 240 19L241 16C239.199 15.4382 237.878 15.1759 236 15z"/>
<path style="fill:#774d1d; stroke:none;" d="M296 15C299.369 16.8514 303.181 18.4834 307 19C304.482 15.3912 300.172 15.1819 296 15z"/>
<path style="fill:#433116; stroke:none;" d="M245 17C247.006 21.0019 250.506 23.7464 252 28C255.483 25.4882 256.356 19.3412 251.657 17.179C249.594 16.2297 247.159 16.7785 245 17z"/>
<path style="fill:#59421a; stroke:none;" d="M296 16C297.506 16.683 298.315 16.8259 300 17C298.494 16.317 297.685 16.1741 296 16z"/>
<path style="fill:#362811; stroke:none;" d="M13 29C12.8677 32.0898 11.7371 35.8255 12.7423 38.8148C13.5982 41.36 15.9535 42.9219 17.9236 44.5548C25.2854 50.6565 32.0342 51.3997 41 53.9236C45.8321 55.2839 50.1751 58.0289 55 59.3657C60.8952 60.9991 67.0241 60.4677 73 60C72.3944 56.216 73.0406 52.5196 71.1759 49.0154C69.0948 45.1046 65.2822 43.3768 64 39C61.3321 37.3687 61.0377 36.1144 61 33C59.2166 33.9803 59.4057 33.9076 59 36L53 35L53 32C55.4729 31.5072 59.0183 31.298 60.2431 28.686C61.7956 25.3751 60.4159 17.511 55.9807 17.277C49.3971 16.9296 42.6493 20.3764 36.8302 22.5548C33.1559 23.9303 28.8429 22.5641 25.0147 23.3434C20.6756 24.2266 17.1903 27.5477 13 29z"/>
<path style="fill:#9a6322; stroke:none;" d="M307 17L307 19L309 19L309 17L307 17z"/>
<path style="fill:#473417; stroke:none;" d="M136 19C132.56 21.2507 131.69 22.8919 132 27C135.815 25.7269 137.461 22.8654 136 19z"/>
<path style="fill:#423115; stroke:none;" d="M164 19C164.117 21.7301 164.499 24.3142 165 27L172 27C171.418 21.7559 169.312 19.3736 164 19z"/>
<path style="fill:#694c1d; stroke:none;" d="M307 19C308.789 20.4215 309.706 20.6974 312 21L312 19L307 19z"/>
<path style="fill:#402f15; stroke:none;" d="M177 33C178.58 33.6836 178.777 33.8048 180 35C185.336 31.882 192.598 29.3736 196 24C187.601 17.4286 180.595 24.9447 177 33z"/>
<path style="fill:#342611; stroke:none;" d="M219 20L219 24C216.257 24.4382 214.675 24.7791 213 27L211 27C209.266 24.9966 207.645 25.077 205 25C200.669 33.5265 189.308 31.95 181 33C180.058 35.6369 179.27 42.1928 175.941 42.5741C173.97 42.7999 172.294 41.1589 170.285 41.716C167.554 42.4738 166.013 44.5212 163 45L164 51L167 51C171.258 43.9444 171.918 54.6409 176 56L176 53L180 55L180 53C181.776 55.3672 182.603 57.0672 183 60L187 60C186.832 57.5975 186.803 56.5398 185 55L185 53L187 53L187 51C185.733 49.457 185.511 48.9522 185 47C187.364 47.3409 190.374 48.511 192.741 47.9375C194.975 47.3962 196.929 45.0411 199 44C200.149 50.8814 206.689 48.1096 212 48L212 51C216.722 51.4118 225.999 55.1729 230.016 51.1721C231.451 49.7428 232.122 47.054 233.115 45.2894C234.168 43.4186 234.668 42.1079 235 40C226.559 35.7126 227.975 28.9376 229 21C225.632 20.198 222.455 20.0095 219 20z"/>
<path style="fill:#8e5c20; stroke:none;" d="M312 20C313.506 20.683 314.315 20.8259 316 21C314.494 20.317 313.685 20.1741 312 20z"/>
<path style="fill:#855620; stroke:none;" d="M21 21L21 23L23 23L23 21L21 21z"/>
<path style="fill:#352711; stroke:none;" d="M308 21C309.413 25.1135 311.749 29.5524 316 31L315 35C309.456 35.5526 301.698 37.6765 307 44C299.275 45.3701 291.67 42.9325 287 51C280.843 48.8008 278.396 49.3151 273 53C275.678 58.0882 281.06 56.0477 286 56C294.591 55.9171 302.841 54.3189 310.715 50.8302C315.59 48.6699 319.737 45.0362 325 44C325.413 40.7586 327.268 37.4526 326.718 34.1559C325.546 27.144 314.287 21.837 308 21z"/>
<path style="fill:#68441b; stroke:none;" d="M312 21L312 23L316 23L316 21L312 21z"/>
<path style="fill:#815820; stroke:none;" d="M316 21C317.379 25.8362 321.057 26.6755 324.239 30.1042C326.582 32.6283 327.483 35.6996 328 39C331.467 30.6608 323.66 26.4113 319 21L316 21z"/>
<path style="fill:#423115; stroke:none;" d="M280 31C283.124 31.3113 285.972 32.1983 289 33C288.109 29.612 287.916 27.347 289 24C283.405 22.7172 280.866 25.6634 280 31z"/>
<path style="fill:#443216; stroke:none;" d="M53 32L53 35L59 36C61.9087 30.8931 65.9418 31.4669 71 33C72.1256 29.9972 72.7393 27.1973 73 24C66.0233 25.0436 59.8995 30.1233 53 32z"/>
<path style="fill:#423115; stroke:none;" d="M41 25C40.1197 28.5357 40.879 31.4942 40.5463 35C40.1528 39.1464 38.2485 41.7737 40.7407 45.7407C41.7632 47.3683 43.7801 50.5868 45.9954 50.5648C51.6932 50.5083 47.4769 42.431 45 41C48.4386 36.0879 45.3368 30.3515 44 25L41 25z"/>
<path style="fill:#2d2d2d; stroke:none;" d="M13.6667 27.3333C13.2221 27.7779 14.2778 27.7222 14.3333 27.6667C14.7777 27.2223 13.7223 27.2777 13.6667 27.3333M12 28L13 29L12 28z"/>
<path style="fill:#342611; stroke:none;" d="M88 28C87.0143 29.4785 87 29.2032 87 31C80.6963 28.8017 77.4315 31.1721 71 31.6065C68.4597 31.778 65.6367 30.5772 63.1991 31.6343C58.9828 33.4625 60.4303 37.9967 64 39C64.7723 43.7686 68.4648 45.0805 70.7415 49.0154C72.5959 52.2204 71.1669 56.6252 73.1929 59.4012C74.8035 61.608 79.5779 62.43 82.0895 63.0556C90.4858 65.1468 99.4795 66.0802 107 61L105 57L96 55L96 52L91 52L91 47C87.5408 45.7645 84.7023 45.0412 81 45C83.2444 37.8049 88.9009 38.2152 95 39C93.692 35.1245 91.5026 33.4298 92 29L88 28z"/>
<path style="fill:#6f4c1c; stroke:none;" d="M12 29L12 32C12.6961 30.4463 12.6961 30.5537 12 29z"/>
<path style="fill:#433116; stroke:none;" d="M237 29L236 35C239.68 35.7591 243.248 36.6935 247 37C245.164 33.8187 241.781 32.389 240 29L237 29z"/>
<path style="fill:#55514b; stroke:none;" d="M9 31L10 32L9 31z"/>
<path style="fill:#c2a583; stroke:none;" d="M10 31L11 32L10 31z"/>
<path style="fill:#a26825; stroke:none;" d="M318 202C318.673 205.102 318.242 207.84 318 211C320.784 211.058 323.291 211.352 326 212C326.75 202.497 326.376 192.323 328.528 183C329.641 178.177 332.116 173.728 333.565 169C336.374 159.832 338.199 150.484 339.572 141C342.384 121.582 341.45 101.385 339 82C342.629 83.909 346.046 85.8588 350 87L352 82C347.249 78.4193 341.27 74.5471 337.728 69.7137C335.52 66.7008 335.013 62.5453 334.127 59C332.414 52.1487 330.308 45.0742 330 38C324.7 42.9326 320.74 47.7034 313.83 50.6242C310.683 51.9546 307.208 51.8458 304 52.9645C300.972 54.0205 298.211 55.8642 295 56.3812C291.704 56.9119 288.33 55.9045 285 56.0934C278.666 56.4526 272.16 57.878 266 59.3364C258.803 61.0404 252.176 65.6111 245 66.7909C231.166 69.0654 216.952 68.4284 203 69.0394C189.744 69.6198 176.319 70.8555 163 69.946C159.236 69.6889 155.797 68.1491 152 68.0185C147.842 67.8755 144.07 69.1847 140 69.3164C121.815 69.9045 102.593 68.5656 84.8302 65.2585C77.7154 63.9338 70.1929 64.5055 63.1698 62.5556C55.1927 60.3408 48.1299 55.562 40 53.598C30.7243 51.3572 18.7375 51.1646 12.8866 41.74C10.9371 38.5997 12.6898 34.4698 12 31C3.20841 36.3732 8.25726 49.2564 5.79475 58C-3.58095 91.2902 -1.04964 129.086 8.57562 162C16.4233 188.835 28.5579 214.062 50 232.711C62.492 243.575 77.8363 249.135 93 255.2C136.829 272.729 185.14 278.843 231 265.86C264.687 256.322 305.043 237.39 318 202z"/>
<path style="fill:#403f3e; stroke:none;" d="M8 32L9 33L8 32z"/>
<path style="fill:#433116; stroke:none;" d="M256 39L248 37C248.301 38.8417 248.442 40.7511 249.858 42.1505C252.377 44.6389 259.377 46.2281 260.682 41.8511C262.985 34.1245 255.279 29.404 256 39z"/>
<path style="fill:#c3a685; stroke:none;" d="M8 33L9 34L8 33z"/>
<path style="fill:#543e1a; stroke:none;" d="M327 35L325 41C328.331 40.2861 328.591 37.7622 327 35z"/>
<path style="fill:#734d1c; stroke:none;" d="M11 37C11.8591 42.3495 14.7821 45.4949 20 47C17.9125 43.226 13.9829 40.195 11 37z"/>
<path style="fill:#402f15; stroke:none;" d="M157 41C156.455 42.6352 156.635 42.4549 155 43C154.982 47.1732 153.127 50.7888 153 55L159 56C158.594 53.9076 158.783 53.9802 157 53C160.794 51.957 164.127 52.6947 168 53C169.108 56.7877 171.679 55.9715 174.681 57.8519C177.426 59.5714 179.999 65.1195 183 61L185 61C188.167 64.6241 192.639 62.3373 196 60L195 57L199 56C194.508 53.1407 190.215 47.766 185 47C185.307 49.1227 185.382 49.686 187 51L187 53L185 53L185 55C186.422 56.7885 186.697 57.7057 187 60L183 60C182.784 56.8848 182.277 55.1631 180 53L180 55C178.406 53.7035 177.982 53.4646 176 53L176 56C173.071 54.3447 170.089 42.2312 167 51L164 51C163.004 47.3558 160.707 44.3727 159 41L157 41z"/>
<path style="fill:#754e1c; stroke:none;" d="M325 41L325 43L327 43L327 41L325 41z"/>
<path style="fill:#423115; stroke:none;" d="M91 52C95.9132 52.0135 99.7461 52.3945 104 55L105 52L101 52C100.584 48.9173 99.8421 45.994 99 43C93.3551 43.9048 91.3115 46.3295 91 52z"/>
<path style="fill:#413015; stroke:none;" d="M272 52C274.848 51.576 277.264 49.7272 280.05 49.4275C282.353 49.1797 284.793 50.4816 287 51L288 48C284.555 45.9638 273.034 39.2567 271.487 47.2029C271.19 48.7275 271.74 50.5162 272 52z"/>
<path style="fill:#7d511f; stroke:none;" d="M317 47C320.343 48.1588 322.156 46.84 324 44C321.272 44.5441 319.361 45.5347 317 47z"/>
<path style="fill:#caaa84; stroke:none;" d="M6 46L7 47L6 46z"/>
<path style="fill:#6c4e1f; stroke:none;" d="M21 48C22.312 49.4591 23.2309 50.1572 25 51C23.7741 48.9653 23.2974 48.6736 21 48z"/>
<path style="fill:#443216; stroke:none;" d="M213 56C212.883 53.27 212.501 50.6858 212 48C206.706 49.774 208.706 54.3148 213 56z"/>
<path style="fill:#67441a; stroke:none;" d="M312 51C314.645 50.5734 315.461 50.1791 317 48C314.606 48.648 313.464 49.0324 312 51z"/>
<path style="fill:#413015; stroke:none;" d="M247 49C244.259 55.0085 242.388 60.0511 251 57C250.84 53.4299 250.188 50.8421 247 49z"/>
<path style="fill:#caaa84; stroke:none;" d="M353 49L354 50L353 49z"/>
<path style="fill:#a26825; stroke:none;" d="M352 50C352.953 57.0739 355.09 64.0898 356.874 70.9992C357.483 73.3568 358.112 77.4553 361.105 77.9398C363.273 78.2909 364.858 76.3934 366.112 74.9375C369.567 70.9247 372.588 66.3449 375.61 62C376.734 60.3833 378.453 58.3475 378.093 56.213C377.652 53.599 374.128 52.3016 371.999 51.4676C365.445 48.9 358.82 48.7338 352 50z"/>
<path style="fill:#caaa84; stroke:none;" d="M369 50L370 51L369 50z"/>
<path style="fill:#664a1b; stroke:none;" d="M25 51C28.1207 52.4009 31.5893 52.7304 35 53C31.8287 51.1003 28.6464 51.0306 25 51z"/>
<path style="fill:#352711; stroke:none;" d="M224 60C215.745 59.9317 207.209 59.2897 199.004 60.4329C194.02 61.1273 189.448 64.3516 185 61L183 61C179.379 63.1992 178.312 59.9003 175.391 57.9475C172.477 55.9991 169.94 56.1722 168 53C164.305 52.533 160.735 52.0309 157 52L159 56C155.63 54.9618 152.5 53.4655 149 53C148.015 57.8254 145.693 59.7638 141 61L137 51C135.025 51.093 132.038 50.8269 130.438 52.2554C125.514 56.6517 135.432 65.5311 139.17 66.7762C143.872 68.3427 148.246 66.7105 152.961 67.1435C155.749 67.3996 158.22 68.7758 161.039 68.9421C175.102 69.7715 190.252 68.7467 204.039 67.1289C211.421 66.2627 221.936 69.7019 224 60z"/>
<path style="fill:#7e531d; stroke:none;" d="M309 51C310.248 51.6848 310.548 51.7488 312 52C310.752 51.3152 310.452 51.2512 309 51z"/>
<path style="fill:#583c17; stroke:none;" d="M42.6667 54.3333C42.2223 54.7778 43.2778 54.7222 43.3333 54.6667C43.7778 54.2222 42.7223 54.2777 42.6667 54.3333z"/>
<path style="fill:#453316; stroke:none;" d="M153 63C154.84 62.1028 156.711 60.6825 158.755 60.3248C160.362 60.0436 162.753 61.0078 163.878 59.3657C165.578 56.8845 162.465 55.247 160.395 55.7878C156.65 56.7661 154.068 59.4594 153 63z"/>
<path style="fill:#6d491c; stroke:none;" d="M291 56C293.756 57.0772 296.107 56.5316 299 56C296.194 54.8544 293.929 55.3078 291 56z"/>
<path style="fill:#6b471b; stroke:none;" d="M278 56C279.506 56.683 280.315 56.8259 282 57C280.494 56.3169 279.685 56.1741 278 56z"/>
<path style="fill:#caaa84; stroke:none;" d="M379 56L380 57L379 56z"/>
<path style="fill:#68461b; stroke:none;" d="M272 57C273.248 57.6848 273.548 57.7488 275 58C273.752 57.3152 273.452 57.2512 272 57z"/>
<path style="fill:#754d1d; stroke:none;" d="M268 58C269.248 58.6848 269.548 58.7488 271 59C269.752 58.3152 269.452 58.2512 268 58z"/>
<path style="fill:#b3844d; stroke:none;" d="M334.333 59.6667C334.278 59.7223 334.222 60.7777 334.667 60.3333C334.722 60.2778 334.778 59.2222 334.333 59.6667z"/>
<path style="fill:#6d4b1b; stroke:none;" d="M57 60C64.155 64.5153 74.7116 64.8289 83 65C81.494 64.317 80.6852 64.1741 79 64L79 61L57 60z"/>
<path style="fill:#523c18; stroke:none;" d="M68 60C69.769 60.7789 71.036 60.9124 73 61C71.2309 60.2211 69.9641 60.0876 68 60z"/>
<path style="fill:#7a501e; stroke:none;" d="M261.667 60.3333C261.222 60.7777 262.278 60.7223 262.333 60.6667C262.778 60.2222 261.722 60.2778 261.667 60.3333z"/>
<path style="fill:#784f1e; stroke:none;" d="M270 62C272.052 62.8742 273.747 62.9528 276 63C273.948 62.1257 272.253 62.0472 270 62z"/>
<path style="fill:#5d451a; stroke:none;" d="M79 63C84.3518 65.874 89.9747 66.9954 96 67L96 65C90.1908 64.9513 84.7855 63.1232 79 63z"/>
<path style="fill:#b3844d; stroke:none;" d="M335.333 63.6667C335.278 63.7224 335.222 64.7777 335.667 64.3333C335.722 64.2779 335.778 63.2222 335.333 63.6667z"/>
<path style="fill:#654a1d; stroke:none;" d="M241 64C244.432 65.4403 248.3 65 252 65C248.568 63.5597 244.7 64 241 64z"/>
<path style="fill:#714e1e; stroke:none;" d="M96 65C99.7437 69.9178 109.391 68 115 68C109.815 65.8244 101.688 65.0195 96 65z"/>
<path style="fill:#59421b; stroke:none;" d="M104 65L104 67L108 67L108 65L104 65z"/>
<path style="fill:#82541f; stroke:none;" d="M240 65L240 67C243.455 66.9905 246.632 66.802 250 66C246.837 64.6726 243.414 65.0004 240 65z"/>
<path style="fill:#5c441b; stroke:none;" d="M129 67C131.332 67.9845 133.457 67.9813 136 68C133.668 67.0155 131.543 67.0187 129 67z"/>
<path style="fill:#895921; stroke:none;" d="M147 67C149.613 68.0977 152.165 67.9928 155 68C152.387 66.9023 149.835 67.0072 147 67z"/>
<path style="fill:#5a3d18; stroke:none;" d="M155.667 67.3333C155.222 67.7778 156.278 67.7222 156.333 67.6667C156.778 67.2222 155.722 67.2777 155.667 67.3333z"/>
<path style="fill:#57401c; stroke:none;" d="M200 67C206.445 69.7044 216.032 68 223 68C216.555 65.2956 206.968 67 200 67z"/>
<path style="fill:#61481d; stroke:none;" d="M224 67C228.471 68.8763 234.183 68 239 68C234.529 66.1237 228.817 67 224 67z"/>
<path style="fill:#caaa84; stroke:none;" d="M371 67L372 68L371 67z"/>
<path style="fill:#5c441a; stroke:none;" d="M115 68C119.217 69.7693 124.459 69 129 69C124.783 67.2307 119.541 68 115 68z"/>
<path style="fill:#7d511f; stroke:none;" d="M129 68C133.065 69.7063 138.566 69.6501 143 70C138.76 67.4602 133.805 68 129 68z"/>
<path style="fill:#5e451b; stroke:none;" d="M167 68C169.052 68.8743 170.747 68.9528 173 69C170.948 68.1258 169.253 68.0472 167 68z"/>
<path style="fill:#543e1a; stroke:none;" d="M176 68C178.332 68.9845 180.457 68.9813 183 69C180.668 68.0155 178.543 68.0187 176 68z"/>
<path style="fill:#62481c; stroke:none;" d="M188 68C190.332 68.9845 192.457 68.9813 195 69C192.668 68.0155 190.543 68.0187 188 68z"/>
<path style="fill:#7a4f1f; stroke:none;" d="M200 68C206.445 70.7044 216.032 69 223 69C216.555 66.2956 206.968 68 200 68z"/>
<path style="fill:#68491e; stroke:none;" d="M158 69C160.89 70.213 163.874 69.9983 167 70C164.11 68.7871 161.126 69.0017 158 69z"/>
<path style="fill:#835421; stroke:none;" d="M167 69C171.724 70.9822 177.91 70 183 70C178.276 68.0178 172.09 69 167 69z"/>
<path style="fill:#64461c; stroke:none;" d="M183 69C184.769 69.7789 186.036 69.9124 188 70C186.231 69.2211 184.964 69.0876 183 69z"/>
<path style="fill:#77541f; stroke:none;" d="M188 69C191.432 70.4403 195.3 70 199 70C195.568 68.5597 191.7 69 188 69z"/>
<path style="fill:#a26825; stroke:none;" d="M370 87L374 100C383.607 99.2153 392.604 94.9446 402 93C401.019 86.3594 398.309 79.8142 395 74C386.319 77.6151 378.507 83.028 370 87z"/>
<path style="fill:#caaa84; stroke:none;" d="M391 75L392 76L391 75M363 78L364 79L363 78M348 79L349 80L348 79M380 81L381 82L380 81z"/>
<path style="fill:#766c60; stroke:none;" d="M339 82L340 83L339 82z"/>
<path style="fill:#caaa84; stroke:none;" d="M339 84L340 85L339 84M400 86L401 87L400 86M401 89L402 90L401 89M399 93L400 94L399 93M382 98L383 99L382 98M403 111L404 112L403 111z"/>
<path style="fill:#a26825; stroke:none;" d="M378 116L379 128C387.997 128.074 398.254 128.918 407 131C407.064 127.922 407.438 125.025 408 122L392 122C396.828 120.533 401.954 120.042 407 120C406.992 116.831 406.9 114.041 406 111C396.814 113.263 387.296 114.248 378 116z"/>
<path style="fill:#caaa84; stroke:none;" d="M397 112L398 113L397 112z"/>
<path style="fill:#ffffff; stroke:none;" d="M0 113L0 273L167 273C162.097 270.943 155.346 271.516 150 270.728C140.601 269.344 131.183 267.144 122 264.715C108.946 261.26 96.4332 256.458 84 251.225C75.0917 247.475 65.8923 243.931 58 238.254C39.5006 224.947 26.6871 206.482 17.3086 186C10.3817 170.872 6.08653 154.332 3.25 138C1.91708 130.325 2.94062 120.008 0 113z"/>
<path style="fill:#caaa84; stroke:none;" d="M407 117L408 118L407 117z"/>
<path style="fill:#ffffff; stroke:none;" d="M407 118L408 119L407 118z"/>
<path style="fill:#caaa84; stroke:none;" d="M407 119L408 120L407 119z"/>
<path style="fill:#ffffff; stroke:none;" d="M397 121C400.432 122.44 404.3 122 408 122L408 120C404.249 120.021 400.67 120.199 397 121z"/>
<path style="fill:#caaa84; stroke:none;" d="M400 120L401 121L400 120z"/>
<path style="fill:#c9a780; stroke:none;" d="M378 121L379 122L378 121z"/>
<path style="fill:#b3844d; stroke:none;" d="M392 121C393.769 121.779 395.036 121.912 397 122C395.231 121.221 393.964 121.088 392 121z"/>
<path style="fill:#412a0f; stroke:none;" d="M260 122C258.814 123.186 258.472 123.584 258 125C259.548 123.738 259.808 123.806 260 122z"/>
<path style="fill:#000000; stroke:none;" d="M247 137L254 139C252.55 144.111 248.596 151.626 251.438 156.772C256.315 165.604 267.282 155.391 268 149C263.245 149.961 260.489 153.646 256 155C256.428 145.189 259.39 139.52 269 137C268.043 134.066 265.517 133.324 264.309 130.701C263.156 128.2 263.783 124.719 263 122C258.817 124.108 258.801 127.636 255.687 130.682C252.536 133.764 248.531 132.386 247 137z"/>
<path style="fill:#563714; stroke:none;" d="M199 123C200.248 123.685 200.548 123.749 202 124C200.752 123.315 200.452 123.251 199 123z"/>
<path style="fill:#2b1c0a; stroke:none;" d="M202.667 123.333C202.222 123.778 203.278 123.722 203.333 123.667C203.778 123.222 202.722 123.278 202.667 123.333z"/>
<path style="fill:#000000; stroke:none;" d="M198 125C199.373 127.547 200.218 128.188 203 129C201.208 139.541 196.03 149.189 196 160C201.65 159.747 207.863 162.129 212.985 158.991C219.307 155.116 223.817 142.707 218.272 136.434C215.855 133.698 211.323 133.801 208 133C209.995 124.495 205.66 122.413 198 125M237.303 124.137C233.652 126.188 236.954 132.234 240.4 129.914C243.411 127.888 240.889 122.122 237.303 124.137z"/>
<path style="fill:#412a0f; stroke:none;" d="M198 124L199 125L198 124z"/>
<path style="fill:#613e16; stroke:none;" d="M208 124L209 125L208 124M235 124L236 125L235 124z"/>
<path style="fill:#2b1c0a; stroke:none;" d="M242 125L242 129C242.71 127.241 242.71 126.759 242 125z"/>
<path style="fill:#774c1b; stroke:none;" d="M264.333 125.667C264.278 125.722 264.222 126.778 264.667 126.333C264.722 126.278 264.778 125.222 264.333 125.667z"/>
<path style="fill:#563714; stroke:none;" d="M198 127L199 128L198 127M209.333 127.667C209.278 127.722 209.222 128.778 209.667 128.333C209.722 128.278 209.778 127.222 209.333 127.667z"/>
<path style="fill:#4c3111; stroke:none;" d="M257.333 128.667C257.278 128.722 257.222 129.778 257.667 129.333C257.722 129.278 257.778 128.222 257.333 128.667z"/>
<path style="fill:#caaa84; stroke:none;" d="M384 128L385 129L384 128z"/>
<path style="fill:#563714; stroke:none;" d="M202 129L202 133C202.71 131.24 202.71 130.76 202 129z"/>
<path style="fill:#412a0f; stroke:none;" d="M263 129L263 132C263.696 130.446 263.696 130.554 263 129M236 130L237 131L236 130M208.333 131.667C208.278 131.722 208.222 132.778 208.667 132.333C208.722 132.278 208.778 131.222 208.333 131.667z"/>
<path style="fill:#2b1c0a; stroke:none;" d="M237 131C238.248 131.685 238.548 131.749 240 132C238.752 131.315 238.452 131.251 237 131z"/>
<path style="fill:#613e16; stroke:none;" d="M126.667 132.333C126.222 132.778 127.278 132.722 127.333 132.667C127.778 132.222 126.722 132.278 126.667 132.333z"/>
<path style="fill:#36230c; stroke:none;" d="M172 132C173.248 132.685 173.549 132.749 175 133C173.752 132.315 173.452 132.251 172 132z"/>
<path style="fill:#563714; stroke:none;" d="M248 132C249.506 132.683 250.315 132.826 252 133C250.494 132.317 249.685 132.174 248 132z"/>
<path style="fill:#2b1c0a; stroke:none;" d="M252 132C253.248 132.685 253.548 132.749 255 133C253.752 132.315 253.452 132.251 252 132z"/>
<path style="fill:#4c3111; stroke:none;" d="M125 133L126 134L125 133z"/>
<path style="fill:#000000; stroke:none;" d="M124 134L124 137C132.921 142.135 121.409 150.805 126.859 157.681C129.858 161.466 134.269 158.642 138 158.16C144.1 157.37 153.971 161.317 153 151L147 153C147.416 146.457 150.663 140.578 151 134C145.335 135.749 145.711 140.489 142.992 145C140.02 149.93 135.07 153.494 130 156C129.782 148.082 139.196 130.747 124 134z"/>
<path style="fill:#4c3111; stroke:none;" d="M130 133L131 134L130 133z"/>
<path style="fill:#774c1b; stroke:none;" d="M160 133C161.769 133.779 163.036 133.912 165 134C163.231 133.221 161.964 133.088 160 133z"/>
<path style="fill:#563714; stroke:none;" d="M170 133L171 134L170 133z"/>
<path style="fill:#000000; stroke:none;" d="M159 135C162.773 142.127 160.182 147.767 158 155C159.479 155.986 159.203 156 161 156C164.202 150.494 166.216 143.25 172 140C170.274 146.654 168.058 153.083 168 160C175.909 155.173 175.026 143.751 183 139C181.865 143.79 177.577 151.025 178.812 155.941C180.74 163.609 189.175 158.215 190 153L185 153C185.575 148.547 188.972 141.408 187.356 137.148C185.996 133.561 182.023 134.385 179 134.121C172.356 133.542 165.523 133.072 159 135z"/>
<path style="fill:#412a0f; stroke:none;" d="M181 133C182.506 133.683 183.315 133.826 185 134C183.494 133.317 182.685 133.174 181 133z"/>
<path style="fill:#2b1c0a; stroke:none;" d="M209.667 133.333C209.222 133.778 210.278 133.722 210.333 133.667C210.778 133.222 209.722 133.278 209.667 133.333z"/>
<path style="fill:#563714; stroke:none;" d="M211 133C212.506 133.683 213.315 133.826 215 134C213.494 133.317 212.685 133.174 211 133M229 133C232.112 134.309 235.679 134.209 239 135C235.96 132.697 232.732 133.003 229 133z"/>
<path style="fill:#412a0f; stroke:none;" d="M247 133L248 134L247 133M268 133L269 134L268 133z"/>
<path style="fill:#563714; stroke:none;" d="M101 134C102.769 134.779 104.036 134.912 106 135C104.231 134.221 102.964 134.088 101 134z"/>
<path style="fill:#000000; stroke:none;" d="M100 141C102.409 139.779 105.093 137.71 107.871 139.079C110.183 140.217 111.646 145.034 114.74 144.168C118.155 143.213 116.533 138.19 114.682 136.6C110.155 132.708 98.6661 133.819 96.6466 140.019C94.3821 146.972 101.419 148.017 105.952 149.558C108.259 150.342 110.506 152.149 109.029 154.79C107.098 158.243 101.381 158.839 98.9838 155.683C97.7124 154.009 97.6587 151.209 95.5864 150.176C92.2079 148.492 90.7777 153.511 91.3372 155.892C92.1499 159.351 95.939 160.242 99 160.699C106.143 161.765 117.52 158.983 113.396 149.133C111.3 144.127 103.492 145.193 100 141z"/>
<path style="fill:#6c4519; stroke:none;" d="M108.667 134.333C108.222 134.778 109.278 134.722 109.333 134.667C109.778 134.222 108.722 134.278 108.667 134.333z"/>
<path style="fill:#36230c; stroke:none;" d="M110.667 134.333C110.222 134.778 111.278 134.722 111.333 134.667C111.778 134.222 110.722 134.278 110.667 134.333z"/>
<path style="fill:#412a0f; stroke:none;" d="M132 134L133 135L132 134M159 134L160 135L159 134z"/>
<path style="fill:#774c1b; stroke:none;" d="M177 134C178.248 134.685 178.549 134.749 180 135C178.752 134.315 178.452 134.251 177 134z"/>
<path style="fill:#412a0f; stroke:none;" d="M186 134L187 135L186 134M216 134L217 135L216 134z"/>
<path style="fill:#000000; stroke:none;" d="M227 134L227 138C229.244 138.667 231.318 139.277 231.494 142.059C231.819 147.219 226.948 152.292 229.603 157.682C233.196 164.975 241.184 155.032 242 151C238.722 151.882 236.084 153.663 233 155C233.775 150.033 236.392 145.831 237.697 141.001C238.196 139.153 239.095 136.519 237.356 135.028C235.052 133.05 229.824 134 227 134z"/>
<path style="fill:#563714; stroke:none;" d="M246.333 134.667C246.278 134.722 246.222 135.778 246.667 135.333C246.722 135.278 246.778 134.222 246.333 134.667M269.333 134.667C269.278 134.722 269.222 135.778 269.667 135.333C269.722 135.278 269.778 134.222 269.333 134.667z"/>
<path style="fill:#36230c; stroke:none;" d="M123.333 135.667C123.278 135.722 123.222 136.778 123.667 136.333C123.722 136.278 123.778 135.222 123.333 135.667z"/>
<path style="fill:#2b1c0a; stroke:none;" d="M133.333 135.667C133.278 135.722 133.222 136.778 133.667 136.333C133.722 136.278 133.778 135.222 133.333 135.667M151 135L151 138C151.696 136.446 151.696 136.554 151 135z"/>
<path style="fill:#563714; stroke:none;" d="M187 135L188 136L187 135z"/>
<path style="fill:#36230c; stroke:none;" d="M226.333 135.667C226.278 135.722 226.222 136.778 226.667 136.333C226.722 136.278 226.778 135.222 226.333 135.667z"/>
<path style="fill:#563714; stroke:none;" d="M98 136L99 137L98 136M115 136L116 137L115 136z"/>
<path style="fill:#4c3111; stroke:none;" d="M146 136L147 137L146 136z"/>
<path style="fill:#613e16; stroke:none;" d="M159 136L160 137L159 136z"/>
<path style="fill:#412a0f; stroke:none;" d="M97 137L98 138L97 137z"/>
<path style="fill:#563714; stroke:none;" d="M116 137L117 138L116 137z"/>
<path style="fill:#4c3111; stroke:none;" d="M124.667 137.333C124.222 137.778 125.278 137.722 125.333 137.667C125.778 137.222 124.722 137.278 124.667 137.333z"/>
<path style="fill:#563714; stroke:none;" d="M188 137L188 140C188.696 138.446 188.696 138.554 188 137z"/>
<path style="fill:#4c3111; stroke:none;" d="M219 137L220 138L219 137z"/>
<path style="fill:#412a0f; stroke:none;" d="M248.667 137.333C248.222 137.778 249.278 137.722 249.333 137.667C249.778 137.222 248.722 137.278 248.667 137.333z"/>
<path style="fill:#4c3111; stroke:none;" d="M267 137L268 138L267 137z"/>
<path style="fill:#563714; stroke:none;" d="M96 138L97 139L96 138M103 138C105.052 138.874 106.747 138.953 109 139C106.948 138.126 105.253 138.047 103 138M200 138L201 139L200 138z"/>
<path style="fill:#774c1b; stroke:none;" d="M210 138C211.248 138.685 211.548 138.749 213 139C211.752 138.315 211.452 138.251 210 138z"/>
<path style="fill:#613e16; stroke:none;" d="M228 138C229.248 138.685 229.549 138.749 231 139C229.752 138.315 229.452 138.251 228 138z"/>
<path style="fill:#6c4519; stroke:none;" d="M238.333 138.667C238.278 138.722 238.222 139.778 238.667 139.333C238.722 139.278 238.778 138.222 238.333 138.667z"/>
<path style="fill:#774c1b; stroke:none;" d="M262 138C263.248 138.685 263.548 138.749 265 139C263.752 138.315 263.452 138.251 262 138z"/>
<path style="fill:#4c3111; stroke:none;" d="M117 139L117 143C117.71 141.241 117.71 140.759 117 139z"/>
<path style="fill:#774c1b; stroke:none;" d="M128 139L128 142C128.696 140.446 128.696 140.554 128 139z"/>
<path style="fill:#563714; stroke:none;" d="M150 139L151 140L150 139M161 139L161 142C161.696 140.446 161.696 140.554 161 139z"/>
<path style="fill:#412a0f; stroke:none;" d="M181 139L182 142C182.685 140.752 182.749 140.452 183 139L181 139z"/>
<path style="fill:#4c3111; stroke:none;" d="M208 139L209 140L208 139z"/>
<path style="fill:#a26825; stroke:none;" d="M209.09 140.047C205.525 141.849 202.781 146.938 203.192 150.906C203.59 154.747 207.543 156.525 210.895 154.802C214.583 152.907 216.385 147.966 215.756 144.019C215.216 140.632 212.465 138.341 209.09 140.047z"/>
<path style="fill:#563714; stroke:none;" d="M220 139L220 142C220.696 140.446 220.696 140.554 220 139z"/>
<path style="fill:#4c3111; stroke:none;" d="M253.333 139.667C253.278 139.722 253.222 140.778 253.667 140.333C253.722 140.278 253.778 139.222 253.333 139.667z"/>
<path style="fill:#563714; stroke:none;" d="M260 139L261 140L260 139M95 140L95 143C95.6961 141.446 95.6961 141.554 95 140M101 140L102 141L101 140z"/>
<path style="fill:#2b1c0a; stroke:none;" d="M110 140L110 143C110.696 141.446 110.696 141.554 110 140z"/>
<path style="fill:#4c3111; stroke:none;" d="M133 140L134 141L133 140z"/>
<path style="fill:#774c1b; stroke:none;" d="M144 140L144 143C144.696 141.446 144.696 141.554 144 140z"/>
<path style="fill:#563714; stroke:none;" d="M169 140L170 141L169 140z"/>
<path style="fill:#412a0f; stroke:none;" d="M171.333 140.667C171.278 140.722 171.222 141.778 171.667 141.333C171.722 141.278 171.778 140.222 171.333 140.667z"/>
<path style="fill:#563714; stroke:none;" d="M179 140L179 143C179.696 141.446 179.696 141.554 179 140M199 140L199 143C199.696 141.446 199.696 141.554 199 140z"/>
<path style="fill:#613e16; stroke:none;" d="M207 140L208 141L207 140z"/>
<path style="fill:#2b1c0a; stroke:none;" d="M232.333 140.667C232.278 140.722 232.222 141.778 232.667 141.333C232.722 141.278 232.778 140.222 232.333 140.667z"/>
<path style="fill:#563714; stroke:none;" d="M259 140L260 141L259 140z"/>
<path style="fill:#36230c; stroke:none;" d="M100.333 141.667C100.278 141.722 100.222 142.778 100.667 142.333C100.722 142.278 100.778 141.222 100.333 141.667z"/>
<path style="fill:#774c1b; stroke:none;" d="M149 141L149 145C149.71 143.24 149.71 142.759 149 141z"/>
<path style="fill:#613e16; stroke:none;" d="M187.333 141.667C187.278 141.722 187.222 142.778 187.667 142.333C187.722 142.278 187.778 141.222 187.333 141.667z"/>
<path style="fill:#4c3111; stroke:none;" d="M206 141L207 142L206 141z"/>
<path style="fill:#563714; stroke:none;" d="M215 141L216 142L215 141M168 142L169 143L168 142z"/>
<path style="fill:#caaa84; stroke:none;" d="M339 142L340 143L339 142z"/>
<path style="fill:#a26825; stroke:none;" d="M376 142L373 155C381.99 157.925 390.89 161.513 400 164C402.091 158.536 403.744 152.866 404 147C394.53 146.246 385.481 142.754 376 142z"/>
<path style="fill:#613e16; stroke:none;" d="M101 143L102 144L101 143M205 143L206 144L205 143z"/>
<path style="fill:#412a0f; stroke:none;" d="M216 143L216 148C216.83 145.969 216.83 145.03 216 143z"/>
<path style="fill:#4c3111; stroke:none;" d="M231 143L232 144L231 143z"/>
<path style="fill:#36230c; stroke:none;" d="M252.333 143.667C252.278 143.722 252.222 144.778 252.667 144.333C252.722 144.278 252.778 143.222 252.333 143.667z"/>
<path style="fill:#4c3111; stroke:none;" d="M258 143L259 144L258 143z"/>
<path style="fill:#563714; stroke:none;" d="M96 144L97 145L96 144M102 144C104.052 144.874 105.747 144.953 108 145C105.948 144.126 104.253 144.047 102 144z"/>
<path style="fill:#412a0f; stroke:none;" d="M112 144L113 145L112 144z"/>
<path style="fill:#563714; stroke:none;" d="M143 144L144 145L143 144M160.333 144.667C160.278 144.722 160.222 145.778 160.667 145.333C160.722 145.278 160.778 144.222 160.333 144.667M170 144L170 147C170.696 145.446 170.696 145.554 170 144z"/>
<path style="fill:#4c3111; stroke:none;" d="M181 144L182 145L181 144z"/>
<path style="fill:#563714; stroke:none;" d="M186 144L186 147C186.696 145.446 186.696 145.554 186 144z"/>
<path style="fill:#774c1b; stroke:none;" d="M109.667 145.333C109.222 145.778 110.278 145.722 110.333 145.667C110.778 145.222 109.722 145.278 109.667 145.333z"/>
<path style="fill:#563714; stroke:none;" d="M126.333 145.667C126.278 145.722 126.222 146.778 126.667 146.333C126.722 146.278 126.778 145.222 126.333 145.667M166 145L167 146L166 145z"/>
<path style="fill:#2b1c0a; stroke:none;" d="M198.333 145.667C198.278 145.722 198.222 146.778 198.667 146.333C198.722 146.278 198.778 145.222 198.333 145.667z"/>
<path style="fill:#4c3111; stroke:none;" d="M230.333 145.667C230.278 145.722 230.222 146.778 230.667 146.333C230.722 146.278 230.778 145.222 230.333 145.667z"/>
<path style="fill:#774c1b; stroke:none;" d="M257 145L257 148C257.696 146.446 257.696 146.554 257 145z"/>
<path style="fill:#caaa84; stroke:none;" d="M395 145L396 146L395 145z"/>
<path style="fill:#563714; stroke:none;" d="M97 146L98 147L97 146z"/>
<path style="fill:#412a0f; stroke:none;" d="M142 146L143 147L142 146z"/>
<path style="fill:#613e16; stroke:none;" d="M148 146L149 147L148 146z"/>
<path style="fill:#2b1c0a; stroke:none;" d="M160 146L160 149C160.696 147.446 160.696 147.554 160 146z"/>
<path style="fill:#563714; stroke:none;" d="M165 146L165 149C165.696 147.446 165.696 147.554 165 146z"/>
<path style="fill:#6c4519; stroke:none;" d="M176.333 146.667C176.278 146.722 176.222 147.778 176.667 147.333C176.722 147.278 176.778 146.222 176.333 146.667z"/>
<path style="fill:#4c3111; stroke:none;" d="M180 146L181 147L180 146z"/>
<path style="fill:#563714; stroke:none;" d="M203 146L204 147L203 146z"/>
<path style="fill:#6c4519; stroke:none;" d="M220.333 146.667C220.278 146.722 220.222 147.778 220.667 147.333C220.722 147.278 220.778 146.222 220.333 146.667z"/>
<path style="fill:#36230c; stroke:none;" d="M251.333 146.667C251.278 146.722 251.222 147.778 251.667 147.333C251.722 147.278 251.778 146.222 251.333 146.667z"/>
<path style="fill:#caaa84; stroke:none;" d="M400 146L401 147L400 146z"/>
<path style="fill:#2b1c0a; stroke:none;" d="M126.333 147.667C126.278 147.722 126.222 148.778 126.667 148.333C126.722 148.278 126.778 147.222 126.333 147.667z"/>
<path style="fill:#4c3111; stroke:none;" d="M147 147L148 148L147 147z"/>
<path style="fill:#caaa84; stroke:none;" d="M404 147L405 148L404 147z"/>
<path style="fill:#563714; stroke:none;" d="M100 148L101 149L100 148z"/>
<path style="fill:#2b1c0a; stroke:none;" d="M169.333 148.667C169.278 148.722 169.222 149.778 169.667 149.333C169.722 149.278 169.778 148.222 169.333 148.667M179 148L179 152C179.71 150.241 179.71 149.759 179 148z"/>
<path style="fill:#4c3111; stroke:none;" d="M197 148L198 149L197 148z"/>
<path style="fill:#563714; stroke:none;" d="M234 148L234 151C234.696 149.446 234.696 149.554 234 148M266.667 148.333C266.222 148.778 267.278 148.722 267.333 148.667C267.778 148.222 266.722 148.278 266.667 148.333z"/>
<path style="fill:#88745c; stroke:none;" d="M5.33333 149.667C5.2778 149.722 5.22223 150.778 5.66667 150.333C5.72224 150.278 5.77778 149.222 5.33333 149.667z"/>
<path style="fill:#2b1c0a; stroke:none;" d="M101.667 149.333C101.222 149.778 102.278 149.722 102.333 149.667C102.778 149.222 101.722 149.278 101.667 149.333z"/>
<path style="fill:#563714; stroke:none;" d="M103 149C104.506 149.683 105.315 149.826 107 150C105.494 149.317 104.685 149.174 103 149z"/>
<path style="fill:#412a0f; stroke:none;" d="M114 149L114 155C114.951 152.715 114.951 151.285 114 149M164 149L165 150L164 149z"/>
<path style="fill:#774c1b; stroke:none;" d="M185.333 149.667C185.278 149.722 185.222 150.778 185.667 150.333C185.722 150.278 185.778 149.222 185.333 149.667z"/>
<path style="fill:#563714; stroke:none;" d="M215 149L216 150L215 149z"/>
<path style="fill:#613e16; stroke:none;" d="M219.333 149.667C219.278 149.722 219.222 150.778 219.667 150.333C219.722 150.278 219.778 149.222 219.333 149.667z"/>
<path style="fill:#412a0f; stroke:none;" d="M250.333 149.667C250.278 149.722 250.222 150.778 250.667 150.333C250.722 150.278 250.778 149.222 250.333 149.667z"/>
<path style="fill:#6c4519; stroke:none;" d="M256.333 149.667C256.278 149.722 256.222 150.778 256.667 150.333C256.722 150.278 256.778 149.222 256.333 149.667z"/>
<path style="fill:#563714; stroke:none;" d="M264 149L265 150L264 149z"/>
<path style="fill:#2b1c0a; stroke:none;" d="M268 149L268 152C268.696 150.446 268.696 150.554 268 149z"/>
<path style="fill:#563714; stroke:none;" d="M109 150L110 151L109 150M125 150L126 151L125 150z"/>
<path style="fill:#412a0f; stroke:none;" d="M129.333 150.667C129.278 150.722 129.222 151.778 129.667 151.333C129.722 151.278 129.778 150.222 129.333 150.667z"/>
<path style="fill:#4c3111; stroke:none;" d="M196.333 150.667C196.278 150.722 196.222 151.778 196.667 151.333C196.722 151.278 196.778 150.222 196.333 150.667M97 151L98 152L97 151z"/>
<path style="fill:#563714; stroke:none;" d="M163 151L164 152L163 151z"/>
<path style="fill:#4c3111; stroke:none;" d="M168.333 151.667C168.278 151.722 168.222 152.778 168.667 152.333C168.722 152.278 168.778 151.222 168.333 151.667z"/>
<path style="fill:#412a0f; stroke:none;" d="M214 151L215 152L214 151z"/>
<path style="fill:#774c1b; stroke:none;" d="M233 151L233 155C233.71 153.241 233.71 152.759 233 151z"/>
<path style="fill:#36230c; stroke:none;" d="M238.667 151.333C238.222 151.778 239.278 151.722 239.333 151.667C239.778 151.222 238.722 151.278 238.667 151.333z"/>
<path style="fill:#774c1b; stroke:none;" d="M242 151L242 154C242.696 152.446 242.696 152.554 242 151M90 152L90 158C90.9511 155.715 90.9511 154.285 90 152z"/>
<path style="fill:#6c4519; stroke:none;" d="M147 152C148.248 152.685 148.548 152.749 150 153C148.752 152.315 148.452 152.251 147 152z"/>
<path style="fill:#2b1c0a; stroke:none;" d="M228 152L228 158C228.951 155.715 228.951 154.285 228 152z"/>
<path style="fill:#613e16; stroke:none;" d="M158 153L159 154L158 153z"/>
<path style="fill:#774c1b; stroke:none;" d="M173.333 153.667C173.278 153.722 173.222 154.778 173.667 154.333C173.722 154.278 173.778 153.222 173.333 153.667z"/>
<path style="fill:#412a0f; stroke:none;" d="M178 153L179 154L178 153z"/>
<path style="fill:#4c3111; stroke:none;" d="M190 153L190 156C190.696 154.446 190.696 154.554 190 153M236 153L237 154L236 153z"/>
<path style="fill:#563714; stroke:none;" d="M267 153L268 154L267 153z"/>
<path style="fill:#412a0f; stroke:none;" d="M133 154L134 155L133 154z"/>
<path style="fill:#563714; stroke:none;" d="M153 154L154 155L153 154M177.333 154.667C177.278 154.722 177.222 155.778 177.667 155.333C177.722 155.278 177.778 154.222 177.333 154.667z"/>
<path style="fill:#2b1c0a; stroke:none;" d="M195 154L195 160C195.951 157.715 195.951 156.285 195 154z"/>
<path style="fill:#563714; stroke:none;" d="M204 154L205 155L204 154M235 154L236 155L235 154z"/>
<path style="fill:#412a0f; stroke:none;" d="M241 154L242 155L241 154z"/>
<path style="fill:#563714; stroke:none;" d="M250.333 154.667C250.278 154.722 250.222 155.778 250.667 155.333C250.722 155.278 250.778 154.222 250.333 154.667z"/>
<path style="fill:#412a0f; stroke:none;" d="M259 154L260 155L259 154z"/>
<path style="fill:#2b1c0a; stroke:none;" d="M98.3333 155.667C98.2778 155.722 98.2222 156.778 98.6667 156.333C98.7222 156.278 98.7778 155.222 98.3333 155.667z"/>
<path style="fill:#563714; stroke:none;" d="M109 155L110 156L109 155z"/>
<path style="fill:#2b1c0a; stroke:none;" d="M130.667 155.333C130.222 155.778 131.278 155.722 131.333 155.667C131.778 155.222 130.722 155.278 130.667 155.333z"/>
<path style="fill:#613e16; stroke:none;" d="M158 155L159 156L158 155z"/>
<path style="fill:#412a0f; stroke:none;" d="M172 155L173 156L172 155M205 155L206 156L205 155M210 155L211 156L210 155z"/>
<path style="fill:#563714; stroke:none;" d="M108 156L109 157L108 156z"/>
<path style="fill:#774c1b; stroke:none;" d="M113.333 156.667C113.278 156.722 113.222 157.778 113.667 157.333C113.722 157.278 113.778 156.222 113.333 156.667z"/>
<path style="fill:#4c3111; stroke:none;" d="M206.667 156.333C206.222 156.778 207.278 156.722 207.333 156.667C207.778 156.222 206.722 156.278 206.667 156.333z"/>
<path style="fill:#563714; stroke:none;" d="M264 156L265 157L264 156z"/>
<path style="fill:#caaa84; stroke:none;" d="M402 156L403 157L402 156z"/>
<path style="fill:#563714; stroke:none;" d="M99 157C101.613 158.098 104.165 157.993 107 158C104.387 156.902 101.835 157.007 99 157M138 157L139 158L138 157z"/>
<path style="fill:#4c3111; stroke:none;" d="M215 157L216 158L215 157z"/>
<path style="fill:#613e16; stroke:none;" d="M239 157L240 158L239 157M263 157L264 158L263 157z"/>
<path style="fill:#caaa84; stroke:none;" d="M380 157L381 158L380 157z"/>
<path style="fill:#563714; stroke:none;" d="M126 158L127 159L126 158z"/>
<path style="fill:#4c3111; stroke:none;" d="M141 158L142 159L141 158M170 158L171 159L170 158z"/>
<path style="fill:#613e16; stroke:none;" d="M179 158L180 159L179 158z"/>
<path style="fill:#563714; stroke:none;" d="M214 158L215 159L214 158z"/>
<path style="fill:#613e16; stroke:none;" d="M262 158L263 159L262 158z"/>
<path style="fill:#caaa84; stroke:none;" d="M336 158L337 159L336 158M383 158L384 159L383 158z"/>
<path style="fill:#563714; stroke:none;" d="M93 159L94 160L93 159M110.667 159.333C110.222 159.778 111.278 159.722 111.333 159.667C111.778 159.222 110.722 159.278 110.667 159.333z"/>
<path style="fill:#613e16; stroke:none;" d="M127 159L128 160L127 159z"/>
<path style="fill:#563714; stroke:none;" d="M133.667 159.333C133.222 159.778 134.278 159.722 134.333 159.667C134.778 159.222 133.722 159.278 133.667 159.333M143.667 159.333C143.222 159.778 144.278 159.722 144.333 159.667C144.778 159.222 143.722 159.278 143.667 159.333z"/>
<path style="fill:#2b1c0a; stroke:none;" d="M145 159C146.506 159.683 147.315 159.826 149 160C147.494 159.317 146.685 159.174 145 159z"/>
<path style="fill:#563714; stroke:none;" d="M199.667 159.333C199.222 159.778 200.278 159.722 200.333 159.667C200.778 159.222 199.722 159.278 199.667 159.333z"/>
<path style="fill:#412a0f; stroke:none;" d="M212 159L213 160L212 159z"/>
<path style="fill:#563714; stroke:none;" d="M236 159L237 160L236 159z"/>
<path style="fill:#412a0f; stroke:none;" d="M253 159L254 160L253 159z"/>
<path style="fill:#774c1b; stroke:none;" d="M260.667 159.333C260.222 159.778 261.278 159.722 261.333 159.667C261.778 159.222 260.722 159.278 260.667 159.333z"/>
<path style="fill:#2b1c0a; stroke:none;" d="M95 160C96.2484 160.685 96.5484 160.749 98 161C96.7517 160.315 96.4516 160.251 95 160z"/>
<path style="fill:#563714; stroke:none;" d="M108 160L109 161L108 160z"/>
<path style="fill:#774c1b; stroke:none;" d="M183.667 160.333C183.222 160.778 184.278 160.722 184.333 160.667C184.778 160.222 183.722 160.278 183.667 160.333z"/>
<path style="fill:#412a0f; stroke:none;" d="M203.667 160.333C203.222 160.778 204.278 160.722 204.333 160.667C204.778 160.222 203.722 160.278 203.667 160.333z"/>
<path style="fill:#4c3111; stroke:none;" d="M210 160L211 161L210 160z"/>
<path style="fill:#774c1b; stroke:none;" d="M231 160C232.506 160.683 233.315 160.826 235 161C233.494 160.317 232.685 160.174 231 160M254 160C255.506 160.683 256.315 160.826 258 161C256.494 160.317 255.685 160.174 254 160z"/>
<path style="fill:#563714; stroke:none;" d="M100 161C102.332 161.985 104.457 161.981 107 162C104.668 161.015 102.543 161.019 100 161z"/>
<path style="fill:#613e16; stroke:none;" d="M206.667 161.333C206.222 161.778 207.278 161.722 207.333 161.667C207.778 161.222 206.722 161.278 206.667 161.333z"/>
<path style="fill:#caaa84; stroke:none;" d="M335 162L336 163L335 162z"/>
<path style="fill:#a26825; stroke:none;" d="M367 166C365.544 168.535 362.112 171.96 362.192 175C362.268 177.846 365.198 180.123 366.99 182C371.396 186.615 375.49 191.477 380 196C385.431 192.093 389.953 186.413 392 180C383.581 175.566 375.734 169.764 367 166z"/>
<path style="fill:#caaa84; stroke:none;" d="M368 166L369 167L368 166M10 168L11 169L10 168M363 171L364 172L363 171M385 176L386 177L385 176M330 177L331 178L330 177M351 180L352 181L351 180z"/>
<path style="fill:#b3844d; stroke:none;" d="M348.667 181.333C348.222 181.778 349.278 181.722 349.333 181.667C349.778 181.222 348.722 181.278 348.667 181.333z"/>
<path style="fill:#a26825; stroke:none;" d="M342 183C342.006 192.379 343.807 201.642 344 211C350.754 210.981 356.808 209.741 363 207C360.047 198.272 356.558 189.009 352 181L342 183z"/>
<path style="fill:#caaa84; stroke:none;" d="M391 182L392 183L391 182M353 183L354 184L353 183M327 194L328 195L327 194M358 195L359 196L358 195z"/>
<path style="fill:#342b20; stroke:none;" d="M318 202L319 203L318 202z"/>
<path style="fill:#caaa84; stroke:none;" d="M343 206L344 207L343 206z"/>
<path style="fill:#302417; stroke:none;" d="M311 213L312 214L311 213z"/>
<path style="fill:#caaa84; stroke:none;" d="M287 239L288 240L287 239M283 242L284 243L283 242z"/>
<path style="fill:#302417; stroke:none;" d="M273 248L274 249L273 248z"/>
<path style="fill:#caaa84; stroke:none;" d="M88 253L89 254L88 253M93 255L94 256L93 255M257 256L258 257L257 256M104 259L105 260L104 259M107 260L108 261L107 260M110 261L111 262L110 261M120 264L121 265L120 264M225 267L226 268L225 267z"/>
<path style="fill:#b07f47; stroke:none;" d="M179.667 269.333C179.222 269.778 180.278 269.722 180.333 269.667C180.778 269.222 179.722 269.278 179.667 269.333z"/>
<path style="fill:#caaa84; stroke:none;" d="M216 269L217 270L216 269z"/>
<path style="fill:#ffffff; stroke:none;" d="M192 272C193.248 272.685 193.548 272.749 195 273C193.752 272.315 193.452 272.251 192 272z"/>
<path style="fill:#caaa84; stroke:none;" d="M195 272L196 273L195 272z"/>
</svg>
